<svg width="49" height="49" viewBox="0 0 49 49" fill="none" xmlns="http://www.w3.org/2000/svg">
<path d="M35.8666 4.81478C34.8666 5.21478 33.2666 6.01478 32.2666 6.01478H24.6666C19.8927 6.01478 15.3144 7.9112 11.9387 11.2869C8.56306 14.6625 6.66663 19.2409 6.66663 24.0148V31.6148C6.66663 32.8148 5.86663 34.2148 5.46663 35.2148C4.85969 36.3329 4.63044 37.6173 4.81306 38.8764C4.99569 40.1354 5.58041 41.3018 6.48003 42.2014C7.37965 43.101 8.54596 43.6857 9.80504 43.8683C11.0641 44.051 12.3485 43.8217 13.4666 43.2148C14.4666 42.8148 16.0666 42.0148 17.0666 42.0148H24.6666C29.4405 42.0148 34.0189 40.1184 37.3946 36.7427C40.7702 33.367 42.6666 28.7887 42.6666 24.0148V16.4148C42.6666 15.2148 43.4666 13.8148 43.8666 12.8148C44.4736 11.6966 44.7028 10.4123 44.5202 9.15318C44.3376 7.89411 43.7529 6.72779 42.8532 5.82817C41.9536 4.92856 40.7873 4.34383 39.5282 4.16121C38.2692 3.97858 36.9848 4.20783 35.8666 4.81478Z" stroke="#3B8030" stroke-width="4" stroke-linecap="round" stroke-linejoin="round"/>
<path d="M14.667 24.0149C14.667 18.4149 19.067 14.0149 24.667 14.0149" stroke="#3B8030" stroke-width="4" stroke-linecap="round" stroke-linejoin="round"/>
</svg>
