<svg width="49" height="49" viewBox="0 0 49 49" fill="none" xmlns="http://www.w3.org/2000/svg">
<path d="M35.8666 5.28255C34.8666 5.68255 33.2666 6.48255 32.2666 6.48255H24.6666C19.8927 6.48255 15.3144 8.37897 11.9387 11.7546C8.56306 15.1303 6.66663 19.7087 6.66663 24.4826V32.0826C6.66663 33.2826 5.86663 34.6826 5.46663 35.6826C4.85969 36.8007 4.63044 38.0851 4.81306 39.3441C4.99569 40.6032 5.58041 41.7695 6.48003 42.6692C7.37965 43.5688 8.54596 44.1535 9.80504 44.3361C11.0641 44.5187 12.3485 44.2895 13.4666 43.6826C14.4666 43.2826 16.0666 42.4826 17.0666 42.4826H24.6666C29.4405 42.4826 34.0189 40.5861 37.3946 37.2105C40.7702 33.8348 42.6666 29.2564 42.6666 24.4826V16.8826C42.6666 15.6826 43.4666 14.2826 43.8666 13.2826C44.4736 12.1644 44.7028 10.88 44.5202 9.62095C44.3376 8.36188 43.7529 7.19557 42.8532 6.29595C41.9536 5.39633 40.7873 4.81161 39.5282 4.62898C38.2692 4.44635 36.9848 4.67561 35.8666 5.28255Z" stroke="#62C64E" stroke-width="4" stroke-linecap="round" stroke-linejoin="round"/>
<path d="M14.667 24.4827C14.667 18.8827 19.067 14.4827 24.667 14.4827" stroke="#62C64E" stroke-width="4" stroke-linecap="round" stroke-linejoin="round"/>
</svg>
