<svg width="48" height="49" viewBox="0 0 48 49" fill="none" xmlns="http://www.w3.org/2000/svg">
<g clip-path="url(#clip0_560_1522)">
<path d="M12.0463 0.0151367H35.6177C36.8681 0.0151367 38.0671 0.510314 38.9512 1.39173C39.8354 2.27316 40.332 3.46862 40.332 4.71514V16.4651H7.33203V4.71514C7.33203 3.46862 7.82871 2.27316 8.71281 1.39173C9.59691 0.510314 10.796 0.0151367 12.0463 0.0151367ZM40.332 39.9651C40.332 41.2117 39.8354 42.4071 38.9512 43.2885C38.0671 44.17 36.8681 44.6651 35.6177 44.6651V47.0151H30.9035V44.6651H16.7606V47.0151H12.0463V44.6651C10.796 44.6651 9.59691 44.17 8.71281 43.2885C7.82871 42.4071 7.33203 41.2117 7.33203 39.9651V18.8151H40.332V39.9651ZM14.4035 7.06514V11.7651H19.1177V7.06514H14.4035ZM14.4035 23.5151V30.5651H19.1177V23.5151H14.4035Z" fill="#A87E30"/>
<path d="M2.05039 5.35199C1.58424 4.86935 1.3263 4.22292 1.33213 3.55195C1.33796 2.88097 1.60709 2.23913 2.08156 1.76466C2.55603 1.2902 3.19787 1.02106 3.86884 1.01523C4.53982 1.0094 5.18624 1.26734 5.66888 1.73349L46.6137 42.6783C47.0798 43.1609 47.3378 43.8073 47.3319 44.4783C47.3261 45.1493 47.057 45.7911 46.5825 46.2656C46.108 46.7401 45.4662 47.0092 44.7952 47.015C44.1242 47.0209 43.4778 46.7629 42.9952 46.2968L2.05039 5.35199Z" fill="#A87E30"/>
</g>
<defs>
<clipPath id="clip0_560_1522">
<rect width="48" height="48" fill="white" transform="translate(0 0.0151367)"/>
</clipPath>
</defs>
</svg>
