<svg width="47" height="47" viewBox="0 0 47 47" fill="none" xmlns="http://www.w3.org/2000/svg">
<path fill-rule="evenodd" clip-rule="evenodd" d="M23.3344 33.0826C25.8805 33.0826 28.3223 32.0711 30.1226 30.2708C31.923 28.4704 32.9344 26.0286 32.9344 23.4826C32.9344 20.9365 31.923 18.4947 30.1226 16.6943C28.3223 14.894 25.8805 13.8826 23.3344 13.8826C20.7883 13.8826 18.3465 14.894 16.5461 16.6943C14.7458 18.4947 13.7344 20.9365 13.7344 23.4826C13.7344 26.0286 14.7458 28.4704 16.5461 30.2708C18.3465 32.0711 20.7883 33.0826 23.3344 33.0826ZM23.3344 18.6826C24.6074 18.6826 25.8283 19.1883 26.7285 20.0885C27.6287 20.9886 28.1344 22.2095 28.1344 23.4826C28.1344 24.7556 27.6287 25.9765 26.7285 26.8767C25.8283 27.7769 24.6074 28.2826 23.3344 28.2826C22.0613 28.2826 20.8404 27.7769 19.9403 26.8767C19.0401 25.9765 18.5344 24.7556 18.5344 23.4826C18.5344 22.2095 19.0401 20.9886 19.9403 20.0885C20.8404 19.1883 22.0613 18.6826 23.3344 18.6826Z" fill="#E2B259"/>
<path d="M0.53418 23.4826C0.53418 22.8461 0.787036 22.2356 1.23712 21.7856C1.68721 21.3355 2.29766 21.0826 2.93418 21.0826H7.73418C8.3707 21.0826 8.98115 21.3355 9.43124 21.7856C9.88132 22.2356 10.1342 22.8461 10.1342 23.4826C10.1342 24.1191 9.88132 24.7296 9.43124 25.1797C8.98115 25.6298 8.3707 25.8826 7.73418 25.8826H2.93418C2.29766 25.8826 1.68721 25.6298 1.23712 25.1797C0.787036 24.7296 0.53418 24.1191 0.53418 23.4826ZM36.5342 23.4826C36.5342 22.8461 36.787 22.2356 37.2371 21.7856C37.6872 21.3355 38.2977 21.0826 38.9342 21.0826H43.7342C44.3707 21.0826 44.9811 21.3355 45.4312 21.7856C45.8813 22.2356 46.1342 22.8461 46.1342 23.4826C46.1342 24.1191 45.8813 24.7296 45.4312 25.1797C44.9811 25.6298 44.3707 25.8826 43.7342 25.8826H38.9342C38.2977 25.8826 37.6872 25.6298 37.2371 25.1797C36.787 24.7296 36.5342 24.1191 36.5342 23.4826ZM32.9342 33.0826C33.3842 32.6327 33.9946 32.3799 34.631 32.3799C35.2674 32.3799 35.8777 32.6327 36.3278 33.0826L39.7214 36.4762C39.9506 36.6976 40.1334 36.9624 40.2592 37.2552C40.385 37.5481 40.4512 37.863 40.454 38.1817C40.4567 38.5003 40.396 38.8164 40.2754 39.1113C40.1547 39.4063 39.9765 39.6742 39.7511 39.8996C39.5258 40.1249 39.2578 40.3031 38.9629 40.4238C38.6679 40.5445 38.3519 40.6052 38.0332 40.6024C37.7145 40.5996 37.3996 40.5334 37.1068 40.4077C36.814 40.2819 36.5492 40.099 36.3278 39.8698L32.9342 36.4762C32.4842 36.0261 32.2315 35.4158 32.2315 34.7794C32.2315 34.143 32.4842 33.5327 32.9342 33.0826ZM6.53418 6.68262C6.98425 6.23269 7.59459 5.97993 8.23098 5.97993C8.86737 5.97993 9.47771 6.23269 9.92778 6.68262L13.3214 10.0762C13.5506 10.2976 13.7334 10.5624 13.8592 10.8552C13.985 11.1481 14.0512 11.463 14.054 11.7817C14.0567 12.1003 13.996 12.4164 13.8754 12.7113C13.7547 13.0063 13.5765 13.2742 13.3511 13.4996C13.1258 13.7249 12.8578 13.9031 12.5629 14.0238C12.2679 14.1445 11.9519 14.2052 11.6332 14.2024C11.3145 14.1996 10.9996 14.1334 10.7068 14.0077C10.414 13.8819 10.1492 13.699 9.92778 13.4698L6.53418 10.0762C6.08425 9.62615 5.83149 9.01581 5.83149 8.37942C5.83149 7.74302 6.08425 7.13268 6.53418 6.68262ZM23.3342 36.6826C23.9707 36.6826 24.5811 36.9355 25.0312 37.3856C25.4813 37.8356 25.7342 38.4461 25.7342 39.0826V43.8826C25.7342 44.5191 25.4813 45.1296 25.0312 45.5797C24.5811 46.0298 23.9707 46.2826 23.3342 46.2826C22.6977 46.2826 22.0872 46.0298 21.6371 45.5797C21.187 45.1296 20.9342 44.5191 20.9342 43.8826V39.0826C20.9342 38.4461 21.187 37.8356 21.6371 37.3856C22.0872 36.9355 22.6977 36.6826 23.3342 36.6826ZM23.3342 0.682617C23.9707 0.682617 24.5811 0.935474 25.0312 1.38556C25.4813 1.83565 25.7342 2.4461 25.7342 3.08262V7.88262C25.7342 8.51914 25.4813 9.12959 25.0312 9.57967C24.5811 10.0298 23.9707 10.2826 23.3342 10.2826C22.6977 10.2826 22.0872 10.0298 21.6371 9.57967C21.187 9.12959 20.9342 8.51914 20.9342 7.88262V3.08262C20.9342 2.4461 21.187 1.83565 21.6371 1.38556C22.0872 0.935474 22.6977 0.682617 23.3342 0.682617ZM39.7214 6.68262C40.1713 7.13268 40.4241 7.74302 40.4241 8.37942C40.4241 9.01581 40.1713 9.62615 39.7214 10.0762L36.3278 13.4698C36.1064 13.699 35.8416 13.8819 35.5487 14.0077C35.2559 14.1334 34.941 14.1996 34.6223 14.2024C34.3037 14.2052 33.9876 14.1445 33.6927 14.0238C33.3977 13.9031 33.1298 13.7249 32.9044 13.4996C32.6791 13.2742 32.5009 13.0063 32.3802 12.7113C32.2595 12.4164 32.1988 12.1003 32.2016 11.7817C32.2043 11.463 32.2706 11.1481 32.3963 10.8552C32.5221 10.5624 32.705 10.2976 32.9342 10.0762L36.3278 6.68262C36.7778 6.23269 37.3882 5.97993 38.0246 5.97993C38.661 5.97993 39.2713 6.23269 39.7214 6.68262ZM13.3214 36.4762L9.92778 39.8698C9.70639 40.099 9.44156 40.2819 9.14875 40.4077C8.85594 40.5334 8.54101 40.5996 8.22234 40.6024C7.90367 40.6052 7.58764 40.5445 7.29269 40.4238C6.99774 40.3031 6.72977 40.1249 6.50443 39.8996C6.27909 39.6742 6.10088 39.4063 5.98021 39.1113C5.85953 38.8164 5.79881 38.5003 5.80158 38.1817C5.80435 37.863 5.87055 37.5481 5.99634 37.2552C6.12212 36.9624 6.30496 36.6976 6.53418 36.4762L9.92778 33.0826C10.3804 32.6454 10.9867 32.4035 11.6159 32.409C12.2452 32.4145 12.8472 32.6669 13.2921 33.1119C13.7371 33.5568 13.9895 34.1588 13.995 34.7881C14.0005 35.4173 13.7586 36.0236 13.3214 36.4762Z" fill="#E2B259"/>
<path d="M1.38535 4.81952C0.919196 4.33688 0.661258 3.69045 0.667089 3.01948C0.67292 2.3485 0.942052 1.70666 1.41652 1.23219C1.89099 0.757726 2.53283 0.488593 3.2038 0.482763C3.87478 0.476932 4.5212 0.73487 5.00384 1.20102L45.9486 42.1458C46.4148 42.6285 46.6727 43.2749 46.6669 43.9459C46.6611 44.6168 46.3919 45.2587 45.9175 45.7331C45.443 46.2076 44.8012 46.4767 44.1302 46.4826C43.4592 46.4884 42.8128 46.2305 42.3301 45.7643L1.38535 4.81952Z" fill="#E2B259"/>
</svg>
