<svg width="40" height="41" viewBox="0 0 40 41" fill="none" xmlns="http://www.w3.org/2000/svg">
<path d="M23.3333 20.344C26.6667 18.664 30.7967 20.0707 32.63 24.1257C35.38 30.209 29.6033 36.954 23.3467 37.144C23.1633 37.1502 22.9806 37.1184 22.81 37.0507C18.2317 35.1457 29.12 28.384 25.5533 24.729M20.4333 22.149C21.255 19.0457 19.95 15.914 16.6583 16.689C14.665 17.159 14.1933 18.6224 12.9883 18.744C12.0517 18.839 11.4733 17.769 11.725 16.8757C13.5167 10.519 25.8333 10.5324 25.8333 17.1607" stroke="#2E2E2E" stroke-width="2" stroke-linecap="round" stroke-linejoin="round"/>
<path d="M23.3333 31.9957C19.68 33.8157 11.88 34.839 8.36666 32.2823C7.40333 31.5823 6.16666 31.794 5.04166 31.794C2.31499 31.794 3.08499 26.4807 5.73166 27.504C6.66666 27.8673 8.36833 28.3373 9.63833 27.6173C17.8067 22.9873 26.66 22.189 29.5783 10.0057C30.8767 4.58234 31.2517 3.81567 33.4217 3.81567C35.5917 3.81567 38.1983 8.81734 35.5433 17.079C34.8433 19.2623 34.0133 21.4457 32.8267 23.4807" stroke="#2E2E2E" stroke-width="2" stroke-linecap="round" stroke-linejoin="round"/>
</svg>
