<svg width="98" height="99" viewBox="0 0 98 99" fill="none" xmlns="http://www.w3.org/2000/svg">
<path d="M71.8862 24.1648C76.5602 25.0039 80.3937 27.5196 83.3903 31.7117C86.0269 35.4258 87.8249 40.0977 88.7823 45.7273C89.6228 50.8789 89.5598 56.0288 88.6024 61.1804C87.1644 69.685 84.2883 76.8132 79.9743 82.5632C74.8198 89.5117 68.3497 92.9851 60.5603 92.9851C58.6418 92.9851 56.5469 92.3867 54.2684 91.1882C52.7098 90.2305 50.973 89.7507 49.0545 89.7507C47.1359 89.7507 45.4009 90.2305 43.8406 91.1882C41.5621 92.3867 39.4671 92.9851 37.5486 92.9851C29.7592 92.9851 23.2891 89.5117 18.1346 82.5632C13.8206 76.8132 10.9446 69.685 9.50656 61.1804C8.54909 56.0288 8.48609 50.8789 9.32658 45.7273C10.2841 40.0977 12.082 35.4258 14.7187 31.7117C17.7153 27.5196 21.5487 25.0039 26.2227 24.1648C29.0987 23.685 33.0528 24.1055 38.0867 25.4226C42.4007 26.6211 46.0561 28.0586 49.0527 29.7351C52.0493 28.0586 55.7046 26.6211 60.0186 25.4226C65.0543 24.1055 69.0102 23.685 71.8862 24.1648ZM61.9983 16.7976C60.3209 18.3555 58.1018 19.4929 55.3464 20.2117C53.4279 20.81 51.333 21.1101 49.0545 21.1101L46.3584 20.9304C46.119 19.2539 46.119 17.3367 46.3584 15.1804C46.839 10.8679 48.2158 7.57425 50.4925 5.29761C52.1698 3.73972 54.3889 2.60229 57.1444 1.88354C59.0629 1.28519 61.1578 0.985107 63.4363 0.985107L66.1324 1.16479L66.3123 3.86011C66.3123 6.13675 66.0118 8.2319 65.4143 10.1492C64.6962 12.9038 63.5587 15.1211 61.9983 16.7976Z" fill="#DD2E44"/>
<circle cx="36.2379" cy="51.2879" r="4.69492" fill="white"/>
<circle cx="61.7247" cy="51.2879" r="4.69492" fill="white"/>
<path d="M36.9087 65.3726C37.4117 68.5025 40.5305 74.7624 48.9814 74.7624C59.5449 74.7624 61.054 67.2505 61.054 65.3726" stroke="white" stroke-width="4" stroke-linecap="round" stroke-linejoin="bevel"/>
</svg>
