<svg width="40" height="41" viewBox="0 0 40 41" fill="none" xmlns="http://www.w3.org/2000/svg">
<path d="M29.6667 23.8824C30.0154 22.5188 30.7974 21.3052 31.895 20.4241C33.8861 18.783 34.9211 16.6152 35 13.9208C34.9211 11.5374 34.1006 9.5452 32.5383 7.94409C30.9383 6.38076 28.9467 5.5602 26.5633 5.48242C23.8678 5.5602 21.6994 6.5952 20.0583 8.58742C19.1217 9.72075 17.9694 10.463 16.6017 10.8141C15.0394 11.1263 13.555 11.6152 12.1483 12.2808C10.7417 12.9441 9.55056 13.7441 8.575 14.6808C6.19167 17.183 5 20.0546 5 23.2958C5 26.5391 6.19167 29.4102 8.575 31.9091C11.075 34.2913 13.9461 35.4824 17.1883 35.4824C20.4294 35.4824 23.3 34.2908 25.8 31.9074C26.7378 30.9319 27.5583 29.7408 28.2617 28.3341C28.925 26.9274 29.3939 25.4624 29.6683 23.9391V23.8808L29.6667 23.8824Z" stroke="#2E2E2E" stroke-width="2" stroke-linecap="round" stroke-linejoin="round"/>
<path d="M18.1164 17.2091C16.5464 17.3958 15.1264 18.1058 13.8564 19.3391C12.6231 20.6091 11.9131 22.0291 11.7264 23.5991C11.502 25.1324 11.9131 26.4402 12.9598 27.5224C14.0431 28.5691 15.3509 28.9802 16.8831 28.7558C18.4531 28.5691 19.8731 27.8591 21.1431 26.6258C22.3764 25.3558 23.0864 23.9358 23.2731 22.3658C23.4976 20.8324 23.0864 19.5247 22.0398 18.4424C20.9564 17.3958 19.6487 16.9847 18.1164 17.2091Z" stroke="#2E2E2E" stroke-width="2" stroke-linecap="round" stroke-linejoin="round"/>
</svg>
