<svg width="57" height="57" viewBox="0 0 57 57" fill="none" xmlns="http://www.w3.org/2000/svg">
<path d="M44.5112 19.5786L44.7562 19.8236C46.0685 21.1363 46.8057 22.9164 46.8057 24.7726C46.8057 26.6287 46.0685 28.4089 44.7562 29.7216L29.9057 44.5686C29.2557 45.2189 28.4839 45.7348 27.6344 46.0867C26.7849 46.4387 25.8745 46.6198 24.955 46.6198C24.0355 46.6198 23.125 46.4387 22.2755 46.0867C21.4261 45.7348 20.6543 45.2189 20.0042 44.5686L19.7592 44.3236L18.6987 50.3226C18.5878 50.9534 18.306 51.5416 17.8839 52.0233C17.4619 52.505 16.9157 52.8616 16.305 53.0544C15.6942 53.2472 15.0423 53.2686 14.4201 53.1165C13.798 52.9644 13.2296 52.6445 12.7767 52.1916L4.95771 44.3726C4.50485 43.9197 4.18494 43.3513 4.0328 42.7292C3.88066 42.107 3.90214 41.4551 4.0949 40.8443C4.28765 40.2336 4.6443 39.6874 5.12598 39.2654C5.60767 38.8433 6.19594 38.5615 6.82671 38.4506L12.8292 37.3936L12.5807 37.1451C11.9304 36.495 11.4145 35.7232 11.0626 34.8738C10.7106 34.0243 10.5295 33.1138 10.5295 32.1943C10.5295 31.2748 10.7106 30.3644 11.0626 29.5149C11.4145 28.6654 11.9304 27.8936 12.5807 27.2436L27.4277 12.3966C28.0778 11.7463 28.8496 11.2304 29.699 10.8784C30.5485 10.5265 31.459 10.3453 32.3785 10.3453C33.298 10.3453 34.2084 10.5265 35.0579 10.8784C35.9074 11.2304 36.6792 11.7463 37.3292 12.3966L37.5742 12.6416L38.6347 6.65309C38.7462 6.02218 39.0287 5.43397 39.4514 4.95256C39.8741 4.47114 40.4209 4.115 41.0321 3.92294C41.6433 3.73087 42.2955 3.71026 42.9176 3.86334C43.5398 4.01643 44.1079 4.33733 44.5602 4.79109L52.3582 12.6136C52.8092 13.0669 53.1273 13.6351 53.2781 14.2565C53.4289 14.8779 53.4066 15.5287 53.2136 16.1383C53.0207 16.7479 52.6644 17.293 52.1835 17.7144C51.7025 18.1358 51.1154 18.4174 50.4857 18.5286L44.5112 19.5786ZM14.4987 30.4461H38.9532V30.5686L42.2782 27.2436C42.9246 26.5992 43.2927 25.7272 43.3037 24.8146H19.9587L15.0552 29.7216C14.8376 29.9375 14.6493 30.1811 14.4952 30.4461H14.4987ZM14.4987 33.9461C14.6492 34.2051 14.8347 34.4466 15.0552 34.6706L22.4787 42.0941C23.1351 42.7502 24.0251 43.1188 24.9532 43.1188C25.8813 43.1188 26.7714 42.7502 27.4277 42.0941L35.5792 33.9461H14.4987ZM41.2982 21.3146L34.8547 14.8711C34.1984 14.2149 33.3083 13.8463 32.3802 13.8463C31.4521 13.8463 30.5621 14.2149 29.9057 14.8711L23.4587 21.3146H41.2982ZM7.43221 41.8981L15.2512 49.7171L16.5812 42.1921C16.6202 41.9703 16.605 41.7425 16.5371 41.5278C16.4692 41.3131 16.3506 41.118 16.1912 40.959C16.0318 40.7999 15.8364 40.6817 15.6216 40.6142C15.4068 40.5468 15.1789 40.5322 14.9572 40.5716L7.43221 41.8981ZM42.0822 7.26209L40.7522 14.7801C40.7134 15.0015 40.7286 15.229 40.7963 15.4433C40.864 15.6577 40.9823 15.8526 41.1413 16.0115C41.3002 16.1705 41.4951 16.2888 41.7095 16.3565C41.9238 16.4243 42.1513 16.4394 42.3727 16.4006L49.8802 15.0846L42.0787 7.26209H42.0822Z" fill="#923107"/>
</svg>
