<svg width="51" height="51" viewBox="0 0 51 51" fill="none" xmlns="http://www.w3.org/2000/svg">
<mask id="path-1-inside-1_560_2083" fill="white">
<path d="M30.1428 15.2151C32.5403 14.588 34.4238 14.3881 35.7932 14.6165V14.6165C37.1061 14.8522 37.1743 16.4579 36.1821 17.3496C30.6359 22.3338 39.5446 23.5592 37.8332 26.9827C36.5507 29.5481 37.3263 31.2413 39.1757 32.2408C41.2936 33.3855 43.1524 35.444 42.2673 37.6827C41.5741 39.4361 40.7002 41.0163 39.6447 42.4231C37.1904 45.7317 34.1096 47.386 30.4006 47.386C29.4871 47.386 28.4894 47.1012 27.4045 46.5305C26.6624 46.0745 25.8356 45.846 24.9221 45.8459C24.0086 45.8459 23.1826 46.0745 22.4396 46.5305C21.3548 47.1012 20.357 47.386 19.4436 47.386C15.7346 47.386 12.6538 45.7317 10.1994 42.4231C8.14532 39.6852 6.77572 36.2909 6.09101 32.2415C5.63519 29.7887 5.60495 27.3368 6.00508 24.884C6.46097 22.2036 7.31708 19.9787 8.57246 18.2102C9.99931 16.2141 11.8254 15.016 14.051 14.6165C15.4203 14.3881 17.3029 14.5881 19.6994 15.2151C20.8696 15.5402 21.9381 15.9023 22.9048 16.3014C24.19 16.8319 25.6521 16.8319 26.9374 16.3014C27.9041 15.9023 28.9726 15.5402 30.1428 15.2151ZM31.7697 3.57935C32.5045 3.62852 33.0906 4.21369 33.1398 4.94849V4.94849C33.1398 6.03234 32.9965 7.02984 32.7121 7.94263C32.3702 9.25426 31.8281 10.3104 31.0852 11.1086C30.2865 11.8504 29.2301 12.3924 27.9182 12.7346C27.0046 13.0195 26.007 13.1623 24.9221 13.1624V13.1624C24.1734 13.1123 23.5524 12.5436 23.5524 11.7933C23.5524 11.3367 23.5809 10.8516 23.6379 10.3381C23.8667 8.28501 24.5228 6.71702 25.6066 5.63306C26.4052 4.89133 27.4618 4.34933 28.7736 4.00708C29.6871 3.7222 30.6849 3.57938 31.7697 3.57935V3.57935Z"/>
</mask>
<path d="M30.1428 15.2151L29.1306 11.3453C29.1111 11.3504 29.0915 11.3556 29.072 11.3611L30.1428 15.2151ZM37.8332 26.9827L34.2554 25.1941L34.2554 25.1941L37.8332 26.9827ZM39.6447 42.4231L36.4451 40.0226C36.4408 40.0284 36.4364 40.0342 36.4321 40.04L39.6447 42.4231ZM30.4006 47.386L30.4005 51.386H30.4006V47.386ZM27.4045 46.5305L25.3104 49.9385C25.3862 49.9851 25.4636 50.0292 25.5423 50.0706L27.4045 46.5305ZM24.9221 45.8459L24.9221 41.8459H24.9221V45.8459ZM22.4396 46.5305L24.3018 50.0706C24.3799 50.0295 24.4567 49.9858 24.532 49.9397L22.4396 46.5305ZM19.4436 47.386L19.4436 51.386L19.4437 51.386L19.4436 47.386ZM10.1994 42.4231L13.412 40.04C13.4077 40.0342 13.4034 40.0284 13.399 40.0226L10.1994 42.4231ZM6.09101 32.2415L10.035 31.5746C10.0314 31.5532 10.0276 31.5319 10.0237 31.5106L6.09101 32.2415ZM6.00508 24.884L2.0617 24.2134C2.06019 24.2222 2.05871 24.2311 2.05726 24.24L6.00508 24.884ZM8.57246 18.2102L5.31833 15.8841L5.31071 15.8948L8.57246 18.2102ZM14.051 14.6165L13.3931 10.6709C13.3768 10.6736 13.3605 10.6765 13.3441 10.6794L14.051 14.6165ZM19.6994 15.2151L20.7701 11.3611C20.7508 11.3557 20.7313 11.3504 20.7119 11.3453L19.6994 15.2151ZM32.7121 7.94263L28.8932 6.75262C28.8746 6.81253 28.8573 6.87287 28.8415 6.93358L32.7121 7.94263ZM31.0852 11.1086L33.8072 14.0396C33.8783 13.9736 33.947 13.9049 34.0131 13.8339L31.0852 11.1086ZM27.9182 12.7346L26.9085 8.86414C26.8477 8.88001 26.7872 8.89731 26.7272 8.91603L27.9182 12.7346ZM23.6379 10.3381L19.6625 9.89505L19.6623 9.8968L23.6379 10.3381ZM25.6066 5.63306L22.8845 2.70217C22.8484 2.7357 22.8129 2.76989 22.7781 2.80473L25.6066 5.63306ZM28.7736 4.00708L29.7834 7.87753C29.8442 7.86167 29.9046 7.84438 29.9646 7.82567L28.7736 4.00708ZM23.5524 11.7933L19.5524 11.7934L23.5524 11.7933ZM42.2673 37.6827L45.9871 39.1535L42.2673 37.6827ZM30.1428 15.2151L31.1549 19.0849C33.3701 18.5055 34.6001 18.4728 35.1353 18.562L35.7932 14.6165L36.4511 10.6709C34.2474 10.3035 31.7104 10.6705 29.1306 11.3453L30.1428 15.2151ZM36.1821 17.3496L33.5085 14.3744C31.7747 15.9325 30.2574 17.9937 30.3431 20.6072C30.4245 23.0893 31.9524 24.7693 32.702 25.5401C33.0958 25.945 33.5982 26.4076 33.8336 26.6331C34.1513 26.9374 34.2745 27.0774 34.3224 27.1409C34.3655 27.1982 34.1782 26.9765 34.0936 26.5217C33.9923 25.977 34.1078 25.4893 34.2554 25.1941L37.8332 26.9827L41.411 28.7713C41.9865 27.6201 42.198 26.3453 41.9587 25.0589C41.7361 23.8622 41.1769 22.9443 40.7122 22.3274C40.2522 21.7167 39.7316 21.2046 39.3674 20.8558C38.9209 20.4281 38.7034 20.2364 38.4372 19.9627C37.8669 19.3762 38.3144 19.6013 38.3388 20.3449C38.3675 21.2198 37.8164 21.2588 38.8558 20.3248L36.1821 17.3496ZM37.8332 26.9827L34.2554 25.1941C33.3279 27.0493 32.8443 29.2008 33.5037 31.3648C34.1673 33.5429 35.7438 34.9328 37.2738 35.7598L39.1757 32.2408L41.0776 28.7219C40.9205 28.637 40.9019 28.5989 40.9468 28.6477C40.9711 28.674 41.0098 28.7214 41.0508 28.7914C41.0924 28.8623 41.1293 28.9444 41.1563 29.0331C41.1833 29.1216 41.195 29.1991 41.1987 29.2574C41.2023 29.3144 41.1975 29.3403 41.1992 29.3283C41.2036 29.2984 41.2371 29.1192 41.411 28.7712L37.8332 26.9827ZM42.2673 37.6827L38.5475 36.212C37.9758 37.658 37.2713 38.9214 36.4451 40.0226L39.6447 42.4231L42.8444 44.8236C44.1291 43.1111 45.1724 41.2141 45.9871 39.1535L42.2673 37.6827ZM39.6447 42.4231L36.4321 40.04C34.6358 42.4616 32.6894 43.386 30.4006 43.386V47.386V51.386C35.5297 51.386 39.745 49.0018 42.8573 44.8062L39.6447 42.4231ZM30.4006 47.386L30.4006 43.386C30.3192 43.386 29.965 43.3577 29.2666 42.9904L27.4045 46.5305L25.5423 50.0706C27.0138 50.8446 28.655 51.386 30.4005 51.386L30.4006 47.386ZM27.4045 46.5305L29.4986 43.1225C28.0973 42.2614 26.5398 41.846 24.9221 41.8459L24.9221 45.8459L24.922 49.8459C25.1313 49.8459 25.2274 49.8876 25.3104 49.9385L27.4045 46.5305ZM24.9221 45.8459V41.8459C23.3031 41.8459 21.7475 42.262 20.3473 43.1214L22.4396 46.5305L24.532 49.9397C24.6177 49.887 24.714 49.8459 24.9221 49.8459V45.8459ZM22.4396 46.5305L20.5775 42.9904C19.8793 43.3577 19.525 43.386 19.4434 43.386L19.4436 47.386L19.4437 51.386C21.1891 51.3859 22.8303 50.8447 24.3018 50.0706L22.4396 46.5305ZM19.4436 47.386V43.386C17.1548 43.386 15.2084 42.4616 13.412 40.04L10.1994 42.4231L6.98683 44.8062C10.0992 49.0018 14.3144 51.386 19.4436 51.386V47.386ZM10.1994 42.4231L13.399 40.0226C11.7971 37.8874 10.6345 35.1198 10.035 31.5746L6.09101 32.2415L2.147 32.9083C2.91696 37.462 4.49356 41.4831 6.99979 44.8236L10.1994 42.4231ZM6.09101 32.2415L10.0237 31.5106C9.65141 29.5074 9.62783 27.5207 9.95289 25.5281L6.00508 24.884L2.05726 24.24C1.58207 27.1529 1.61898 30.07 2.15835 32.9723L6.09101 32.2415ZM6.00508 24.884L9.94845 25.5547C10.3284 23.3208 11.0033 21.6961 11.8342 20.5256L8.57246 18.2102L5.31071 15.8948C3.63088 18.2613 2.59354 21.0863 2.0617 24.2134L6.00508 24.884ZM8.57246 18.2102L11.8266 20.5363C12.7038 19.3091 13.6514 18.7521 14.7578 18.5535L14.051 14.6165L13.3441 10.6794C9.99944 11.2799 7.29484 13.1191 5.31835 15.8841L8.57246 18.2102ZM14.051 14.6165L14.7088 18.562C15.2438 18.4728 16.4728 18.5055 18.6869 19.0848L19.6994 15.2151L20.7119 11.3453C18.1329 10.6706 15.5968 10.3035 13.3931 10.6709L14.051 14.6165ZM19.6994 15.2151L18.6287 19.0691C19.668 19.3578 20.5817 19.6698 21.3785 19.9987L22.9048 16.3014L24.431 12.604C23.2945 12.1348 22.0712 11.7225 20.7701 11.3611L19.6994 15.2151ZM26.9374 16.3014L28.4637 19.9987C29.2605 19.6698 30.1742 19.3579 31.2135 19.0691L30.1428 15.2151L29.072 11.3611C27.7709 11.7225 26.5477 12.1348 25.4111 12.604L26.9374 16.3014ZM33.1398 4.94849L29.1398 4.94843C29.1398 5.6785 29.0437 6.26984 28.8932 6.75262L32.7121 7.94263L36.531 9.13263C36.9494 7.78984 37.1398 6.38618 37.1398 4.94855L33.1398 4.94849ZM32.7121 7.94263L28.8415 6.93358C28.6262 7.75952 28.3504 8.17575 28.1572 8.38341L31.0852 11.1086L34.0131 13.8339C35.3058 12.445 36.1142 10.749 36.5827 8.95167L32.7121 7.94263ZM31.0852 11.1086L28.3631 8.17767C28.1538 8.37207 27.7354 8.64843 26.9085 8.86414L27.9182 12.7346L28.9278 16.6051C30.7247 16.1364 32.4192 15.3287 33.8072 14.0396L31.0852 11.1086ZM27.9182 12.7346L26.7272 8.91603C26.2455 9.06627 25.6546 9.16235 24.9221 9.16235L24.9221 13.1624L24.9221 17.1624C26.3594 17.1623 27.7638 16.9728 29.1091 16.5532L27.9182 12.7346ZM23.5524 11.7933L27.5524 11.7931C27.5524 11.5017 27.5707 11.165 27.6135 10.7795L23.6379 10.3381L19.6623 9.8968C19.5911 10.5382 19.5524 11.1717 19.5524 11.7934L23.5524 11.7933ZM23.6379 10.3381L27.6133 10.7812C27.7764 9.31734 28.1851 8.71148 28.4352 8.46138L25.6066 5.63306L22.7781 2.80473C20.8604 4.72257 19.957 7.25267 19.6625 9.89505L23.6379 10.3381ZM25.6066 5.63306L28.3288 8.56394C28.5379 8.36973 28.9563 8.09332 29.7834 7.87753L28.7736 4.00708L27.7639 0.136632C25.9673 0.605334 24.2726 1.41293 22.8845 2.70217L25.6066 5.63306ZM28.7736 4.00708L29.9646 7.82567C30.4462 7.67547 31.0373 7.57937 31.7698 7.57935L31.7697 3.57935L31.7696 -0.420654C30.3326 -0.420614 28.928 -0.231082 27.5827 0.188489L28.7736 4.00708ZM33.1398 4.94849L37.1309 4.6812C36.9476 1.94452 34.7669 -0.229027 32.0368 -0.411728L31.7697 3.57935L31.5026 7.57042C30.2421 7.48606 29.2336 6.48285 29.1488 5.21577L33.1398 4.94849ZM24.9221 13.1624L25.1892 9.17128C26.1914 9.23835 27.5524 10.1045 27.5524 11.7931L23.5524 11.7933L19.5524 11.7934C19.5525 14.9826 22.1555 16.9862 24.655 17.1534L24.9221 13.1624ZM39.1757 32.2408L37.2738 35.7598C37.5839 35.9273 37.8627 36.1174 38.0884 36.3089C38.3179 36.5037 38.4479 36.662 38.5092 36.7549C38.5687 36.845 38.5271 36.8165 38.5043 36.6719C38.4771 36.4995 38.503 36.3244 38.5475 36.212L42.2673 37.6827L45.9871 39.1535C47.0205 36.5396 46.3395 34.0957 45.186 32.3481C44.0985 30.7003 42.5204 29.5017 41.0776 28.7219L39.1757 32.2408ZM22.9048 16.3014L21.3785 19.9987C23.6413 20.9328 26.2009 20.9328 28.4637 19.9987L26.9374 16.3014L25.4111 12.604C25.1034 12.7311 24.7388 12.731 24.431 12.604L22.9048 16.3014ZM35.7932 14.6165L35.0863 18.5535C34.6078 18.4676 34.0269 18.2033 33.5567 17.6739C33.106 17.1665 32.921 16.6014 32.8741 16.1562C32.787 15.3296 33.1234 14.7205 33.5085 14.3744L36.1821 17.3496L38.8558 20.3248C40.2331 19.087 41.0315 17.2292 40.8301 15.3179C40.6026 13.1594 39.0554 11.1382 36.5 10.6794L35.7932 14.6165Z" fill="#62C64E" mask="url(#path-1-inside-1_560_2083)"/>
<circle cx="45.333" cy="16.4827" r="3" fill="#62C64E"/>
<circle cx="45.333" cy="27.4827" r="3" fill="#62C64E"/>
</svg>
