<svg width="41" height="41" viewBox="0 0 41 41" fill="none" xmlns="http://www.w3.org/2000/svg">
<g clip-path="url(#clip0_560_1656)">
<path d="M18.3341 22.8227V14.4827H22.3341V22.8227C23.6685 23.2945 24.7932 24.2228 25.5094 25.4436C26.2255 26.6644 26.487 28.0991 26.2477 29.4941C26.0083 30.8891 25.2836 32.1546 24.2014 33.0669C23.1193 33.9792 21.7495 34.4795 20.3341 34.4795C18.9187 34.4795 17.5489 33.9792 16.4668 33.0669C15.3846 32.1546 14.6598 30.8891 14.4205 29.4941C14.1812 28.0991 14.4427 26.6644 15.1588 25.4436C15.875 24.2228 16.9997 23.2945 18.3341 22.8227ZM16.3341 21.5627C14.809 22.4432 13.617 23.8024 12.9431 25.4294C12.2691 27.0564 12.1509 28.8604 12.6067 30.5614C13.0625 32.2625 14.0669 33.7656 15.464 34.8377C16.8612 35.9098 18.573 36.4909 20.3341 36.4909C22.0952 36.4909 23.807 35.9098 25.2042 34.8377C26.6013 33.7656 27.6057 32.2625 28.0615 30.5614C28.5173 28.8604 28.3991 27.0564 27.7251 25.4294C27.0512 23.8024 25.8592 22.4432 24.3341 21.5627V8.48267C24.3341 7.4218 23.9127 6.40438 23.1625 5.65424C22.4124 4.90409 21.395 4.48267 20.3341 4.48267C19.2732 4.48267 18.2558 4.90409 17.5057 5.65424C16.7555 6.40438 16.3341 7.4218 16.3341 8.48267V21.5427V21.5627ZM12.3341 19.5427V8.48267C12.3341 6.36093 13.177 4.3261 14.6772 2.82581C16.1775 1.32552 18.2124 0.482666 20.3341 0.482666C22.4558 0.482666 24.4907 1.32552 25.991 2.82581C27.4912 4.3261 28.3341 6.36093 28.3341 8.48267V19.5427C30.1547 21.1585 31.4399 23.2906 32.0186 25.6551C32.5972 28.0196 32.4418 30.5043 31.573 32.7783C30.7043 35.0522 29.1634 37.0076 27.1556 38.3839C25.1478 39.7603 22.7683 40.4924 20.3341 40.4827C17.9048 40.4817 15.5329 39.7434 13.5322 38.3654C11.5315 36.9874 9.99609 35.0347 9.12909 32.7653C8.26209 30.4959 8.1043 28.0168 8.67657 25.6559C9.24885 23.2949 10.5242 21.1632 12.3341 19.5427Z" fill="#62C64E"/>
</g>
<defs>
<clipPath id="clip0_560_1656">
<rect width="40" height="40" fill="white" transform="translate(0.333984 0.482666)"/>
</clipPath>
</defs>
</svg>
