<svg width="40" height="41" viewBox="0 0 40 41" fill="none" xmlns="http://www.w3.org/2000/svg">
<g clip-path="url(#clip0_472_370)">
<path d="M18.0001 22.8225V14.4825H22.0001V22.8225C23.3345 23.2943 24.4592 24.2227 25.1754 25.4435C25.8915 26.6643 26.153 28.099 25.9137 29.494C25.6744 30.889 24.9496 32.1545 23.8674 33.0668C22.7853 33.979 21.4155 34.4794 20.0001 34.4794C18.5847 34.4794 17.2149 33.979 16.1328 33.0668C15.0507 32.1545 14.3259 30.889 14.0865 29.494C13.8472 28.099 14.1087 26.6643 14.8249 25.4435C15.541 24.2227 16.6657 23.2943 18.0001 22.8225ZM16.0001 21.5625C14.475 22.4431 13.283 23.8023 12.6091 25.4293C11.9351 27.0563 11.8169 28.8602 12.2727 30.5613C12.7285 32.2624 13.7329 33.7655 15.13 34.8376C16.5272 35.9096 18.239 36.4907 20.0001 36.4907C21.7612 36.4907 23.4731 35.9096 24.8702 34.8376C26.2674 33.7655 27.2717 32.2624 27.7275 30.5613C28.1833 28.8602 28.0651 27.0563 27.3912 25.4293C26.7172 23.8023 25.5252 22.4431 24.0001 21.5625V8.48254C24.0001 7.42168 23.5787 6.40426 22.8285 5.65412C22.0784 4.90397 21.061 4.48254 20.0001 4.48254C18.9392 4.48254 17.9218 4.90397 17.1717 5.65412C16.4215 6.40426 16.0001 7.42168 16.0001 8.48254V21.5425V21.5625ZM12.0001 19.5425V8.48254C12.0001 6.36081 12.843 4.32598 14.3433 2.82569C15.8436 1.3254 17.8784 0.482544 20.0001 0.482544C22.1218 0.482544 24.1567 1.3254 25.657 2.82569C27.1573 4.32598 28.0001 6.36081 28.0001 8.48254V19.5425C29.8208 21.1584 31.106 23.2905 31.6846 25.655C32.2632 28.0195 32.1078 30.5042 31.239 32.7781C30.3703 35.0521 28.8294 37.0075 26.8216 38.3838C24.8138 39.7602 22.4344 40.4923 20.0001 40.4825C17.5708 40.4816 15.1989 39.7433 13.1982 38.3653C11.1975 36.9873 9.66211 35.0345 8.79511 32.7652C7.92811 30.4958 7.77031 28.0167 8.34259 25.6557C8.91486 23.2948 10.1902 21.1631 12.0001 19.5425Z" fill="#3B8030"/>
</g>
<defs>
<clipPath id="clip0_472_370">
<rect width="40" height="40" fill="white" transform="translate(0 0.482544)"/>
</clipPath>
</defs>
</svg>
