<svg width="51" height="51" viewBox="0 0 51 51" fill="none" xmlns="http://www.w3.org/2000/svg">
<mask id="path-1-inside-1_560_218" fill="white">
<path d="M30.1428 14.7476C32.5403 14.1205 34.4238 13.9206 35.7932 14.1489V14.1489C37.1061 14.3847 37.1743 15.9904 36.1821 16.8821C30.6359 21.8662 39.5446 23.0917 37.8332 26.5151C36.5507 29.0806 37.3263 30.7737 39.1757 31.7733C41.2936 32.9179 43.1524 34.9764 42.2673 37.2152C41.5741 38.9685 40.7002 40.5487 39.6447 41.9556C37.1904 45.2642 34.1096 46.9185 30.4006 46.9185C29.4871 46.9184 28.4894 46.6337 27.4045 46.063C26.6624 45.607 25.8356 45.3784 24.9221 45.3784C24.0086 45.3784 23.1826 45.607 22.4396 46.063C21.3548 46.6336 20.357 46.9184 19.4436 46.9185C15.7346 46.9185 12.6538 45.2642 10.1994 41.9556C8.14532 39.2177 6.77572 35.8234 6.09101 31.7739C5.63519 29.3212 5.60495 26.8693 6.00508 24.4165C6.46097 21.736 7.31708 19.5112 8.57246 17.7427C9.99931 15.7466 11.8254 14.5485 14.051 14.1489C15.4203 13.9206 17.3029 14.1205 19.6994 14.7476C20.8696 15.0727 21.9381 15.4348 22.9048 15.8338C24.19 16.3644 25.6521 16.3644 26.9374 15.8338C27.9041 15.4348 28.9726 15.0727 30.1428 14.7476ZM31.7697 3.11182C32.5045 3.16099 33.0906 3.74616 33.1398 4.48096V4.48096C33.1398 5.56481 32.9965 6.56231 32.7121 7.4751C32.3702 8.78673 31.8281 9.84284 31.0852 10.6411C30.2865 11.3828 29.2301 11.9249 27.9182 12.2671C27.0046 12.552 26.007 12.6948 24.9221 12.6948V12.6948C24.1734 12.6447 23.5524 12.076 23.5524 11.3257C23.5524 10.8692 23.5809 10.3841 23.6379 9.87061C23.8667 7.81748 24.5228 6.2495 25.6066 5.16553C26.4052 4.4238 27.4618 3.8818 28.7736 3.53955C29.6871 3.25467 30.6849 3.11185 31.7697 3.11182V3.11182Z"/>
</mask>
<path d="M30.1428 14.7476L29.1306 10.8777C29.1111 10.8828 29.0915 10.8881 29.072 10.8935L30.1428 14.7476ZM37.8332 26.5151L34.2554 24.7265L34.2554 24.7266L37.8332 26.5151ZM39.6447 41.9556L36.4451 39.5551C36.4408 39.5608 36.4364 39.5666 36.4321 39.5724L39.6447 41.9556ZM30.4006 46.9185L30.4005 50.9185H30.4006V46.9185ZM27.4045 46.063L25.3104 49.471C25.3862 49.5176 25.4636 49.5617 25.5423 49.6031L27.4045 46.063ZM24.9221 45.3784L24.9221 41.3784H24.9221V45.3784ZM22.4396 46.063L24.3018 49.6031C24.3799 49.562 24.4567 49.5183 24.532 49.4721L22.4396 46.063ZM19.4436 46.9185L19.4436 50.9185L19.4437 50.9185L19.4436 46.9185ZM10.1994 41.9556L13.412 39.5724C13.4077 39.5666 13.4034 39.5608 13.399 39.5551L10.1994 41.9556ZM6.09101 31.7739L10.035 31.107C10.0314 31.0857 10.0276 31.0644 10.0237 31.0431L6.09101 31.7739ZM6.00508 24.4165L2.0617 23.7458C2.06019 23.7547 2.05871 23.7636 2.05726 23.7725L6.00508 24.4165ZM8.57246 17.7427L5.31833 15.4166L5.31071 15.4273L8.57246 17.7427ZM14.051 14.1489L13.3931 10.2034C13.3768 10.2061 13.3605 10.2089 13.3441 10.2119L14.051 14.1489ZM19.6994 14.7476L20.7701 10.8935C20.7508 10.8881 20.7313 10.8829 20.7119 10.8778L19.6994 14.7476ZM32.7121 7.4751L28.8932 6.28509C28.8746 6.345 28.8573 6.40534 28.8415 6.46605L32.7121 7.4751ZM31.0852 10.6411L33.8072 13.5721C33.8783 13.506 33.947 13.4374 34.0131 13.3663L31.0852 10.6411ZM27.9182 12.2671L26.9085 8.39661C26.8477 8.41248 26.7872 8.42978 26.7272 8.4485L27.9182 12.2671ZM23.6379 9.87061L19.6625 9.42752L19.6623 9.42927L23.6379 9.87061ZM25.6066 5.16553L22.8845 2.23464C22.8484 2.26817 22.8129 2.30236 22.7781 2.3372L25.6066 5.16553ZM28.7736 3.53955L29.7834 7.41C29.8442 7.39414 29.9046 7.37685 29.9646 7.35814L28.7736 3.53955ZM23.5524 11.3257L19.5524 11.3259L23.5524 11.3257ZM42.2673 37.2152L45.9871 38.6859L42.2673 37.2152ZM30.1428 14.7476L31.1549 18.6174C33.3701 18.038 34.6001 18.0052 35.1353 18.0945L35.7932 14.1489L36.4511 10.2034C34.2474 9.83596 31.7104 10.203 29.1306 10.8777L30.1428 14.7476ZM36.1821 16.8821L33.5085 13.9069C31.7747 15.465 30.2574 17.5262 30.3431 20.1396C30.4245 22.6218 31.9524 24.3017 32.702 25.0726C33.0958 25.4775 33.5982 25.9401 33.8336 26.1655C34.1513 26.4699 34.2745 26.6098 34.3224 26.6733C34.3655 26.7306 34.1782 26.509 34.0936 26.0541C33.9923 25.5094 34.1078 25.0218 34.2554 24.7265L37.8332 26.5151L41.411 28.3037C41.9865 27.1526 42.198 25.8778 41.9587 24.5913C41.7361 23.3947 41.1769 22.4767 40.7122 21.8598C40.2522 21.2492 39.7316 20.7371 39.3674 20.3883C38.9209 19.9606 38.7034 19.7689 38.4372 19.4952C37.8669 18.9087 38.3144 19.1338 38.3388 19.8774C38.3675 20.7523 37.8164 20.7912 38.8558 19.8572L36.1821 16.8821ZM37.8332 26.5151L34.2554 24.7266C33.3279 26.5818 32.8443 28.7333 33.5037 30.8973C34.1673 33.0754 35.7438 34.4653 37.2738 35.2922L39.1757 31.7733L41.0776 28.2544C40.9205 28.1695 40.9019 28.1314 40.9468 28.1801C40.9711 28.2065 41.0098 28.2539 41.0508 28.3239C41.0924 28.3948 41.1293 28.4769 41.1563 28.5656C41.1833 28.6541 41.195 28.7316 41.1987 28.7899C41.2023 28.8469 41.1975 28.8728 41.1992 28.8608C41.2036 28.8309 41.2371 28.6516 41.411 28.3037L37.8332 26.5151ZM42.2673 37.2152L38.5475 35.7445C37.9758 37.1905 37.2713 38.4539 36.4451 39.5551L39.6447 41.9556L42.8444 44.3561C44.1291 42.6436 45.1724 40.7466 45.9871 38.6859L42.2673 37.2152ZM39.6447 41.9556L36.4321 39.5724C34.6358 41.994 32.6894 42.9185 30.4006 42.9185V46.9185V50.9185C35.5297 50.9185 39.745 48.5343 42.8573 44.3387L39.6447 41.9556ZM30.4006 46.9185L30.4006 42.9185C30.3192 42.9185 29.965 42.8902 29.2666 42.5229L27.4045 46.063L25.5423 49.6031C27.0138 50.3771 28.655 50.9184 30.4005 50.9185L30.4006 46.9185ZM27.4045 46.063L29.4986 42.655C28.0973 41.7939 26.5398 41.3784 24.9221 41.3784L24.9221 45.3784L24.922 49.3784C25.1313 49.3784 25.2274 49.4201 25.3104 49.471L27.4045 46.063ZM24.9221 45.3784V41.3784C23.3031 41.3784 21.7475 41.7945 20.3473 42.6539L22.4396 46.063L24.532 49.4721C24.6177 49.4195 24.714 49.3784 24.9221 49.3784V45.3784ZM22.4396 46.063L20.5775 42.5229C19.8793 42.8902 19.525 42.9185 19.4434 42.9185L19.4436 46.9185L19.4437 50.9185C21.1891 50.9184 22.8303 50.3771 24.3018 49.6031L22.4396 46.063ZM19.4436 46.9185V42.9185C17.1548 42.9185 15.2084 41.994 13.412 39.5724L10.1994 41.9556L6.98683 44.3387C10.0992 48.5343 14.3144 50.9185 19.4436 50.9185V46.9185ZM10.1994 41.9556L13.399 39.5551C11.7971 37.4198 10.6345 34.6523 10.035 31.107L6.09101 31.7739L2.147 32.4408C2.91696 36.9945 4.49356 41.0155 6.99979 44.3561L10.1994 41.9556ZM6.09101 31.7739L10.0237 31.0431C9.65141 29.0399 9.62783 27.0532 9.95289 25.0605L6.00508 24.4165L2.05726 23.7725C1.58207 26.6854 1.61898 29.6024 2.15835 32.5048L6.09101 31.7739ZM6.00508 24.4165L9.94845 25.0872C10.3284 22.8533 11.0033 21.2286 11.8342 20.0581L8.57246 17.7427L5.31071 15.4273C3.63088 17.7937 2.59354 20.6188 2.0617 23.7458L6.00508 24.4165ZM8.57246 17.7427L11.8266 20.0688C12.7038 18.8416 13.6514 18.2846 14.7578 18.086L14.051 14.1489L13.3441 10.2119C9.99944 10.8124 7.29484 12.6515 5.31835 15.4166L8.57246 17.7427ZM14.051 14.1489L14.7088 18.0945C15.2438 18.0053 16.4728 18.038 18.6869 18.6173L19.6994 14.7476L20.7119 10.8778C18.1329 10.2031 15.5968 9.83598 13.3931 10.2034L14.051 14.1489ZM19.6994 14.7476L18.6287 18.6016C19.668 18.8903 20.5817 19.2023 21.3785 19.5312L22.9048 15.8338L24.431 12.1365C23.2945 11.6673 22.0712 11.255 20.7701 10.8935L19.6994 14.7476ZM26.9374 15.8338L28.4637 19.5312C29.2605 19.2023 30.1742 18.8903 31.2135 18.6016L30.1428 14.7476L29.072 10.8935C27.7709 11.255 26.5477 11.6673 25.4111 12.1365L26.9374 15.8338ZM33.1398 4.48096L29.1398 4.4809C29.1398 5.21097 29.0437 5.80231 28.8932 6.28509L32.7121 7.4751L36.531 8.6651C36.9494 7.32231 37.1398 5.91865 37.1398 4.48102L33.1398 4.48096ZM32.7121 7.4751L28.8415 6.46605C28.6262 7.29199 28.3504 7.70822 28.1572 7.91588L31.0852 10.6411L34.0131 13.3663C35.3058 11.9775 36.1142 10.2815 36.5827 8.48414L32.7121 7.4751ZM31.0852 10.6411L28.3631 7.71014C28.1538 7.90454 27.7354 8.1809 26.9085 8.39661L27.9182 12.2671L28.9278 16.1376C30.7247 15.6688 32.4192 14.8611 33.8072 13.5721L31.0852 10.6411ZM27.9182 12.2671L26.7272 8.4485C26.2455 8.59874 25.6546 8.69482 24.9221 8.69482L24.9221 12.6948L24.9221 16.6948C26.3594 16.6948 27.7638 16.5053 29.1091 16.0857L27.9182 12.2671ZM23.5524 11.3257L27.5524 11.3256C27.5524 11.0342 27.5707 10.6975 27.6135 10.3119L23.6379 9.87061L19.6623 9.42927C19.5911 10.0707 19.5524 10.7042 19.5524 11.3259L23.5524 11.3257ZM23.6379 9.87061L27.6133 10.3137C27.7764 8.84982 28.1851 8.24395 28.4352 7.99385L25.6066 5.16553L22.7781 2.3372C20.8604 4.25504 19.957 6.78514 19.6625 9.42752L23.6379 9.87061ZM25.6066 5.16553L28.3288 8.09642C28.5379 7.90221 28.9563 7.62579 29.7834 7.41L28.7736 3.53955L27.7639 -0.330897C25.9673 0.137805 24.2726 0.945403 22.8845 2.23464L25.6066 5.16553ZM28.7736 3.53955L29.9646 7.35814C30.4462 7.20795 31.0373 7.11184 31.7698 7.11182L31.7697 3.11182L31.7696 -0.888184C30.3326 -0.888144 28.928 -0.698611 27.5827 -0.27904L28.7736 3.53955ZM33.1398 4.48096L37.1309 4.21367C36.9476 1.477 34.7669 -0.696557 32.0368 -0.879257L31.7697 3.11182L31.5026 7.10289C30.2421 7.01854 29.2336 6.01532 29.1488 4.74824L33.1398 4.48096ZM24.9221 12.6948L25.1892 8.70375C26.1914 8.77082 27.5524 9.637 27.5524 11.3256L23.5524 11.3257L19.5524 11.3259C19.5525 14.5151 22.1555 16.5186 24.655 16.6859L24.9221 12.6948ZM39.1757 31.7733L37.2738 35.2922C37.5839 35.4598 37.8627 35.6498 38.0884 35.8414C38.3179 36.0361 38.4479 36.1944 38.5092 36.2874C38.5687 36.3774 38.5271 36.349 38.5043 36.2044C38.4771 36.0319 38.503 35.8569 38.5475 35.7445L42.2673 37.2152L45.9871 38.6859C47.0205 36.0721 46.3395 33.6282 45.186 31.8805C44.0985 30.2328 42.5204 29.0341 41.0776 28.2544L39.1757 31.7733ZM22.9048 15.8338L21.3785 19.5312C23.6413 20.4653 26.2009 20.4653 28.4637 19.5312L26.9374 15.8338L25.4111 12.1365C25.1034 12.2635 24.7388 12.2635 24.431 12.1365L22.9048 15.8338ZM35.7932 14.1489L35.0863 18.086C34.6078 18.0001 34.0269 17.7358 33.5567 17.2063C33.106 16.6989 32.921 16.1338 32.8741 15.6887C32.787 14.8621 33.1234 14.253 33.5085 13.9069L36.1821 16.8821L38.8558 19.8572C40.2331 18.6195 41.0315 16.7617 40.8301 14.8504C40.6026 12.6919 39.0554 10.6707 36.5 10.2119L35.7932 14.1489Z" fill="#3B8030" mask="url(#path-1-inside-1_560_218)"/>
<circle cx="45.333" cy="16.0151" r="3" fill="#3B8030"/>
<circle cx="45.333" cy="27.0151" r="3" fill="#3B8030"/>
</svg>
