<svg width="48" height="47" viewBox="0 0 48 47" fill="none" xmlns="http://www.w3.org/2000/svg">
<path d="M34.3869 7.05155C33.9586 7.0085 33.5737 6.74114 33.3968 6.34879C32.608 4.60035 29.9994 0.0151367 24.334 0.0151367C18.6687 0.0151367 16.0601 4.60035 15.2713 6.34879C15.0943 6.74114 14.7095 7.0085 14.2812 7.05155C10.1982 7.46188 6.30001 11.2787 5.7369 15.3517C5.66126 15.8988 5.21332 16.337 4.66941 16.4328C-0.612909 17.3633 -0.280253 25.6818 5.66738 25.6818H43.0007C48.9484 25.6818 49.281 17.3633 43.9987 16.4328C43.4548 16.337 43.0068 15.8988 42.9312 15.3517C42.3681 11.2787 38.4699 7.46188 34.3869 7.05155ZM9.32645 30.3485C8.66207 30.3485 8.1824 30.9844 8.36492 31.6232L12.4602 45.9565C12.5828 46.3858 12.9752 46.6818 13.4217 46.6818H16.181C16.7896 46.6818 17.2571 46.1428 17.171 45.5404L15.1234 31.2071C15.053 30.7144 14.6311 30.3485 14.1334 30.3485H9.32645ZM20.8204 30.3485C20.2118 30.3485 19.7444 30.8875 19.8304 31.4899L21.8781 45.8232C21.9484 46.3159 22.3704 46.6818 22.868 46.6818H25.8001C26.2977 46.6818 26.7197 46.3159 26.79 45.8232L28.8377 31.4899C28.9237 30.8875 28.4563 30.3485 27.8477 30.3485H20.8204ZM34.5347 30.3485C34.037 30.3485 33.6151 30.7144 33.5447 31.207L31.4971 45.5404C31.411 46.1428 31.8785 46.6818 32.4871 46.6818H35.2464C35.6929 46.6818 36.0853 46.3858 36.2079 45.9565L40.3032 31.6232C40.4857 30.9844 40.006 30.3485 39.3417 30.3485H34.5347Z" fill="#3B8030"/>
</svg>
