<svg width="174" height="174" viewBox="0 0 174 174" fill="none" xmlns="http://www.w3.org/2000/svg">
<path d="M127.635 42.0154C135.933 43.5053 142.74 47.9719 148.06 55.4151C152.742 62.0097 155.934 70.3048 157.634 80.3004C159.127 89.4474 159.015 98.5911 157.315 107.738C154.762 122.838 149.655 135.495 141.995 145.704C132.843 158.041 121.355 164.209 107.525 164.209C104.119 164.209 100.399 163.146 96.3534 161.018C93.5861 159.318 90.5023 158.466 87.0959 158.466C83.6895 158.466 80.6089 159.318 77.8384 161.018C73.7929 163.146 70.0732 164.209 66.6668 164.209C52.8365 164.209 41.3485 158.041 32.1965 145.704C24.5367 135.495 19.4303 122.838 16.877 107.738C15.177 98.5911 15.0651 89.4474 16.5575 80.3004C18.2575 70.3048 21.4498 62.0097 26.1313 55.4151C31.4519 47.9719 38.2584 43.5053 46.5572 42.0154C51.6637 41.1635 58.6843 41.9101 67.6223 44.2486C75.282 46.3767 81.7721 48.929 87.0927 51.9057C92.4133 48.929 98.9034 46.3767 106.563 44.2486C115.504 41.9101 122.528 41.1635 127.635 42.0154ZM110.078 28.9346C107.1 31.7007 103.16 33.7202 98.2675 34.9964C94.8611 36.0588 91.1415 36.5916 87.0959 36.5916L82.309 36.2726C81.884 33.2959 81.884 29.8917 82.309 26.0632C83.1622 18.4062 85.6068 12.5582 89.6491 8.5159C92.6274 5.74981 96.5675 3.73027 101.46 2.4541C104.866 1.39169 108.586 0.858887 112.631 0.858887L117.418 1.17793L117.738 5.96356C117.738 10.0058 117.204 13.7259 116.143 17.13C114.868 22.021 112.849 25.9579 110.078 28.9346Z" fill="#C7C7CC"/>
<path d="M146.479 151.475C146.478 154.617 145.249 157.633 143.056 159.859C140.862 162.085 137.884 163.338 134.776 163.338V163.337C133.286 163.395 131.799 163.141 130.41 162.589C129.01 162.033 127.74 161.188 126.681 160.109L126.678 160.106L86.1064 118.391L45.1084 160L45.1074 160C44.1149 161.037 42.9307 161.868 41.6201 162.441C40.3052 163.016 38.8905 163.321 37.458 163.338H37.4473C34.3395 163.338 31.3615 162.085 29.168 159.859C27.1118 157.772 25.9018 154.991 25.7588 152.062L25.7451 151.475C25.72 150.016 25.9875 148.567 26.5322 147.215C27.0786 145.86 27.892 144.631 28.9238 143.604L70.3701 102.082L28.9199 60.0151V60.0142C26.981 58.0852 25.8455 55.4785 25.7451 52.73V52.6978C25.7451 49.5557 26.9749 46.5397 29.168 44.314C31.3615 42.0878 34.3394 40.8345 37.4473 40.8345H37.458C40.2895 40.8704 43 42.0313 45.001 44.062L86.1113 85.7847L127.006 44.2817C128 43.2128 129.197 42.3565 130.525 41.7642C131.862 41.168 133.305 40.8514 134.766 40.8345H134.776C137.884 40.8346 140.862 42.0879 143.056 44.314C145.249 46.5397 146.479 49.5559 146.479 52.6978H146.478C146.503 54.1567 146.235 55.6062 145.69 56.9575C145.144 58.3128 144.33 59.5404 143.298 60.5669L143.299 60.5679L101.853 102.09L143.296 144.15C145.24 146.08 146.377 148.691 146.478 151.443L146.479 151.458V151.475Z" fill="white" stroke="white" stroke-width="1.77554"/>
</svg>
