<svg width="240" height="240" viewBox="0 0 240 240" fill="none" xmlns="http://www.w3.org/2000/svg">
<g clip-path="url(#clip0_467_3091)">
<rect width="240" height="240" fill="#FEF2DD"/>
<path d="M30.6032 171.055C30.0817 173.141 26.4747 177.791 24.7363 179.855L59.6119 197.456L60.9156 195.175C62.5453 190.612 66.1306 186.7 69.716 184.419C72.5842 182.593 74.1705 181.268 74.6051 180.833C78.5163 176.922 84.0573 171.055 87.3167 162.255C89.9242 155.214 96.8776 140.417 100.028 133.898C101.549 130.639 104.005 123.729 101.658 122.164C99.3113 120.6 96.7689 122.382 95.7911 123.468C97.0949 119.035 95.2479 117.275 94.1614 116.949L68.4122 111.082L45.9224 139.439C45.5965 130.965 42.9889 124.772 40.7074 120.534C38.8821 117.145 35.1664 117.166 33.5367 117.601C28.3217 118.579 29.9514 122.816 31.2551 128.357C32.5589 133.898 31.5811 139.765 29.6254 148.891C27.6698 158.018 31.2551 168.448 30.6032 171.055Z" fill="#C17244"/>
<path d="M71.6719 144.328L89.9245 115.971" stroke="#603A25" stroke-width="1.95564" stroke-linecap="round"/>
<path d="M78.8423 149.869L95.4652 124.12" stroke="#603A25" stroke-width="1.95564" stroke-linecap="round"/>
<path d="M47.8789 142.047C52.2248 144.872 60.2646 154.041 57.6571 168.122" stroke="#603A25" stroke-width="1.95564" stroke-linecap="round"/>
<path d="M55.0483 138.135C62.3277 140.743 77.9945 147.457 82.4273 153.454" stroke="#603A25" stroke-width="1.95564" stroke-linecap="round"/>
<path d="M23.1084 178.049C21.5439 179.874 -2.60931 218.613 -5.76006 222.633V250.651H38.5677L62.2211 199.235C63.0033 197.41 61.8951 195.867 61.2433 195.324C57.8535 192.195 39.8399 183.155 31.2569 179.027C29.1926 177.94 24.6729 176.224 23.1084 178.049Z" fill="#397F2F"/>
<path d="M49.5079 85.9843C44.2929 87.8096 41.0335 92.3945 40.0557 94.4587C34.1888 108.148 38.426 121.512 48.5301 132.594C56.6134 141.459 66.8914 139.33 71.0199 137.157C82.4278 140.09 88.6207 131.29 91.88 125.097C95.1394 118.904 96.7691 109.778 95.4654 100.652C94.1616 91.5254 88.3122 86.5393 85.0353 84.3547C82.1018 82.3991 77.8646 82.0731 74.6052 83.3769C71.3458 84.6806 73.6274 80.7693 69.7161 81.4213C66.5871 81.9428 63.8493 86.419 63.1974 85.9843C60.8072 85.2238 54.723 84.1591 49.5079 85.9843Z" fill="#E74F26"/>
<ellipse cx="48.0009" cy="95.8158" rx="2.80648" ry="5.40416" transform="rotate(41 48.0009 95.8158)" fill="#FCBAA8"/>
<path d="M70.9962 92.0268C69.4847 93.5501 60.65 94.4254 58.4909 92.8959C56.3842 91.6737 57.9 90.5186 59.4055 90.8415C60.5001 91.0765 63.6114 91.389 67.3 90.7594C71.9108 89.9723 72.8855 90.1226 70.9962 92.0268Z" fill="#C03D1A"/>
<path d="M83.7841 63.888C66.1139 65.9369 64.1676 79.4843 65.4846 86.6541C65.5494 87.0068 65.9017 87.2265 66.2506 87.1439C79.513 84.0056 83.7527 74.3511 84.4136 71.4227C84.8885 69.3185 84.6986 66.1977 84.4935 64.4369C84.4532 64.0909 84.1302 63.8479 83.7841 63.888Z" fill="#1D681A"/>
<path d="M56.3528 75.5906C61.0464 77.9373 61.6765 87.2157 62.2198 91.5616C63.2628 92.3438 65.8051 91.8875 66.131 91.5616C65.8051 75.9164 59.2863 71.3534 57.9825 71.0274C56.6788 70.7015 54.7231 72.6571 54.7231 73.6349C54.7231 74.4172 55.8096 75.2646 56.3528 75.5906Z" fill="#462D1A"/>
<path d="M83.783 63.8246C83.9839 63.8013 84.1758 63.8748 84.3103 64.0072C79.297 68.3141 69.147 78.4896 65.9168 87.0668C65.7017 87.0013 65.5277 86.8273 65.4841 86.5902C64.1672 79.4204 66.1131 65.8736 83.783 63.8246Z" fill="#277C23"/>
<path d="M222.55 159.288C222.55 169.231 228.924 180.427 232.111 184.782L183.033 216.333C181.652 214.208 178.253 208.939 175.703 204.86C172.517 199.761 171.56 200.717 162 195.618C152.439 190.519 141.285 181.596 138.736 176.497C136.696 172.418 122.164 163.537 115.153 159.606C112.391 159.394 106.867 157.312 106.867 150.683C106.867 144.054 113.028 142.185 116.109 142.079L114.515 141.76C110.373 141.441 103.68 138.892 103.68 132.199C103.68 123.018 111.647 122.001 115.79 122.639L108.461 119.77C97.9438 111.485 107.504 101.287 113.878 102.88H120.571L114.516 96.1876C106.102 89.559 111.647 80.8906 115.472 80.8906C143.729 91.1948 199.796 110.847 198.011 107.023C195.781 102.243 194.506 91.0886 196.418 80.8906C198.33 70.6926 208.209 72.2861 208.847 78.9785C209.484 85.6709 215.221 101.605 221.276 118.177C227.331 134.749 224.781 145.903 222.55 159.288Z" fill="#C17244"/>
<path d="M222.55 159.288C222.55 169.231 228.923 180.427 232.11 184.782L183.032 216.333C181.651 214.208 178.252 208.939 175.703 204.86C172.516 199.761 171.56 200.717 161.999 195.618L208.846 180.321L198.011 107.023C195.78 102.243 194.505 91.0886 196.417 80.8906C198.329 70.6926 208.209 72.2861 208.846 78.9785C209.483 85.6709 215.22 101.605 221.275 118.177C227.33 134.749 224.78 145.903 222.55 159.288Z" fill="#C17244"/>
<rect x="114.065" y="31.1799" width="84.3938" height="145.635" rx="11.9496" fill="#1E1E1E"/>
<rect x="119.252" y="36.5925" width="73.938" height="133.686" rx="7.46848" fill="#FEF2DD"/>
<rect x="124.303" y="137.334" width="62.6659" height="21.198" rx="5.09899" fill="#277C23"/>
<path d="M143.592 151.433C143.429 151.433 143.292 151.378 143.181 151.267C143.07 151.156 143.014 151.019 143.014 150.856V143.338C143.014 143.167 143.07 143.03 143.181 142.927C143.292 142.816 143.429 142.76 143.592 142.76H145.591C146.146 142.76 146.638 142.879 147.068 143.115C147.497 143.345 147.83 143.663 148.067 144.071C148.311 144.478 148.434 144.952 148.434 145.492C148.434 145.995 148.311 146.443 148.067 146.836C147.83 147.228 147.497 147.535 147.068 147.757C146.638 147.98 146.146 148.091 145.591 148.091H144.169V150.856C144.169 151.019 144.114 151.156 144.002 151.267C143.899 151.378 143.762 151.433 143.592 151.433ZM148.2 151.433C148.097 151.433 148 151.411 147.912 151.367C147.83 151.322 147.76 151.252 147.701 151.156L145.702 147.935L146.823 147.613L148.645 150.545C148.778 150.76 148.796 150.963 148.7 151.156C148.604 151.341 148.437 151.433 148.2 151.433ZM144.169 147.025H145.591C145.931 147.025 146.231 146.962 146.49 146.836C146.749 146.702 146.953 146.521 147.101 146.292C147.249 146.055 147.323 145.788 147.323 145.492C147.323 145.166 147.249 144.877 147.101 144.626C146.953 144.374 146.749 144.178 146.49 144.037C146.231 143.897 145.931 143.826 145.591 143.826H144.169V147.025ZM151.402 151.433C151.239 151.433 151.102 151.378 150.991 151.267C150.88 151.156 150.824 151.019 150.824 150.856V143.338C150.824 143.167 150.88 143.03 150.991 142.927C151.102 142.816 151.239 142.76 151.402 142.76C151.572 142.76 151.709 142.816 151.812 142.927C151.924 143.03 151.979 143.167 151.979 143.338V150.856C151.979 151.019 151.924 151.156 151.812 151.267C151.709 151.378 151.572 151.433 151.402 151.433ZM155.568 151.433C155.405 151.433 155.268 151.378 155.157 151.267C155.046 151.156 154.99 151.019 154.99 150.856V143.338C154.99 143.167 155.046 143.03 155.157 142.927C155.268 142.816 155.405 142.76 155.568 142.76H157.789C158.344 142.76 158.836 142.882 159.266 143.127C159.695 143.371 160.028 143.711 160.265 144.148C160.51 144.578 160.632 145.074 160.632 145.636C160.632 146.177 160.51 146.658 160.265 147.08C160.028 147.502 159.695 147.832 159.266 148.068C158.836 148.305 158.344 148.424 157.789 148.424H156.145V150.856C156.145 151.019 156.09 151.156 155.979 151.267C155.875 151.378 155.738 151.433 155.568 151.433ZM156.145 147.358H157.789C158.129 147.358 158.429 147.284 158.688 147.136C158.947 146.988 159.151 146.784 159.299 146.525C159.447 146.266 159.521 145.97 159.521 145.636C159.521 145.281 159.447 144.97 159.299 144.704C159.151 144.43 158.947 144.215 158.688 144.059C158.429 143.904 158.129 143.826 157.789 143.826H156.145V147.358ZM163.28 151.433C163.117 151.433 162.98 151.378 162.869 151.267C162.758 151.156 162.703 151.019 162.703 150.856V143.338C162.703 143.167 162.758 143.03 162.869 142.927C162.98 142.816 163.117 142.76 163.28 142.76H168.3C168.47 142.76 168.607 142.812 168.711 142.916C168.814 143.012 168.866 143.141 168.866 143.304C168.866 143.46 168.814 143.586 168.711 143.682C168.607 143.778 168.47 143.826 168.3 143.826H163.858V146.525H167.045C167.215 146.525 167.352 146.577 167.456 146.68C167.559 146.777 167.611 146.902 167.611 147.058C167.611 147.213 167.559 147.343 167.456 147.447C167.352 147.543 167.215 147.591 167.045 147.591H163.858V150.367H168.3C168.47 150.367 168.607 150.415 168.711 150.512C168.814 150.608 168.866 150.734 168.866 150.889C168.866 151.052 168.814 151.185 168.711 151.289C168.607 151.385 168.47 151.433 168.3 151.433H163.28Z" fill="white"/>
<path d="M143.181 151.267L142.9 151.547H142.9L143.181 151.267ZM143.181 142.927L143.451 143.217L143.461 143.207L143.181 142.927ZM147.068 143.115L146.876 143.463L146.881 143.465L147.068 143.115ZM148.067 144.071L147.724 144.27L147.727 144.275L148.067 144.071ZM148.067 146.836L147.73 146.626L147.727 146.631L148.067 146.836ZM147.068 147.757L147.25 148.11H147.25L147.068 147.757ZM144.169 148.091V147.694H143.772V148.091H144.169ZM144.002 151.267L143.722 150.986L143.713 150.996L144.002 151.267ZM147.912 151.367L147.722 151.715L147.728 151.718L147.734 151.721L147.912 151.367ZM147.701 151.156L148.038 150.948L148.038 150.947L147.701 151.156ZM145.702 147.935L145.592 147.554L145.088 147.699L145.365 148.144L145.702 147.935ZM146.823 147.613L147.16 147.404L147.002 147.149L146.714 147.232L146.823 147.613ZM148.645 150.545L148.981 150.336L148.981 150.336L148.645 150.545ZM148.7 151.156L149.052 151.339L149.055 151.333L148.7 151.156ZM144.169 147.025H143.772V147.421H144.169V147.025ZM146.49 146.836L146.663 147.193L146.671 147.188L146.49 146.836ZM147.101 146.292L147.434 146.507L147.437 146.502L147.101 146.292ZM146.49 144.037L146.301 144.386L146.301 144.386L146.49 144.037ZM144.169 143.826V143.43H143.772V143.826H144.169ZM143.592 151.433V151.037C143.53 151.037 143.495 151.02 143.461 150.986L143.181 151.267L142.9 151.547C143.089 151.736 143.328 151.83 143.592 151.83V151.433ZM143.181 151.267L143.461 150.986C143.427 150.953 143.411 150.918 143.411 150.856H143.014H142.617C142.617 151.12 142.712 151.359 142.9 151.547L143.181 151.267ZM143.014 150.856H143.411V143.338H143.014H142.617V150.856H143.014ZM143.014 143.338H143.411C143.411 143.263 143.431 143.236 143.451 143.217L143.181 142.927L142.91 142.637C142.708 142.825 142.617 143.072 142.617 143.338H143.014ZM143.181 142.927L143.461 143.207C143.495 143.173 143.53 143.157 143.592 143.157V142.76V142.363C143.328 142.363 143.089 142.458 142.9 142.646L143.181 142.927ZM143.592 142.76V143.157H145.591V142.76V142.363H143.592V142.76ZM145.591 142.76V143.157C146.088 143.157 146.513 143.262 146.876 143.463L147.068 143.115L147.259 142.768C146.764 142.495 146.204 142.363 145.591 142.363V142.76ZM147.068 143.115L146.881 143.465C147.247 143.661 147.526 143.929 147.724 144.27L148.067 144.071L148.41 143.871C148.135 143.398 147.747 143.029 147.255 142.766L147.068 143.115ZM148.067 144.071L147.727 144.275C147.929 144.612 148.037 145.013 148.037 145.492H148.434H148.83C148.83 144.89 148.693 144.343 148.407 143.866L148.067 144.071ZM148.434 145.492H148.037C148.037 145.928 147.932 146.302 147.73 146.626L148.067 146.836L148.404 147.045C148.691 146.584 148.83 146.063 148.83 145.492H148.434ZM148.067 146.836L147.727 146.631C147.531 146.957 147.253 147.215 146.885 147.405L147.068 147.757L147.25 148.11C147.74 147.856 148.13 147.499 148.407 147.041L148.067 146.836ZM147.068 147.757L146.885 147.405C146.52 147.594 146.092 147.694 145.591 147.694V148.091V148.487C146.2 148.487 146.756 148.365 147.25 148.11L147.068 147.757ZM145.591 148.091V147.694H144.169V148.091V148.487H145.591V148.091ZM144.169 148.091H143.772V150.856H144.169H144.566V148.091H144.169ZM144.169 150.856H143.772C143.772 150.918 143.756 150.953 143.722 150.986L144.002 151.267L144.283 151.547C144.471 151.359 144.566 151.12 144.566 150.856H144.169ZM144.002 151.267L143.713 150.996C143.693 151.017 143.667 151.037 143.592 151.037V151.433V151.83C143.857 151.83 144.104 151.739 144.292 151.537L144.002 151.267ZM148.2 151.433V151.037C148.155 151.037 148.12 151.028 148.089 151.012L147.912 151.367L147.734 151.721C147.881 151.795 148.038 151.83 148.2 151.83V151.433ZM147.912 151.367L148.101 151.019C148.093 151.014 148.069 150.998 148.038 150.948L147.701 151.156L147.363 151.364C147.45 151.506 147.568 151.631 147.722 151.715L147.912 151.367ZM147.701 151.156L148.038 150.947L146.039 147.726L145.702 147.935L145.365 148.144L147.364 151.365L147.701 151.156ZM145.702 147.935L145.811 148.316L146.933 147.994L146.823 147.613L146.714 147.232L145.592 147.554L145.702 147.935ZM146.823 147.613L146.486 147.822L148.308 150.754L148.645 150.545L148.981 150.336L147.16 147.404L146.823 147.613ZM148.645 150.545L148.308 150.754C148.383 150.876 148.368 150.932 148.345 150.978L148.7 151.156L149.055 151.333C149.224 150.994 149.173 150.644 148.981 150.336L148.645 150.545ZM148.7 151.156L148.348 150.973C148.332 151.003 148.319 151.012 148.31 151.017C148.299 151.024 148.268 151.037 148.2 151.037V151.433V151.83C148.37 151.83 148.541 151.797 148.696 151.711C148.853 151.623 148.971 151.493 149.052 151.339L148.7 151.156ZM144.169 147.025V147.421H145.591V147.025V146.628H144.169V147.025ZM145.591 147.025V147.421C145.98 147.421 146.341 147.349 146.663 147.192L146.49 146.836L146.317 146.479C146.121 146.574 145.882 146.628 145.591 146.628V147.025ZM146.49 146.836L146.671 147.188C146.988 147.026 147.246 146.798 147.434 146.507L147.101 146.292L146.768 146.077C146.66 146.244 146.51 146.379 146.309 146.483L146.49 146.836ZM147.101 146.292L147.437 146.502C147.627 146.198 147.72 145.858 147.72 145.492H147.323H146.926C146.926 145.718 146.871 145.911 146.765 146.081L147.101 146.292ZM147.323 145.492H147.72C147.72 145.104 147.631 144.744 147.443 144.425L147.101 144.626L146.759 144.827C146.867 145.011 146.926 145.229 146.926 145.492H147.323ZM147.101 144.626L147.443 144.425C147.258 144.11 147.001 143.863 146.679 143.689L146.49 144.037L146.301 144.386C146.497 144.492 146.648 144.638 146.759 144.827L147.101 144.626ZM146.49 144.037L146.679 143.689C146.354 143.512 145.987 143.43 145.591 143.43V143.826V144.223C145.875 144.223 146.108 144.281 146.301 144.386L146.49 144.037ZM145.591 143.826V143.43H144.169V143.826V144.223H145.591V143.826ZM144.169 143.826H143.772V147.025H144.169H144.566V143.826H144.169ZM150.991 151.267L150.71 151.547L150.991 151.267ZM150.991 142.927L151.261 143.217L151.271 143.207L150.991 142.927ZM151.812 142.927L151.523 143.197L151.532 143.207L151.542 143.217L151.812 142.927ZM151.812 151.267L151.532 150.986L151.523 150.996L151.812 151.267ZM151.402 151.433V151.037C151.34 151.037 151.305 151.02 151.271 150.986L150.991 151.267L150.71 151.547C150.899 151.736 151.138 151.83 151.402 151.83V151.433ZM150.991 151.267L151.271 150.986C151.237 150.953 151.221 150.918 151.221 150.856H150.824H150.427C150.427 151.12 150.522 151.359 150.71 151.547L150.991 151.267ZM150.824 150.856H151.221V143.338H150.824H150.427V150.856H150.824ZM150.824 143.338H151.221C151.221 143.263 151.241 143.236 151.261 143.217L150.991 142.927L150.72 142.637C150.518 142.825 150.427 143.072 150.427 143.338H150.824ZM150.991 142.927L151.271 143.207C151.305 143.173 151.34 143.157 151.402 143.157V142.76V142.363C151.138 142.363 150.899 142.458 150.71 142.646L150.991 142.927ZM151.402 142.76V143.157C151.477 143.157 151.503 143.177 151.523 143.197L151.812 142.927L152.102 142.656C151.914 142.454 151.667 142.363 151.402 142.363V142.76ZM151.812 142.927L151.542 143.217C151.562 143.236 151.582 143.263 151.582 143.338H151.979H152.376C152.376 143.072 152.285 142.825 152.083 142.637L151.812 142.927ZM151.979 143.338H151.582V150.856H151.979H152.376V143.338H151.979ZM151.979 150.856H151.582C151.582 150.918 151.566 150.953 151.532 150.986L151.812 151.267L152.093 151.547C152.281 151.359 152.376 151.12 152.376 150.856H151.979ZM151.812 151.267L151.523 150.996C151.503 151.017 151.477 151.037 151.402 151.037V151.433V151.83C151.667 151.83 151.914 151.739 152.102 151.537L151.812 151.267ZM155.157 151.267L154.876 151.547L155.157 151.267ZM155.157 142.927L155.428 143.217L155.437 143.207L155.157 142.927ZM159.266 143.127L159.07 143.471L159.266 143.127ZM160.265 144.148L159.916 144.337L159.92 144.344L160.265 144.148ZM160.265 147.08L159.922 146.881L159.919 146.886L160.265 147.08ZM159.266 148.068L159.457 148.416V148.416L159.266 148.068ZM156.145 148.424V148.027H155.748V148.424H156.145ZM155.979 151.267L155.698 150.986L155.689 150.996L155.979 151.267ZM156.145 147.358H155.748V147.754H156.145V147.358ZM158.688 147.136L158.491 146.791L158.688 147.136ZM159.299 146.525L159.643 146.722L159.299 146.525ZM159.299 144.704L158.95 144.892L158.952 144.896L159.299 144.704ZM156.145 143.826V143.43H155.748V143.826H156.145ZM155.568 151.433V151.037C155.506 151.037 155.471 151.02 155.437 150.986L155.157 151.267L154.876 151.547C155.065 151.736 155.304 151.83 155.568 151.83V151.433ZM155.157 151.267L155.437 150.986C155.404 150.953 155.387 150.918 155.387 150.856H154.99H154.594C154.594 151.12 154.688 151.359 154.876 151.547L155.157 151.267ZM154.99 150.856H155.387V143.338H154.99H154.594V150.856H154.99ZM154.99 143.338H155.387C155.387 143.263 155.407 143.236 155.427 143.217L155.157 142.927L154.886 142.637C154.685 142.825 154.594 143.072 154.594 143.338H154.99ZM155.157 142.927L155.437 143.207C155.471 143.173 155.506 143.157 155.568 143.157V142.76V142.363C155.304 142.363 155.065 142.458 154.876 142.646L155.157 142.927ZM155.568 142.76V143.157H157.789V142.76V142.363H155.568V142.76ZM157.789 142.76V143.157C158.284 143.157 158.707 143.265 159.07 143.471L159.266 143.127L159.462 142.782C158.966 142.499 158.404 142.363 157.789 142.363V142.76ZM159.266 143.127L159.07 143.471C159.434 143.679 159.715 143.965 159.917 144.337L160.265 144.148L160.614 143.959C160.342 143.458 159.956 143.063 159.462 142.782L159.266 143.127ZM160.265 144.148L159.92 144.344C160.126 144.706 160.235 145.133 160.235 145.636H160.632H161.028C161.028 145.015 160.893 144.449 160.61 143.952L160.265 144.148ZM160.632 145.636H160.235C160.235 146.115 160.128 146.526 159.922 146.881L160.265 147.08L160.608 147.279C160.891 146.79 161.028 146.239 161.028 145.636H160.632ZM160.265 147.08L159.919 146.886C159.719 147.243 159.44 147.519 159.074 147.721L159.266 148.068L159.457 148.416C159.95 148.144 160.337 147.762 160.611 147.274L160.265 147.08ZM159.266 148.068L159.074 147.721C158.711 147.922 158.286 148.027 157.789 148.027V148.424V148.82C158.402 148.82 158.962 148.689 159.457 148.416L159.266 148.068ZM157.789 148.424V148.027H156.145V148.424V148.82H157.789V148.424ZM156.145 148.424H155.748V150.856H156.145H156.542V148.424H156.145ZM156.145 150.856H155.748C155.748 150.918 155.732 150.953 155.698 150.986L155.979 151.267L156.259 151.547C156.447 151.359 156.542 151.12 156.542 150.856H156.145ZM155.979 151.267L155.689 150.996C155.669 151.017 155.643 151.037 155.568 151.037V151.433V151.83C155.833 151.83 156.08 151.739 156.268 151.537L155.979 151.267ZM156.145 147.358V147.754H157.789V147.358V146.961H156.145V147.358ZM157.789 147.358V147.754C158.188 147.754 158.558 147.667 158.885 147.48L158.688 147.136L158.491 146.791C158.3 146.9 158.07 146.961 157.789 146.961V147.358ZM158.688 147.136L158.885 147.48C159.206 147.297 159.46 147.042 159.643 146.722L159.299 146.525L158.955 146.328C158.842 146.526 158.689 146.678 158.491 146.791L158.688 147.136ZM159.299 146.525L159.643 146.722C159.83 146.396 159.918 146.03 159.918 145.636H159.521H159.125C159.125 145.909 159.065 146.136 158.955 146.328L159.299 146.525ZM159.521 145.636H159.918C159.918 145.225 159.832 144.845 159.646 144.511L159.299 144.704L158.952 144.896C159.063 145.095 159.125 145.337 159.125 145.636H159.521ZM159.299 144.704L159.648 144.515C159.467 144.18 159.214 143.913 158.892 143.719L158.688 144.059L158.484 144.399C158.68 144.517 158.835 144.679 158.95 144.892L159.299 144.704ZM158.688 144.059L158.892 143.719C158.564 143.522 158.192 143.43 157.789 143.43V143.826V144.223C158.067 144.223 158.294 144.286 158.484 144.399L158.688 144.059ZM157.789 143.826V143.43H156.145V143.826V144.223H157.789V143.826ZM156.145 143.826H155.748V147.358H156.145H156.542V143.826H156.145ZM162.869 151.267L162.589 151.547L162.869 151.267ZM162.869 142.927L163.14 143.217L163.15 143.207L162.869 142.927ZM168.711 142.916L168.43 143.196L168.435 143.201L168.441 143.206L168.711 142.916ZM168.711 143.682L168.98 143.972L168.98 143.972L168.711 143.682ZM163.858 143.826V143.43H163.461V143.826H163.858ZM163.858 146.525H163.461V146.921H163.858V146.525ZM167.456 146.68L167.175 146.961L167.18 146.966L167.186 146.971L167.456 146.68ZM167.456 147.447L167.726 147.737L167.731 147.732L167.736 147.727L167.456 147.447ZM163.858 147.591V147.194H163.461V147.591H163.858ZM163.858 150.367H163.461V150.764H163.858V150.367ZM168.711 150.512L168.98 150.221L168.711 150.512ZM168.711 151.289L168.98 151.58L168.986 151.575L168.991 151.569L168.711 151.289ZM163.28 151.433V151.037C163.218 151.037 163.183 151.02 163.15 150.986L162.869 151.267L162.589 151.547C162.777 151.736 163.016 151.83 163.28 151.83V151.433ZM162.869 151.267L163.15 150.986C163.116 150.953 163.099 150.918 163.099 150.856H162.703H162.306C162.306 151.12 162.4 151.359 162.589 151.547L162.869 151.267ZM162.703 150.856H163.099V143.338H162.703H162.306V150.856H162.703ZM162.703 143.338H163.099C163.099 143.263 163.119 143.236 163.14 143.217L162.869 142.927L162.599 142.637C162.397 142.825 162.306 143.072 162.306 143.338H162.703ZM162.869 142.927L163.15 143.207C163.183 143.173 163.218 143.157 163.28 143.157V142.76V142.363C163.016 142.363 162.777 142.458 162.589 142.646L162.869 142.927ZM163.28 142.76V143.157H168.3V142.76V142.363H163.28V142.76ZM168.3 142.76V143.157C168.383 143.157 168.413 143.179 168.43 143.196L168.711 142.916L168.991 142.635C168.801 142.445 168.557 142.363 168.3 142.363V142.76ZM168.711 142.916L168.441 143.206C168.451 143.216 168.469 143.233 168.469 143.304H168.866H169.263C169.263 143.049 169.177 142.808 168.98 142.625L168.711 142.916ZM168.866 143.304H168.469C168.469 143.362 168.455 143.378 168.441 143.391L168.711 143.682L168.98 143.972C169.173 143.793 169.263 143.558 169.263 143.304H168.866ZM168.711 143.682L168.441 143.391C168.425 143.406 168.391 143.43 168.3 143.43V143.826V144.223C168.548 144.223 168.789 144.15 168.98 143.972L168.711 143.682ZM168.3 143.826V143.43H163.858V143.826V144.223H168.3V143.826ZM163.858 143.826H163.461V146.525H163.858H164.254V143.826H163.858ZM163.858 146.525V146.921H167.045V146.525V146.128H163.858V146.525ZM167.045 146.525V146.921C167.128 146.921 167.158 146.944 167.175 146.961L167.456 146.68L167.736 146.4C167.546 146.21 167.302 146.128 167.045 146.128V146.525ZM167.456 146.68L167.186 146.971C167.2 146.984 167.214 147 167.214 147.058H167.611H168.008C168.008 146.804 167.918 146.569 167.726 146.39L167.456 146.68ZM167.611 147.058H167.214C167.214 147.115 167.2 147.142 167.175 147.166L167.456 147.447L167.736 147.727C167.919 147.544 168.008 147.311 168.008 147.058H167.611ZM167.456 147.447L167.186 147.156C167.17 147.171 167.136 147.194 167.045 147.194V147.591V147.988C167.294 147.988 167.534 147.915 167.726 147.737L167.456 147.447ZM167.045 147.591V147.194H163.858V147.591V147.988H167.045V147.591ZM163.858 147.591H163.461V150.367H163.858H164.254V147.591H163.858ZM163.858 150.367V150.764H168.3V150.367V149.971H163.858V150.367ZM168.3 150.367V150.764C168.391 150.764 168.425 150.788 168.441 150.802L168.711 150.512L168.98 150.221C168.789 150.043 168.548 149.971 168.3 149.971V150.367ZM168.711 150.512L168.441 150.802C168.455 150.816 168.469 150.832 168.469 150.889H168.866H169.263C169.263 150.636 169.173 150.4 168.98 150.221L168.711 150.512ZM168.866 150.889H168.469C168.469 150.96 168.451 150.988 168.43 151.009L168.711 151.289L168.991 151.569C169.178 151.383 169.263 151.144 169.263 150.889H168.866ZM168.711 151.289L168.441 150.998C168.425 151.013 168.391 151.037 168.3 151.037V151.433V151.83C168.548 151.83 168.789 151.757 168.98 151.58L168.711 151.289ZM168.3 151.433V151.037H163.28V151.433V151.83H168.3V151.433Z" fill="white"/>
<path d="M145.76 83.9112C142.709 84.9787 140.803 87.6603 140.231 88.8676C136.8 96.8741 139.278 104.69 145.188 111.172C149.915 116.357 155.927 115.111 158.341 113.84C165.013 115.556 168.635 110.409 170.542 106.787C172.448 103.165 173.401 97.8274 172.639 92.4897C171.876 87.152 168.455 84.2358 166.538 82.9581C164.823 81.8143 162.344 81.6236 160.438 82.3862C158.532 83.1487 159.866 80.8611 157.579 81.2424C155.749 81.5475 154.147 84.1654 153.766 83.9112C152.368 83.4664 148.81 82.8437 145.76 83.9112Z" fill="#E74F26"/>
<ellipse cx="144.878" cy="89.6615" rx="1.64142" ry="3.16072" transform="rotate(41 144.878 89.6615)" fill="#FCBAA8"/>
<path d="M158.327 87.4453C157.443 88.3363 152.275 88.8482 151.013 87.9536C149.781 87.2388 150.667 86.5632 151.548 86.7521C152.188 86.8895 154.007 87.0723 156.165 86.704C158.862 86.2437 159.432 86.3316 158.327 87.4453Z" fill="#C03D1A"/>
<path d="M165.805 70.9877C155.47 72.1861 154.332 80.1095 155.102 84.3029C155.14 84.5091 155.346 84.6376 155.55 84.5893C163.307 82.7539 165.787 77.1072 166.173 75.3945C166.451 74.1638 166.34 72.3386 166.22 71.3087C166.196 71.1063 166.007 70.9642 165.805 70.9877Z" fill="#1D681A"/>
<path d="M149.763 77.8324C152.508 79.2049 152.876 84.6315 153.194 87.1733C153.804 87.6308 155.291 87.3639 155.482 87.1733C155.291 78.0229 151.478 75.3541 150.716 75.1635C149.953 74.9729 148.81 76.1167 148.81 76.6886C148.81 77.1461 149.445 77.6417 149.763 77.8324Z" fill="#462D1A"/>
<path d="M165.805 70.9502C165.922 70.9367 166.034 70.9803 166.112 71.0576C163.18 73.5767 157.245 79.5278 155.356 84.5439C155.23 84.5058 155.127 84.4044 155.102 84.2656C154.331 80.0722 155.47 72.1485 165.805 70.9502Z" fill="#277C23"/>
<rect x="126.525" y="63.7214" width="58.5411" height="58.5411" rx="1.49149" stroke="#3B8030" stroke-width="2.85566" stroke-dasharray="8.57 8.57"/>
<rect x="143.15" y="41.0742" width="25.3928" height="7.46848" rx="3.73424" fill="#1E1E1E"/>
<path d="M179.415 216.359C178.286 214.31 178.931 211.738 180.892 210.464L228.965 179.245C231.031 177.903 233.794 178.49 235.137 180.557L262.571 222.802C263.909 224.863 263.33 227.617 261.276 228.964L210.272 262.404C208.099 263.829 205.172 263.103 203.918 260.827L179.415 216.359Z" fill="#397F2F"/>
</g>
<defs>
<clipPath id="clip0_467_3091">
<rect width="240" height="240" fill="white"/>
</clipPath>
</defs>
</svg>
