<svg width="49" height="49" viewBox="0 0 49 49" fill="none" xmlns="http://www.w3.org/2000/svg">
<path fill-rule="evenodd" clip-rule="evenodd" d="M24.3344 34.0824C26.8805 34.0824 29.3223 33.071 31.1226 31.2707C32.923 29.4703 33.9344 27.0285 33.9344 24.4824C33.9344 21.9364 32.923 19.4946 31.1226 17.6942C29.3223 15.8939 26.8805 14.8824 24.3344 14.8824C21.7883 14.8824 19.3465 15.8939 17.5461 17.6942C15.7458 19.4946 14.7344 21.9364 14.7344 24.4824C14.7344 27.0285 15.7458 29.4703 17.5461 31.2707C19.3465 33.071 21.7883 34.0824 24.3344 34.0824ZM24.3344 19.6824C25.6074 19.6824 26.8283 20.1882 27.7285 21.0883C28.6287 21.9885 29.1344 23.2094 29.1344 24.4824C29.1344 25.7555 28.6287 26.9764 27.7285 27.8766C26.8283 28.7767 25.6074 29.2824 24.3344 29.2824C23.0613 29.2824 21.8404 28.7767 20.9403 27.8766C20.0401 26.9764 19.5344 25.7555 19.5344 24.4824C19.5344 23.2094 20.0401 21.9885 20.9403 21.0883C21.8404 20.1882 23.0613 19.6824 24.3344 19.6824Z" fill="#A87E30"/>
<path d="M1.53418 24.4825C1.53418 23.846 1.78704 23.2355 2.23712 22.7854C2.68721 22.3354 3.29766 22.0825 3.93418 22.0825H8.73418C9.3707 22.0825 9.98115 22.3354 10.4312 22.7854C10.8813 23.2355 11.1342 23.846 11.1342 24.4825C11.1342 25.119 10.8813 25.7295 10.4312 26.1796C9.98115 26.6296 9.3707 26.8825 8.73418 26.8825H3.93418C3.29766 26.8825 2.68721 26.6296 2.23712 26.1796C1.78704 25.7295 1.53418 25.119 1.53418 24.4825ZM37.5342 24.4825C37.5342 23.846 37.787 23.2355 38.2371 22.7854C38.6872 22.3354 39.2977 22.0825 39.9342 22.0825H44.7342C45.3707 22.0825 45.9811 22.3354 46.4312 22.7854C46.8813 23.2355 47.1342 23.846 47.1342 24.4825C47.1342 25.119 46.8813 25.7295 46.4312 26.1796C45.9811 26.6296 45.3707 26.8825 44.7342 26.8825H39.9342C39.2977 26.8825 38.6872 26.6296 38.2371 26.1796C37.787 25.7295 37.5342 25.119 37.5342 24.4825ZM33.9342 34.0825C34.3842 33.6326 34.9946 33.3798 35.631 33.3798C36.2674 33.3798 36.8777 33.6326 37.3278 34.0825L40.7214 37.4761C40.9506 37.6975 41.1334 37.9623 41.2592 38.2551C41.385 38.5479 41.4512 38.8629 41.454 39.1815C41.4567 39.5002 41.396 39.8162 41.2754 40.1112C41.1547 40.4061 40.9765 40.6741 40.7511 40.8994C40.5258 41.1248 40.2578 41.303 39.9629 41.4237C39.6679 41.5443 39.3519 41.6051 39.0332 41.6023C38.7145 41.5995 38.3996 41.5333 38.1068 41.4075C37.814 41.2818 37.5492 41.0989 37.3278 40.8697L33.9342 37.4761C33.4842 37.026 33.2315 36.4157 33.2315 35.7793C33.2315 35.1429 33.4842 34.5326 33.9342 34.0825ZM7.53418 7.68249C7.98425 7.23256 8.59459 6.97981 9.23098 6.97981C9.86737 6.97981 10.4777 7.23256 10.9278 7.68249L14.3214 11.0761C14.5506 11.2975 14.7334 11.5623 14.8592 11.8551C14.985 12.1479 15.0512 12.4629 15.054 12.7815C15.0567 13.1002 14.996 13.4162 14.8754 13.7112C14.7547 14.0061 14.5765 14.2741 14.3511 14.4994C14.1258 14.7248 13.8578 14.903 13.5629 15.0237C13.2679 15.1443 12.9519 15.2051 12.6332 15.2023C12.3145 15.1995 11.9996 15.1333 11.7068 15.0075C11.414 14.8818 11.1492 14.6989 10.9278 14.4697L7.53418 11.0761C7.08425 10.626 6.83149 10.0157 6.83149 9.37929C6.83149 8.7429 7.08425 8.13256 7.53418 7.68249ZM24.3342 37.6825C24.9707 37.6825 25.5811 37.9353 26.0312 38.3854C26.4813 38.8355 26.7342 39.446 26.7342 40.0825V44.8825C26.7342 45.519 26.4813 46.1295 26.0312 46.5796C25.5811 47.0296 24.9707 47.2825 24.3342 47.2825C23.6977 47.2825 23.0872 47.0296 22.6371 46.5796C22.187 46.1295 21.9342 45.519 21.9342 44.8825V40.0825C21.9342 39.446 22.187 38.8355 22.6371 38.3854C23.0872 37.9353 23.6977 37.6825 24.3342 37.6825ZM24.3342 1.6825C24.9707 1.6825 25.5811 1.93535 26.0312 2.38544C26.4813 2.83553 26.7342 3.44598 26.7342 4.08249V8.88249C26.7342 9.51901 26.4813 10.1295 26.0312 10.5796C25.5811 11.0296 24.9707 11.2825 24.3342 11.2825C23.6977 11.2825 23.0872 11.0296 22.6371 10.5796C22.187 10.1295 21.9342 9.51901 21.9342 8.88249V4.08249C21.9342 3.44598 22.187 2.83553 22.6371 2.38544C23.0872 1.93535 23.6977 1.6825 24.3342 1.6825ZM40.7214 7.68249C41.1713 8.13256 41.4241 8.7429 41.4241 9.37929C41.4241 10.0157 41.1713 10.626 40.7214 11.0761L37.3278 14.4697C37.1064 14.6989 36.8416 14.8818 36.5487 15.0075C36.2559 15.1333 35.941 15.1995 35.6223 15.2023C35.3037 15.2051 34.9876 15.1443 34.6927 15.0237C34.3977 14.903 34.1298 14.7248 33.9044 14.4994C33.6791 14.2741 33.5009 14.0061 33.3802 13.7112C33.2595 13.4162 33.1988 13.1002 33.2016 12.7815C33.2043 12.4629 33.2706 12.1479 33.3963 11.8551C33.5221 11.5623 33.705 11.2975 33.9342 11.0761L37.3278 7.68249C37.7778 7.23256 38.3882 6.97981 39.0246 6.97981C39.661 6.97981 40.2713 7.23256 40.7214 7.68249ZM14.3214 37.4761L10.9278 40.8697C10.7064 41.0989 10.4416 41.2818 10.1488 41.4075C9.85594 41.5333 9.54101 41.5995 9.22234 41.6023C8.90367 41.6051 8.58764 41.5443 8.29269 41.4237C7.99774 41.303 7.72977 41.1248 7.50443 40.8994C7.27909 40.6741 7.10088 40.4061 6.98021 40.1112C6.85953 39.8162 6.79881 39.5002 6.80158 39.1815C6.80435 38.8629 6.87055 38.5479 6.99634 38.2551C7.12212 37.9623 7.30496 37.6975 7.53418 37.4761L10.9278 34.0825C11.3804 33.6453 11.9867 33.4034 12.6159 33.4089C13.2452 33.4143 13.8472 33.6667 14.2921 34.1117C14.7371 34.5567 14.9895 35.1587 14.995 35.7879C15.0005 36.4172 14.7586 37.0234 14.3214 37.4761Z" fill="#A87E30"/>
<path d="M3.43738 6.9793C3.0002 6.52665 2.75829 5.9204 2.76376 5.29113C2.76923 4.66186 3.02164 4.05991 3.46662 3.61493C3.91159 3.16995 4.51354 2.91755 5.14282 2.91208C5.77209 2.90661 6.37834 3.14852 6.83098 3.5857L45.231 41.9857C45.6682 42.4383 45.9101 43.0446 45.9046 43.6739C45.8991 44.3031 45.6467 44.9051 45.2017 45.3501C44.7568 45.795 44.1548 46.0474 43.5255 46.0529C42.8963 46.0584 42.29 45.8165 41.8374 45.3793L3.43738 6.9793Z" fill="#A87E30"/>
</svg>
