<svg width="98" height="99" viewBox="0 0 98 99" fill="none" xmlns="http://www.w3.org/2000/svg">
<path d="M71.8862 24.1797C76.5602 25.0188 80.3937 27.5345 83.3903 31.7266C86.0269 35.4407 87.8249 40.1126 88.7823 45.7422C89.6228 50.8938 89.5598 56.0437 88.6024 61.1953C87.1644 69.6999 84.2883 76.8281 79.9743 82.5781C74.8198 89.5266 68.3497 93 60.5603 93C58.6418 93 56.5469 92.4016 54.2684 91.2031C52.7098 90.2454 50.973 89.7656 49.0545 89.7656C47.1359 89.7656 45.4009 90.2454 43.8406 91.2031C41.5621 92.4016 39.4671 93 37.5486 93C29.7592 93 23.2891 89.5266 18.1346 82.5781C13.8206 76.8281 10.9446 69.6999 9.50656 61.1953C8.54909 56.0437 8.48609 50.8938 9.32658 45.7422C10.2841 40.1126 12.082 35.4407 14.7187 31.7266C17.7153 27.5345 21.5487 25.0188 26.2227 24.1797C29.0987 23.6999 33.0528 24.1204 38.0867 25.4375C42.4007 26.636 46.0561 28.0735 49.0527 29.75C52.0493 28.0735 55.7046 26.636 60.0186 25.4375C65.0543 24.1204 69.0102 23.6999 71.8862 24.1797ZM61.9983 16.8125C60.3209 18.3704 58.1018 19.5078 55.3464 20.2266C53.4279 20.8249 51.333 21.125 49.0545 21.125L46.3584 20.9453C46.119 19.2688 46.119 17.3516 46.3584 15.1953C46.839 10.8828 48.2158 7.58914 50.4925 5.3125C52.1698 3.75461 54.3889 2.61719 57.1444 1.89844C59.0629 1.30008 61.1578 1 63.4363 1L66.1324 1.17969L66.3123 3.875C66.3123 6.15164 66.0118 8.2468 65.4143 10.1641C64.6962 12.9187 63.5587 15.136 61.9983 16.8125Z" fill="#923107"/>
<path d="M37 74.7773C37.503 71.6474 40.6218 65.3875 49.0727 65.3875C59.6362 65.3875 61.1453 72.8994 61.1453 74.7773" stroke="white" stroke-width="4" stroke-linecap="round" stroke-linejoin="bevel"/>
<path d="M69.5 54C69.5 54.3978 69.3419 54.7792 69.0605 55.0605C68.7838 55.3372 68.4103 55.493 68.0195 55.498L68.0205 55.5C68.015 55.5002 68.0094 55.4989 68.0039 55.499C68.0027 55.499 68.0012 55.5 68 55.5V55.499C67.8103 55.5041 67.6212 55.4725 67.4443 55.4033C67.2611 55.3316 67.0949 55.2224 66.9561 55.083L66.9541 55.0811L63.4971 51.5791L60.0039 55.0732C59.8746 55.2054 59.7206 55.3106 59.5508 55.3838C59.3786 55.458 59.1933 55.4978 59.0059 55.5H59C58.652 55.5 58.3167 55.3788 58.0498 55.1602L57.9395 55.0605C57.6603 54.7813 57.5033 54.4034 57.501 54.0088L57.5 54.0098C57.4964 53.8191 57.5323 53.6296 57.6045 53.4531C57.6767 53.2766 57.7837 53.1159 57.9199 52.9824H57.9209L61.4502 49.4971L57.917 45.9639L57.918 45.9629C57.6958 45.744 57.5528 45.4591 57.5117 45.1523L57.501 45.0186L57.5 45.0088V45C57.5 44.6022 57.6582 44.2207 57.9395 43.9395L58.0498 43.8398C58.3167 43.6212 58.652 43.5 59 43.5H59.0068L59.1445 43.5088C59.4642 43.5441 59.7648 43.6867 59.9941 43.916L63.5 47.4219L66.9863 43.9365V43.9375C67.1152 43.8031 67.2689 43.6951 67.4395 43.6201L67.5732 43.5693C67.709 43.5254 67.8509 43.5017 67.9941 43.5H68L68.1484 43.5078C68.4918 43.5419 68.8144 43.6934 69.0605 43.9395L69.1602 44.0498C69.3768 44.3142 69.4978 44.6457 69.5 44.9902L69.4951 45.1328C69.4833 45.2748 69.4506 45.4145 69.3965 45.5469C69.3243 45.7234 69.2163 45.8841 69.0801 46.0176L69.0791 46.0166L65.5488 49.502L69.0801 53.0322L69.1709 53.1309C69.3716 53.3688 69.4884 53.6679 69.5 53.9814V54Z" fill="white" stroke="white"/>
<path d="M41.5 54C41.5 54.3978 41.3419 54.7792 41.0605 55.0605C40.7838 55.3372 40.4103 55.493 40.0195 55.498L40.0205 55.5C40.015 55.5002 40.0094 55.4989 40.0039 55.499C40.0027 55.499 40.0012 55.5 40 55.5V55.499C39.8103 55.5041 39.6212 55.4725 39.4443 55.4033C39.2611 55.3316 39.0949 55.2224 38.9561 55.083L38.9541 55.0811L35.4971 51.5791L32.0039 55.0732C31.8746 55.2054 31.7206 55.3106 31.5508 55.3838C31.3786 55.458 31.1933 55.4978 31.0059 55.5H31C30.652 55.5 30.3167 55.3788 30.0498 55.1602L29.9395 55.0605C29.6603 54.7813 29.5033 54.4034 29.501 54.0088L29.5 54.0098C29.4964 53.8191 29.5323 53.6296 29.6045 53.4531C29.6767 53.2766 29.7837 53.1159 29.9199 52.9824H29.9209L33.4502 49.4971L29.917 45.9639L29.918 45.9629C29.6958 45.744 29.5528 45.4591 29.5117 45.1523L29.501 45.0186L29.5 45.0088V45C29.5 44.6022 29.6582 44.2207 29.9395 43.9395L30.0498 43.8398C30.3167 43.6212 30.652 43.5 31 43.5H31.0068L31.1445 43.5088C31.4642 43.5441 31.7648 43.6867 31.9941 43.916L35.5 47.4219L38.9863 43.9365V43.9375C39.1152 43.8031 39.2689 43.6951 39.4395 43.6201L39.5732 43.5693C39.709 43.5254 39.8509 43.5017 39.9941 43.5H40L40.1484 43.5078C40.4918 43.5419 40.8144 43.6934 41.0605 43.9395L41.1602 44.0498C41.3768 44.3142 41.4978 44.6457 41.5 44.9902L41.4951 45.1328C41.4833 45.2748 41.4506 45.4145 41.3965 45.5469C41.3243 45.7234 41.2163 45.8841 41.0801 46.0176L41.0791 46.0166L37.5488 49.502L41.0801 53.0322L41.1709 53.1309C41.3716 53.3688 41.4884 53.6679 41.5 53.9814V54Z" fill="white" stroke="white"/>
</svg>
