<svg width="34" height="36" viewBox="0 0 34 36" fill="none" xmlns="http://www.w3.org/2000/svg">
<path d="M9.5 2.48242H24.5C25.4946 2.48242 26.4484 2.85702 27.1516 3.52382C27.8549 4.19062 28.25 5.09499 28.25 6.03798V9.27353C28.2501 10.6535 28.589 12.0144 29.24 13.2486L31.01 16.6051C31.661 17.8393 31.9999 19.2003 32 20.5802V30.9269C32 31.8699 31.6049 32.7742 30.9016 33.441C30.1984 34.1078 29.2446 34.4824 28.25 34.4824H5.75C4.75544 34.4824 3.80161 34.1078 3.09835 33.441C2.39509 32.7742 2 31.8699 2 30.9269V20.5802C2.0001 19.2003 2.33905 17.8393 2.99 16.6051L5.75 11.3713V6.03798C5.75 5.09499 6.14509 4.19062 6.84835 3.52382C7.55161 2.85702 8.50544 2.48242 9.5 2.48242Z" stroke="#A87E30" stroke-width="3" stroke-linecap="round" stroke-linejoin="round"/>
<path d="M5.75 34.4824C6.74456 34.4824 7.69839 34.1078 8.40165 33.441C9.10491 32.7742 9.5 31.8698 9.5 30.9268V20.5802C9.4999 19.2002 9.16095 17.8393 8.51 16.6051L5.75 11.3713M15.125 9.59351H18.875M17 23.8157C17 24.7587 17.3951 25.6631 18.0984 26.3299C18.8016 26.9967 19.7554 27.3713 20.75 27.3713C21.7446 27.3713 22.6984 26.9967 23.4016 26.3299C24.1049 25.6631 24.5 24.7587 24.5 23.8157C24.5 22.8727 24.1049 21.9684 23.4016 21.3016C22.6984 20.6348 21.7446 20.2602 20.75 20.2602C19.7554 20.2602 18.8016 20.6348 18.0984 21.3016C17.3951 21.9684 17 22.8727 17 23.8157Z" stroke="#A87E30" stroke-width="3" stroke-linecap="round" stroke-linejoin="round"/>
</svg>
