<svg width="86" height="99" viewBox="0 0 86 99" fill="none" xmlns="http://www.w3.org/2000/svg">
<path d="M67.3209 25.2061C72.2997 26.0999 76.3832 28.7796 79.5752 33.2451C82.3838 37.2015 84.299 42.178 85.3189 48.1748C86.2142 53.6624 86.1471 59.1481 85.1272 64.6357C83.5954 73.695 80.5319 81.2881 75.9365 87.4131C70.4458 94.8148 63.5537 98.5146 55.2564 98.5146C53.2127 98.5146 50.9811 97.8773 48.5541 96.6006C46.8938 95.5804 45.0438 95.0693 43.0001 95.0693C40.9565 95.0693 39.1083 95.5804 37.4462 96.6006C35.0191 97.8773 32.7875 98.5146 30.7439 98.5146C22.4465 98.5146 15.5544 94.8148 10.0637 87.4131C5.46838 81.2881 2.4048 73.695 0.873006 64.6357C-0.14691 59.1481 -0.214009 53.6624 0.681292 48.1748C1.70121 42.178 3.61642 37.2015 6.42503 33.2451C9.61705 28.7796 13.7006 26.0999 18.6793 25.2061C21.7429 24.695 25.9549 25.1429 31.3171 26.5459C35.9125 27.8226 39.8062 29.3538 42.9982 31.1396C46.1902 29.3538 50.0839 27.8226 54.6793 26.5459C60.0434 25.1429 64.2573 24.695 67.3209 25.2061ZM56.7881 17.3584C55.0014 19.0179 52.6376 20.2295 49.7024 20.9951C47.6588 21.6325 45.4272 21.9521 43.0001 21.9521L40.1282 21.7607C39.8733 19.9749 39.8733 17.9326 40.1282 15.6357C40.6401 11.042 42.1067 7.53352 44.5319 5.1084C46.3187 3.44891 48.6825 2.2373 51.6176 1.47168C53.6613 0.834297 55.8928 0.514648 58.3199 0.514648L61.1918 0.706055L61.3835 3.57715C61.3835 6.00227 61.0634 8.23406 60.4269 10.2764C59.6619 13.2106 58.4503 15.5726 56.7881 17.3584Z" fill="#C7C7CC"/>
<path d="M31.1529 45.4877L42.9419 57.4868L54.6698 45.5499C54.9289 45.2693 55.2409 45.0448 55.5873 44.8899C55.9337 44.7349 56.3072 44.6528 56.6855 44.6484C57.4956 44.6484 58.2724 44.9759 58.8452 45.5589C59.4179 46.1419 59.7397 46.9326 59.7397 47.757C59.7468 48.1381 59.6773 48.5167 59.5355 48.8695C59.3937 49.2223 59.1826 49.5419 58.9151 49.8086L47.0344 61.7455L58.9151 73.8378C59.4184 74.339 59.7136 75.0177 59.7397 75.734C59.7397 76.5584 59.4179 77.3491 58.8452 77.9321C58.2724 78.515 57.4956 78.8426 56.6855 78.8426C56.2963 78.859 55.908 78.7929 55.5452 78.6484C55.1824 78.5039 54.8531 78.2842 54.5782 78.0032L42.9419 66.0042L31.1834 77.9722C30.9253 78.2435 30.6171 78.46 30.2763 78.6094C29.9356 78.7588 29.5692 78.8381 29.1982 78.8426C28.3882 78.8426 27.6114 78.515 27.0386 77.9321C26.4658 77.3491 26.1441 76.5584 26.1441 75.734C26.1369 75.3529 26.2064 74.9743 26.3482 74.6215C26.49 74.2687 26.7012 73.9491 26.9687 73.6824L38.8493 61.7455L26.9687 49.6532C26.4653 49.152 26.1701 48.4732 26.1441 47.757C26.1441 46.9326 26.4658 46.1419 27.0386 45.5589C27.6114 44.9759 28.3882 44.6484 29.1982 44.6484C29.9312 44.6578 30.6337 44.9593 31.1529 45.4877Z" fill="white"/>
</svg>
