<svg width="98" height="99" viewBox="0 0 98 99" fill="none" xmlns="http://www.w3.org/2000/svg">
<path d="M71.8862 24.6475C76.5602 25.4866 80.3937 28.0022 83.3903 32.1943C86.0269 35.9085 87.8249 40.5804 88.7823 46.21C89.6228 51.3616 89.5598 56.5114 88.6024 61.6631C87.1644 70.1677 84.2883 77.2959 79.9743 83.0459C74.8198 89.9944 68.3497 93.4678 60.5603 93.4678C58.6418 93.4678 56.5469 92.8694 54.2684 91.6709C52.7098 90.7132 50.973 90.2334 49.0545 90.2334C47.1359 90.2334 45.4009 90.7132 43.8406 91.6709C41.5621 92.8694 39.4671 93.4678 37.5486 93.4678C29.7592 93.4678 23.2891 89.9944 18.1346 83.0459C13.8206 77.2959 10.9446 70.1677 9.50656 61.6631C8.54909 56.5114 8.48609 51.3616 9.32658 46.21C10.2841 40.5804 12.082 35.9085 14.7187 32.1943C17.7153 28.0022 21.5487 25.4866 26.2227 24.6475C29.0987 24.1677 33.0528 24.5882 38.0867 25.9053C42.4007 27.1038 46.0561 28.5413 49.0527 30.2178C52.0493 28.5413 55.7046 27.1038 60.0186 25.9053C65.0543 24.5882 69.0102 24.1677 71.8862 24.6475ZM61.9983 17.2803C60.3209 18.8382 58.1018 19.9756 55.3464 20.6943C53.4279 21.2927 51.333 21.5928 49.0545 21.5928L46.3584 21.4131C46.119 19.7366 46.119 17.8193 46.3584 15.6631C46.839 11.3506 48.2158 8.05691 50.4925 5.78027C52.1698 4.22238 54.3889 3.08496 57.1444 2.36621C59.0629 1.76785 61.1578 1.46777 63.4363 1.46777L66.1324 1.64746L66.3123 4.34277C66.3123 6.61941 66.0118 8.71457 65.4143 10.6318C64.6962 13.3864 63.5587 15.6038 61.9983 17.2803Z" fill="#62C64E"/>
<circle cx="36.2379" cy="51.7706" r="4.69492" fill="#1E1E1E"/>
<circle cx="61.7242" cy="51.7706" r="4.69492" fill="#1E1E1E"/>
<path d="M39 73.9678L61.5 68.4678" stroke="#1E1E1E" stroke-width="4" stroke-linecap="round" stroke-linejoin="bevel"/>
</svg>
