<svg width="98" height="99" viewBox="0 0 98 99" fill="none" xmlns="http://www.w3.org/2000/svg">
<path d="M71.8862 24.1797C76.5602 25.0188 80.3937 27.5345 83.3903 31.7266C86.0269 35.4407 87.8249 40.1126 88.7823 45.7422C89.6228 50.8938 89.5598 56.0437 88.6024 61.1953C87.1644 69.6999 84.2883 76.8281 79.9743 82.5781C74.8198 89.5266 68.3497 93 60.5603 93C58.6418 93 56.5469 92.4016 54.2684 91.2031C52.7098 90.2454 50.973 89.7656 49.0545 89.7656C47.1359 89.7656 45.4009 90.2454 43.8406 91.2031C41.5621 92.4016 39.4671 93 37.5486 93C29.7592 93 23.2891 89.5266 18.1346 82.5781C13.8206 76.8281 10.9446 69.6999 9.50656 61.1953C8.54909 56.0437 8.48609 50.8938 9.32658 45.7422C10.2841 40.1126 12.082 35.4407 14.7187 31.7266C17.7153 27.5345 21.5487 25.0188 26.2227 24.1797C29.0987 23.6999 33.0528 24.1204 38.0867 25.4375C42.4007 26.636 46.0561 28.0735 49.0527 29.75C52.0493 28.0735 55.7046 26.636 60.0186 25.4375C65.0543 24.1204 69.0102 23.6999 71.8862 24.1797ZM61.9983 16.8125C60.3209 18.3704 58.1018 19.5078 55.3464 20.2266C53.4279 20.8249 51.333 21.125 49.0545 21.125L46.3584 20.9453C46.119 19.2688 46.119 17.3516 46.3584 15.1953C46.839 10.8828 48.2158 7.58914 50.4925 5.3125C52.1698 3.75461 54.3889 2.61719 57.1444 1.89844C59.0629 1.30008 61.1578 1 63.4363 1L66.1324 1.17969L66.3123 3.875C66.3123 6.15164 66.0118 8.2468 65.4143 10.1641C64.6962 12.9187 63.5587 15.136 61.9983 16.8125Z" fill="#62C64E"/>
<circle cx="36.2379" cy="51.3028" r="4.69492" fill="white"/>
<circle cx="61.7247" cy="51.3028" r="4.69492" fill="white"/>
<path d="M39 73.5L61.5 68" stroke="white" stroke-width="4" stroke-linecap="round" stroke-linejoin="bevel"/>
</svg>
