<svg width="240" height="240" viewBox="0 0 240 240" fill="none" xmlns="http://www.w3.org/2000/svg">
<g clip-path="url(#clip0_467_3210)">
<rect width="240" height="240" fill="#FEF2DD"/>
<path d="M195.201 177.188C195.201 189.06 202.811 202.428 206.616 207.628L148.019 245.298C146.37 242.761 142.311 236.47 139.267 231.6C135.462 225.512 134.32 226.653 122.905 220.565C111.49 214.477 98.1727 203.823 95.1287 197.735C92.6935 192.865 75.3426 182.261 66.9715 177.568C63.6738 177.315 57.0785 174.829 57.0785 166.914C57.0785 159 64.4348 156.768 68.113 156.641L66.2105 156.26C61.264 155.88 53.2735 152.836 53.2734 144.845C53.2734 133.883 62.786 132.669 67.7325 133.43L58.9811 130.006C46.4244 120.113 57.8396 107.937 65.4496 109.839H73.4402L66.2106 101.848C56.1653 93.934 62.7861 83.5843 67.3521 83.5843C101.09 95.8872 168.033 119.352 165.902 114.786C163.239 109.078 161.717 95.7604 164 83.5843C166.283 71.4082 178.078 73.3107 178.839 81.3013C179.6 89.2918 186.449 108.317 193.679 128.103C200.908 147.889 197.864 161.207 195.201 177.188Z" fill="#C17244"/>
<path d="M195.199 177.188C195.199 189.06 202.809 202.428 206.614 207.628L148.017 245.298C146.368 242.761 142.309 236.47 139.265 231.6C135.46 225.512 134.319 226.653 122.904 220.565L178.838 202.301L165.901 114.786C163.237 109.078 161.715 95.7604 163.998 83.5843C166.281 71.4082 178.077 73.3107 178.838 81.3013C179.599 89.2918 186.448 108.317 193.677 128.103C200.907 147.889 197.863 161.207 195.199 177.188Z" fill="#C17244"/>
<rect x="65.6724" y="24.2319" width="100.764" height="173.884" rx="14.2674" fill="#1E1E1E"/>
<rect x="71.8662" y="30.6941" width="88.2797" height="159.617" rx="8.91714" fill="#FEF2DD"/>
<rect x="81" y="58.3474" width="71.0316" height="71.0316" rx="35.5158" fill="#277C23"/>
<path fill-rule="evenodd" clip-rule="evenodd" d="M133.467 81.6294C133.966 82.1289 134.247 82.8063 134.247 83.5126C134.247 84.219 133.966 84.8963 133.467 85.3959L113.502 105.361C113.238 105.625 112.925 105.834 112.58 105.977C112.235 106.12 111.866 106.193 111.493 106.193C111.119 106.193 110.75 106.12 110.405 105.977C110.06 105.834 109.747 105.625 109.483 105.361L99.5637 95.4433C99.3093 95.1976 99.1063 94.9036 98.9667 94.5787C98.8271 94.2537 98.7537 93.9041 98.7506 93.5505C98.7475 93.1968 98.8149 92.846 98.9488 92.5187C99.0828 92.1913 99.2806 91.8939 99.5307 91.6438C99.7808 91.3937 100.078 91.1959 100.406 91.062C100.733 90.9281 101.084 90.8607 101.437 90.8637C101.791 90.8668 102.141 90.9403 102.466 91.0799C102.79 91.2195 103.084 91.4224 103.33 91.6768L111.492 99.8384L129.699 81.6294C129.946 81.3819 130.24 81.1855 130.563 81.0516C130.886 80.9176 131.233 80.8486 131.583 80.8486C131.933 80.8486 132.279 80.9176 132.603 81.0516C132.926 81.1855 133.22 81.3819 133.467 81.6294Z" fill="white" stroke="white" stroke-width="1.77579"/>
<rect x="79" y="136.99" width="74.8212" height="25.1761" rx="6.08804" fill="#277C23"/>
<path d="M98.5296 154.21C97.8136 154.21 97.1418 154.078 96.5142 153.812C95.8954 153.538 95.3518 153.163 94.8833 152.685C94.4236 152.199 94.0612 151.633 93.796 150.988C93.5396 150.343 93.4115 149.645 93.4115 148.893C93.4115 148.151 93.5396 147.461 93.796 146.825C94.0612 146.179 94.4236 145.618 94.8833 145.141C95.3518 144.655 95.8954 144.274 96.5142 144C97.133 143.726 97.8048 143.589 98.5296 143.589C99.2103 143.589 99.7937 143.678 100.28 143.855C100.775 144.031 101.27 144.323 101.765 144.73C101.836 144.783 101.889 144.84 101.924 144.902C101.968 144.955 101.995 145.013 102.004 145.074C102.021 145.128 102.03 145.194 102.03 145.273C102.03 145.441 101.968 145.583 101.844 145.698C101.73 145.813 101.584 145.874 101.407 145.883C101.239 145.892 101.08 145.835 100.93 145.711C100.603 145.428 100.262 145.211 99.9086 145.061C99.5639 144.911 99.1042 144.836 98.5296 144.836C98.0081 144.836 97.5175 144.942 97.0578 145.154C96.5982 145.366 96.1915 145.658 95.838 146.029C95.4932 146.4 95.2236 146.834 95.0291 147.329C94.8347 147.815 94.7374 148.336 94.7374 148.893C94.7374 149.459 94.8347 149.989 95.0291 150.484C95.2236 150.971 95.4932 151.399 95.838 151.77C96.1915 152.142 96.5982 152.433 97.0578 152.646C97.5175 152.849 98.0081 152.951 98.5296 152.951C98.9804 152.951 99.4047 152.875 99.8025 152.725C100.209 152.566 100.598 152.349 100.969 152.075C101.128 151.961 101.283 151.912 101.433 151.93C101.593 151.938 101.725 152 101.831 152.115C101.937 152.221 101.99 152.372 101.99 152.566C101.99 152.654 101.973 152.743 101.937 152.831C101.911 152.911 101.858 152.986 101.778 153.057C101.31 153.446 100.801 153.737 100.253 153.932C99.7053 154.117 99.1307 154.21 98.5296 154.21ZM101.99 152.566L100.664 152.301V149.927H98.8346C98.6401 149.927 98.4766 149.87 98.344 149.755C98.2114 149.64 98.1451 149.494 98.1451 149.317C98.1451 149.141 98.2114 148.995 98.344 148.88C98.4766 148.765 98.6401 148.708 98.8346 148.708H101.314C101.517 148.708 101.681 148.774 101.805 148.906C101.928 149.03 101.99 149.194 101.99 149.397V152.566ZM109.93 154.21C109.152 154.21 108.44 154.082 107.795 153.826C107.15 153.561 106.593 153.194 106.124 152.725C105.665 152.248 105.307 151.687 105.05 151.041C104.794 150.387 104.666 149.671 104.666 148.893C104.666 148.115 104.794 147.404 105.05 146.758C105.307 146.113 105.665 145.556 106.124 145.088C106.593 144.61 107.15 144.244 107.795 143.987C108.44 143.722 109.152 143.589 109.93 143.589C110.708 143.589 111.415 143.722 112.051 143.987C112.697 144.244 113.253 144.61 113.722 145.088C114.19 145.556 114.553 146.113 114.809 146.758C115.066 147.404 115.194 148.115 115.194 148.893C115.194 149.671 115.066 150.387 114.809 151.041C114.553 151.687 114.19 152.248 113.722 152.725C113.253 153.194 112.697 153.561 112.051 153.826C111.415 154.082 110.708 154.21 109.93 154.21ZM109.93 152.964C110.504 152.964 111.03 152.862 111.508 152.659C111.994 152.447 112.414 152.159 112.767 151.797C113.121 151.426 113.39 150.993 113.576 150.498C113.771 150.003 113.868 149.468 113.868 148.893C113.868 148.319 113.771 147.784 113.576 147.289C113.39 146.794 113.121 146.365 112.767 146.003C112.414 145.631 111.994 145.344 111.508 145.141C111.03 144.937 110.504 144.836 109.93 144.836C109.355 144.836 108.825 144.937 108.339 145.141C107.861 145.344 107.446 145.631 107.092 146.003C106.747 146.365 106.478 146.794 106.283 147.289C106.089 147.784 105.992 148.319 105.992 148.893C105.992 149.468 106.089 150.003 106.283 150.498C106.478 150.993 106.747 151.426 107.092 151.797C107.446 152.159 107.861 152.447 108.339 152.659C108.825 152.862 109.355 152.964 109.93 152.964ZM122.828 154.21C122.051 154.21 121.339 154.082 120.694 153.826C120.048 153.561 119.492 153.194 119.023 152.725C118.563 152.248 118.205 151.687 117.949 151.041C117.693 150.387 117.564 149.671 117.564 148.893C117.564 148.115 117.693 147.404 117.949 146.758C118.205 146.113 118.563 145.556 119.023 145.088C119.492 144.61 120.048 144.244 120.694 143.987C121.339 143.722 122.051 143.589 122.828 143.589C123.606 143.589 124.314 143.722 124.95 143.987C125.595 144.244 126.152 144.61 126.621 145.088C127.089 145.556 127.452 146.113 127.708 146.758C127.964 147.404 128.092 148.115 128.092 148.893C128.092 149.671 127.964 150.387 127.708 151.041C127.452 151.687 127.089 152.248 126.621 152.725C126.152 153.194 125.595 153.561 124.95 153.826C124.314 154.082 123.606 154.21 122.828 154.21ZM122.828 152.964C123.403 152.964 123.929 152.862 124.406 152.659C124.893 152.447 125.312 152.159 125.666 151.797C126.02 151.426 126.289 150.993 126.475 150.498C126.669 150.003 126.767 149.468 126.767 148.893C126.767 148.319 126.669 147.784 126.475 147.289C126.289 146.794 126.02 146.365 125.666 146.003C125.312 145.631 124.893 145.344 124.406 145.141C123.929 144.937 123.403 144.836 122.828 144.836C122.254 144.836 121.724 144.937 121.237 145.141C120.76 145.344 120.345 145.631 119.991 146.003C119.646 146.365 119.377 146.794 119.182 147.289C118.988 147.784 118.89 148.319 118.89 148.893C118.89 149.468 118.988 150.003 119.182 150.498C119.377 150.993 119.646 151.426 119.991 151.797C120.345 152.159 120.76 152.447 121.237 152.659C121.724 152.862 122.254 152.964 122.828 152.964ZM131.889 154.078C131.695 154.078 131.531 154.011 131.398 153.879C131.266 153.746 131.2 153.583 131.2 153.388V144.411C131.2 144.208 131.266 144.045 131.398 143.921C131.531 143.788 131.695 143.722 131.889 143.722H134.289C135.049 143.722 135.739 143.85 136.357 144.107C136.985 144.354 137.529 144.712 137.988 145.181C138.448 145.64 138.802 146.184 139.049 146.811C139.297 147.439 139.42 148.133 139.42 148.893C139.42 149.653 139.297 150.352 139.049 150.988C138.802 151.616 138.448 152.164 137.988 152.632C137.529 153.092 136.985 153.45 136.357 153.706C135.739 153.954 135.049 154.078 134.289 154.078H131.889ZM132.579 152.858H134.289C135.032 152.858 135.686 152.69 136.251 152.354C136.826 152.009 137.277 151.541 137.604 150.948C137.931 150.347 138.094 149.662 138.094 148.893C138.094 148.115 137.931 147.43 137.604 146.838C137.277 146.246 136.826 145.782 136.251 145.446C135.686 145.11 135.032 144.942 134.289 144.942H132.579V152.858Z" fill="white"/>
<path d="M96.5142 153.812L96.3224 154.246L96.3299 154.249L96.5142 153.812ZM94.8833 152.685L94.5391 153.011L94.5453 153.017L94.8833 152.685ZM93.796 150.988L93.3559 151.163L93.358 151.168L93.796 150.988ZM93.796 146.825L93.358 146.645L93.3567 146.648L93.796 146.825ZM94.8833 145.141L94.5423 144.812L94.5422 144.812L94.8833 145.141ZM96.5142 144L96.3224 143.567L96.3224 143.567L96.5142 144ZM100.28 143.855L100.118 144.3L100.121 144.301L100.28 143.855ZM101.765 144.73L101.464 145.096L101.472 145.102L101.481 145.109L101.765 144.73ZM101.924 144.902L101.513 145.137L101.534 145.173L101.56 145.205L101.924 144.902ZM102.004 145.074L101.535 145.141L101.541 145.184L101.554 145.224L102.004 145.074ZM101.844 145.698L101.522 145.351L101.516 145.357L101.51 145.363L101.844 145.698ZM101.407 145.883L101.383 145.41L101.382 145.41L101.407 145.883ZM100.93 145.711L100.62 146.069L100.629 146.076L100.93 145.711ZM99.9086 145.061L99.7194 145.495L99.7234 145.497L99.9086 145.061ZM95.838 146.029L95.495 145.703L95.4909 145.707L95.838 146.029ZM95.0291 147.329L95.4688 147.504L95.4699 147.502L95.0291 147.329ZM95.0291 150.484L94.5884 150.657L94.5894 150.66L95.0291 150.484ZM95.838 151.77L95.4909 152.093L95.495 152.097L95.838 151.77ZM97.0578 152.646L96.8594 153.076L96.8663 153.079L97.0578 152.646ZM99.8025 152.725L99.9699 153.168L99.9751 153.166L99.8025 152.725ZM100.969 152.075L100.692 151.692L100.688 151.694L100.969 152.075ZM101.433 151.93L101.378 152.4L101.393 152.402L101.407 152.402L101.433 151.93ZM101.831 152.115L101.483 152.436L101.49 152.443L101.496 152.45L101.831 152.115ZM101.937 152.831L101.498 152.655L101.492 152.668L101.488 152.681L101.937 152.831ZM101.778 153.057L102.081 153.421L102.087 153.416L102.093 153.411L101.778 153.057ZM100.253 153.932L100.405 154.38L100.412 154.378L100.253 153.932ZM101.99 152.566L101.897 153.03L102.464 153.144V152.566H101.99ZM100.664 152.301H100.191V152.689L100.572 152.765L100.664 152.301ZM100.664 149.927H101.138V149.454H100.664V149.927ZM98.344 149.755L98.0338 150.113L98.0338 150.113L98.344 149.755ZM98.344 148.88L98.0338 148.522L98.0338 148.522L98.344 148.88ZM101.805 148.906L101.459 149.23L101.464 149.236L101.47 149.241L101.805 148.906ZM98.5296 154.21V153.737C97.8737 153.737 97.2648 153.616 96.6985 153.376L96.5142 153.812L96.3299 154.249C97.0188 154.54 97.7536 154.684 98.5296 154.684V154.21ZM96.5142 153.812L96.7059 153.379C96.1412 153.129 95.6473 152.788 95.2212 152.354L94.8833 152.685L94.5453 153.017C95.0562 153.538 95.6496 153.947 96.3224 154.245L96.5142 153.812ZM94.8833 152.685L95.2274 152.36C94.8094 151.918 94.478 151.402 94.234 150.808L93.796 150.988L93.358 151.168C93.6443 151.865 94.0378 152.48 94.5392 153.011L94.8833 152.685ZM93.796 150.988L94.2361 150.813C94.0036 150.228 93.885 149.59 93.885 148.893H93.4115H92.9379C92.9379 149.699 93.0757 150.458 93.3559 151.163L93.796 150.988ZM93.4115 148.893H93.885C93.885 148.206 94.0034 147.577 94.2353 147.002L93.796 146.825L93.3567 146.648C93.0759 147.345 92.9379 148.095 92.9379 148.893H93.4115ZM93.796 146.825L94.234 147.005C94.4777 146.412 94.8082 145.901 95.2244 145.469L94.8833 145.141L94.5422 144.812C94.039 145.335 93.6446 145.947 93.358 146.645L93.796 146.825ZM94.8833 145.141L95.2243 145.469C95.6501 145.027 96.1431 144.683 96.7059 144.433L96.5142 144L96.3224 143.567C95.6478 143.866 95.0534 144.282 94.5423 144.812L94.8833 145.141ZM96.5142 144L96.7059 144.433C97.2601 144.188 97.8661 144.063 98.5296 144.063V143.589V143.116C97.7435 143.116 97.0058 143.265 96.3224 143.567L96.5142 144ZM98.5296 143.589V144.063C99.1715 144.063 99.6972 144.147 100.118 144.3L100.28 143.855L100.442 143.41C99.8902 143.209 99.249 143.116 98.5296 143.116V143.589ZM100.28 143.855L100.121 144.301C100.554 144.455 101.003 144.716 101.464 145.096L101.765 144.73L102.066 144.364C101.537 143.93 100.995 143.607 100.439 143.409L100.28 143.855ZM101.765 144.73L101.481 145.109C101.512 145.132 101.516 145.143 101.513 145.137L101.924 144.902L102.335 144.667C102.261 144.537 102.159 144.434 102.049 144.351L101.765 144.73ZM101.924 144.902L101.56 145.205C101.558 145.203 101.553 145.196 101.547 145.183C101.541 145.171 101.537 145.157 101.535 145.141L102.004 145.074L102.472 145.007C102.45 144.85 102.382 144.712 102.288 144.599L101.924 144.902ZM102.004 145.074L101.554 145.224C101.552 145.218 101.553 145.217 101.554 145.227C101.555 145.236 101.557 145.251 101.557 145.273H102.03H102.504C102.504 145.163 102.492 145.042 102.453 144.925L102.004 145.074ZM102.03 145.273H101.557C101.557 145.309 101.55 145.325 101.522 145.351L101.844 145.698L102.167 146.045C102.386 145.841 102.504 145.574 102.504 145.273H102.03ZM101.844 145.698L101.51 145.363C101.485 145.387 101.454 145.407 101.383 145.41L101.407 145.883L101.431 146.356C101.713 146.342 101.974 146.238 102.179 146.033L101.844 145.698ZM101.407 145.883L101.382 145.41C101.351 145.412 101.305 145.407 101.231 145.345L100.93 145.711L100.629 146.076C100.855 146.263 101.127 146.372 101.432 146.356L101.407 145.883ZM100.93 145.711L101.239 145.353C100.88 145.042 100.498 144.797 100.094 144.625L99.9086 145.061L99.7234 145.497C100.026 145.626 100.325 145.814 100.62 146.069L100.93 145.711ZM99.9086 145.061L100.098 144.627C99.6704 144.441 99.1383 144.362 98.5296 144.362V144.836V145.309C99.0701 145.309 99.4574 145.381 99.7194 145.495L99.9086 145.061ZM98.5296 144.836V144.362C97.9417 144.362 97.3832 144.482 96.8594 144.724L97.0578 145.154L97.2563 145.584C97.6518 145.401 98.0745 145.309 98.5296 145.309V144.836ZM97.0578 145.154L96.8594 144.724C96.3448 144.962 95.8893 145.289 95.495 145.703L95.838 146.029L96.1809 146.356C96.4938 146.027 96.8516 145.771 97.2563 145.584L97.0578 145.154ZM95.838 146.029L95.4909 145.707C95.1039 146.124 94.8034 146.608 94.5884 147.155L95.0291 147.329L95.4699 147.502C95.6438 147.059 95.8825 146.677 96.185 146.351L95.838 146.029ZM95.0291 147.329L94.5894 147.153C94.3712 147.698 94.2639 148.28 94.2639 148.893H94.7374H95.211C95.211 148.393 95.2981 147.931 95.4688 147.504L95.0291 147.329ZM94.7374 148.893H94.2639C94.2639 149.514 94.3709 150.104 94.5884 150.657L95.0291 150.484L95.4699 150.311C95.2984 149.875 95.211 149.403 95.211 148.893H94.7374ZM95.0291 150.484L94.5894 150.66C94.8048 151.199 95.1052 151.677 95.4909 152.093L95.838 151.77L96.185 151.448C95.8812 151.121 95.6424 150.742 95.4688 150.308L95.0291 150.484ZM95.838 151.77L95.495 152.097C95.8893 152.511 96.3448 152.838 96.8594 153.076L97.0578 152.646L97.2563 152.216C96.8516 152.029 96.4938 151.772 96.1809 151.444L95.838 151.77ZM97.0578 152.646L96.8663 153.079C97.3885 153.31 97.9447 153.424 98.5296 153.424V152.951V152.477C98.0715 152.477 97.6464 152.388 97.2494 152.213L97.0578 152.646ZM98.5296 152.951V153.424C99.0341 153.424 99.5155 153.34 99.9699 153.168L99.8025 152.725L99.6352 152.282C99.294 152.411 98.9267 152.477 98.5296 152.477V152.951ZM99.8025 152.725L99.9751 153.166C100.423 152.991 100.848 152.754 101.251 152.456L100.969 152.075L100.688 151.694C100.348 151.945 99.9958 152.141 99.63 152.284L99.8025 152.725ZM100.969 152.075L101.247 152.459C101.339 152.393 101.377 152.4 101.378 152.4L101.433 151.93L101.489 151.459C101.189 151.424 100.918 151.528 100.692 151.692L100.969 152.075ZM101.433 151.93L101.407 152.402C101.446 152.405 101.462 152.414 101.483 152.436L101.831 152.115L102.179 151.794C101.988 151.587 101.739 151.472 101.46 151.457L101.433 151.93ZM101.831 152.115L101.496 152.45C101.497 152.451 101.498 152.451 101.498 152.453C101.499 152.454 101.501 152.458 101.504 152.465C101.509 152.48 101.517 152.511 101.517 152.566H101.99H102.464C102.464 152.285 102.385 151.999 102.166 151.78L101.831 152.115ZM101.99 152.566H101.517C101.517 152.59 101.512 152.619 101.498 152.655L101.937 152.831L102.377 153.007C102.433 152.867 102.464 152.719 102.464 152.566H101.99ZM101.937 152.831L101.488 152.681C101.494 152.664 101.498 152.673 101.464 152.703L101.778 153.057L102.093 153.411C102.218 153.299 102.328 153.158 102.387 152.981L101.937 152.831ZM101.778 153.057L101.476 152.692C101.048 153.047 100.588 153.311 100.095 153.485L100.253 153.932L100.412 154.378C101.015 154.164 101.571 153.844 102.081 153.421L101.778 153.057ZM100.253 153.932L100.101 153.483C99.6042 153.652 99.0811 153.737 98.5296 153.737V154.21V154.684C99.1804 154.684 99.8064 154.583 100.405 154.38L100.253 153.932ZM101.99 152.566L102.083 152.102L100.757 151.837L100.664 152.301L100.572 152.765L101.897 153.03L101.99 152.566ZM100.664 152.301H101.138V149.927H100.664H100.191V152.301H100.664ZM100.664 149.927V149.454H98.8346V149.927V150.401H100.664V149.927ZM98.8346 149.927V149.454C98.7408 149.454 98.6911 149.429 98.6541 149.397L98.344 149.755L98.0338 150.113C98.262 150.311 98.5394 150.401 98.8346 150.401V149.927ZM98.344 149.755L98.6541 149.397C98.6344 149.38 98.6283 149.369 98.6259 149.364C98.6235 149.358 98.6186 149.345 98.6186 149.317H98.1451H97.6715C97.6715 149.63 97.7966 149.907 98.0338 150.113L98.344 149.755ZM98.1451 149.317H98.6186C98.6186 149.29 98.6235 149.277 98.6259 149.271C98.6283 149.266 98.6344 149.255 98.6541 149.238L98.344 148.88L98.0338 148.522C97.7966 148.728 97.6715 149.005 97.6715 149.317H98.1451ZM98.344 148.88L98.6541 149.238C98.6911 149.206 98.7408 149.181 98.8346 149.181V148.708V148.234C98.5394 148.234 98.262 148.324 98.0338 148.522L98.344 148.88ZM98.8346 148.708V149.181H101.314V148.708V148.234H98.8346V148.708ZM101.314 148.708V149.181C101.404 149.181 101.436 149.205 101.459 149.23L101.805 148.906L102.151 148.583C101.926 148.343 101.631 148.234 101.314 148.234V148.708ZM101.805 148.906L101.47 149.241C101.49 149.262 101.517 149.297 101.517 149.397H101.99H102.464C102.464 149.09 102.367 148.799 102.14 148.572L101.805 148.906ZM101.99 149.397H101.517V152.566H101.99H102.464V149.397H101.99ZM107.795 153.826L107.615 154.264L107.62 154.266L107.795 153.826ZM106.124 152.725L105.783 153.054L105.789 153.06L106.124 152.725ZM105.05 151.041L104.609 151.214L104.61 151.216L105.05 151.041ZM105.05 146.758L104.61 146.584L105.05 146.758ZM106.124 145.088L105.786 144.756L105.786 144.756L106.124 145.088ZM107.795 143.987L107.97 144.427L107.975 144.425L107.795 143.987ZM112.051 143.987L111.869 144.424L111.876 144.427L112.051 143.987ZM113.722 145.088L113.384 145.419L113.387 145.423L113.722 145.088ZM114.809 146.758L115.249 146.584V146.584L114.809 146.758ZM114.809 151.041L115.249 151.216L115.25 151.214L114.809 151.041ZM113.722 152.725L114.057 153.06L114.06 153.057L113.722 152.725ZM112.051 153.826L112.228 154.265L112.231 154.264L112.051 153.826ZM111.508 152.659L111.693 153.095L111.697 153.093L111.508 152.659ZM112.767 151.797L113.106 152.128L113.11 152.124L112.767 151.797ZM113.576 150.498L113.135 150.324L113.133 150.331L113.576 150.498ZM113.576 147.289L113.133 147.455L113.135 147.462L113.576 147.289ZM112.767 146.003L112.424 146.329L112.428 146.333L112.767 146.003ZM111.508 145.141L111.322 145.576L111.325 145.578L111.508 145.141ZM108.339 145.141L108.156 144.704L108.153 144.705L108.339 145.141ZM107.092 146.003L106.749 145.676L106.749 145.676L107.092 146.003ZM107.092 151.797L106.745 152.119L106.753 152.128L107.092 151.797ZM108.339 152.659L108.146 153.092L108.156 153.096L108.339 152.659ZM109.93 154.21V153.737C109.205 153.737 108.553 153.617 107.97 153.386L107.795 153.826L107.62 154.266C108.327 154.547 109.099 154.684 109.93 154.684V154.21ZM107.795 153.826L107.975 153.388C107.384 153.145 106.881 152.812 106.459 152.39L106.124 152.725L105.789 153.06C106.305 153.575 106.915 153.976 107.615 154.264L107.795 153.826ZM106.124 152.725L106.465 152.397C106.05 151.966 105.725 151.457 105.49 150.866L105.05 151.041L104.61 151.216C104.888 151.916 105.279 152.53 105.783 153.054L106.124 152.725ZM105.05 151.041L105.491 150.868C105.259 150.275 105.139 149.618 105.139 148.893H104.666H104.192C104.192 149.724 104.329 150.499 104.609 151.214L105.05 151.041ZM104.666 148.893H105.139C105.139 148.168 105.259 147.517 105.49 146.933L105.05 146.758L104.61 146.584C104.329 147.291 104.192 148.063 104.192 148.893H104.666ZM105.05 146.758L105.49 146.933C105.725 146.343 106.049 145.84 106.462 145.419L106.124 145.088L105.786 144.756C105.28 145.272 104.888 145.883 104.61 146.584L105.05 146.758ZM106.124 145.088L106.462 145.419C106.883 144.991 107.383 144.66 107.97 144.427L107.795 143.987L107.62 143.547C106.916 143.827 106.303 144.23 105.786 144.756L106.124 145.088ZM107.795 143.987L107.975 144.425C108.557 144.186 109.206 144.063 109.93 144.063V143.589V143.116C109.097 143.116 108.324 143.258 107.615 143.549L107.795 143.987ZM109.93 143.589V144.063C110.653 144.063 111.297 144.186 111.869 144.424L112.051 143.987L112.233 143.55C111.532 143.258 110.762 143.116 109.93 143.116V143.589ZM112.051 143.987L111.876 144.427C112.463 144.66 112.963 144.991 113.384 145.419L113.722 145.088L114.06 144.756C113.543 144.23 112.93 143.827 112.226 143.547L112.051 143.987ZM113.722 145.088L113.387 145.423C113.808 145.843 114.135 146.345 114.369 146.933L114.809 146.758L115.249 146.584C114.97 145.881 114.573 145.269 114.057 144.753L113.722 145.088ZM114.809 146.758L114.369 146.933C114.601 147.517 114.72 148.168 114.72 148.893H115.194H115.667C115.667 148.063 115.53 147.291 115.249 146.584L114.809 146.758ZM115.194 148.893H114.72C114.72 149.618 114.601 150.275 114.368 150.868L114.809 151.041L115.25 151.214C115.53 150.499 115.667 149.724 115.667 148.893H115.194ZM114.809 151.041L114.369 150.866C114.135 151.455 113.807 151.963 113.384 152.393L113.722 152.725L114.06 153.057C114.574 152.533 114.971 151.918 115.249 151.216L114.809 151.041ZM113.722 152.725L113.387 152.39C112.965 152.812 112.462 153.145 111.871 153.388L112.051 153.826L112.231 154.264C112.931 153.976 113.542 153.575 114.057 153.06L113.722 152.725ZM112.051 153.826L111.874 153.386C111.301 153.617 110.655 153.737 109.93 153.737V154.21V154.684C110.76 154.684 111.528 154.547 112.228 154.265L112.051 153.826ZM109.93 152.964V153.437C110.561 153.437 111.151 153.325 111.693 153.095L111.508 152.659L111.322 152.223C110.909 152.399 110.447 152.49 109.93 152.49V152.964ZM111.508 152.659L111.697 153.093C112.237 152.857 112.708 152.536 113.106 152.128L112.767 151.797L112.428 151.466C112.119 151.783 111.751 152.036 111.318 152.225L111.508 152.659ZM112.767 151.797L113.11 152.124C113.509 151.705 113.812 151.217 114.019 150.664L113.576 150.498L113.133 150.331C112.969 150.769 112.733 151.147 112.424 151.47L112.767 151.797ZM113.576 150.498L114.017 150.671C114.235 150.116 114.341 149.522 114.341 148.893H113.868H113.394C113.394 149.413 113.306 149.889 113.135 150.324L113.576 150.498ZM113.868 148.893H114.341C114.341 148.264 114.235 147.67 114.017 147.116L113.576 147.289L113.135 147.462C113.306 147.898 113.394 148.373 113.394 148.893H113.868ZM113.576 147.289L114.019 147.123C113.812 146.569 113.508 146.083 113.106 145.672L112.767 146.003L112.428 146.333C112.734 146.647 112.969 147.019 113.133 147.455L113.576 147.289ZM112.767 146.003L113.11 145.676C112.71 145.256 112.235 144.932 111.69 144.704L111.508 145.141L111.325 145.578C111.752 145.756 112.117 146.007 112.424 146.329L112.767 146.003ZM111.508 145.141L111.693 144.705C111.151 144.474 110.561 144.362 109.93 144.362V144.836V145.309C110.447 145.309 110.909 145.401 111.322 145.576L111.508 145.141ZM109.93 144.836V144.362C109.298 144.362 108.705 144.474 108.156 144.704L108.339 145.141L108.521 145.578C108.945 145.401 109.412 145.309 109.93 145.309V144.836ZM108.339 145.141L108.153 144.705C107.617 144.933 107.148 145.258 106.749 145.676L107.092 146.003L107.435 146.329C107.744 146.005 108.105 145.755 108.524 145.576L108.339 145.141ZM107.092 146.003L106.749 145.676C106.36 146.086 106.058 146.567 105.843 147.116L106.283 147.289L106.724 147.462C106.898 147.02 107.135 146.644 107.435 146.329L107.092 146.003ZM106.283 147.289L105.843 147.116C105.625 147.67 105.518 148.264 105.518 148.893H105.992H106.465C106.465 148.373 106.553 147.898 106.724 147.462L106.283 147.289ZM105.992 148.893H105.518C105.518 149.522 105.625 150.116 105.843 150.671L106.283 150.498L106.724 150.324C106.553 149.889 106.465 149.413 106.465 148.893H105.992ZM106.283 150.498L105.843 150.671C106.058 151.218 106.358 151.702 106.745 152.119L107.092 151.797L107.439 151.475C107.137 151.149 106.898 150.767 106.724 150.324L106.283 150.498ZM107.092 151.797L106.753 152.128C107.15 152.535 107.616 152.856 108.146 153.092L108.339 152.659L108.531 152.226C108.107 152.038 107.741 151.784 107.431 151.466L107.092 151.797ZM108.339 152.659L108.156 153.096C108.705 153.325 109.298 153.437 109.93 153.437V152.964V152.49C109.412 152.49 108.945 152.399 108.521 152.222L108.339 152.659ZM120.694 153.826L120.514 154.264L120.519 154.266L120.694 153.826ZM119.023 152.725L118.682 153.054L118.688 153.06L119.023 152.725ZM117.949 151.041L117.508 151.214L117.509 151.216L117.949 151.041ZM117.949 146.758L117.509 146.584L117.949 146.758ZM119.023 145.088L118.685 144.756L118.685 144.756L119.023 145.088ZM120.694 143.987L120.869 144.427L120.874 144.425L120.694 143.987ZM124.95 143.987L124.768 144.424L124.775 144.427L124.95 143.987ZM126.621 145.088L126.283 145.419L126.286 145.423L126.621 145.088ZM127.708 146.758L128.148 146.584V146.584L127.708 146.758ZM127.708 151.041L128.148 151.216L128.149 151.214L127.708 151.041ZM126.621 152.725L126.956 153.06L126.959 153.057L126.621 152.725ZM124.95 153.826L125.127 154.265L125.13 154.264L124.95 153.826ZM124.406 152.659L124.592 153.095L124.596 153.093L124.406 152.659ZM125.666 151.797L126.005 152.128L126.009 152.124L125.666 151.797ZM126.475 150.498L126.034 150.324L126.031 150.331L126.475 150.498ZM126.475 147.289L126.031 147.455L126.034 147.462L126.475 147.289ZM125.666 146.003L125.323 146.329L125.327 146.333L125.666 146.003ZM124.406 145.141L124.221 145.576L124.224 145.578L124.406 145.141ZM121.237 145.141L121.055 144.704L121.052 144.705L121.237 145.141ZM119.991 146.003L119.648 145.676L119.648 145.676L119.991 146.003ZM119.991 151.797L119.644 152.119L119.652 152.128L119.991 151.797ZM121.237 152.659L121.045 153.092L121.055 153.096L121.237 152.659ZM122.828 154.21V153.737C122.103 153.737 121.452 153.617 120.869 153.386L120.694 153.826L120.519 154.266C121.226 154.547 121.998 154.684 122.828 154.684V154.21ZM120.694 153.826L120.874 153.388C120.283 153.145 119.78 152.812 119.358 152.39L119.023 152.725L118.688 153.06C119.203 153.575 119.814 153.976 120.514 154.264L120.694 153.826ZM119.023 152.725L119.364 152.397C118.949 151.966 118.624 151.457 118.389 150.866L117.949 151.041L117.509 151.216C117.787 151.916 118.178 152.53 118.682 153.054L119.023 152.725ZM117.949 151.041L118.39 150.868C118.157 150.275 118.038 149.618 118.038 148.893H117.564H117.091C117.091 149.724 117.228 150.499 117.508 151.214L117.949 151.041ZM117.564 148.893H118.038C118.038 148.168 118.157 147.517 118.389 146.933L117.949 146.758L117.509 146.584C117.228 147.291 117.091 148.063 117.091 148.893H117.564ZM117.949 146.758L118.389 146.933C118.624 146.343 118.948 145.84 119.361 145.419L119.023 145.088L118.685 144.756C118.179 145.272 117.787 145.883 117.509 146.584L117.949 146.758ZM119.023 145.088L119.361 145.419C119.781 144.991 120.282 144.66 120.869 144.427L120.694 143.987L120.519 143.547C119.815 143.827 119.202 144.23 118.685 144.756L119.023 145.088ZM120.694 143.987L120.874 144.425C121.456 144.186 122.105 144.063 122.828 144.063V143.589V143.116C121.996 143.116 121.222 143.258 120.514 143.549L120.694 143.987ZM122.828 143.589V144.063C123.552 144.063 124.196 144.186 124.768 144.424L124.95 143.987L125.132 143.55C124.431 143.258 123.661 143.116 122.828 143.116V143.589ZM124.95 143.987L124.775 144.427C125.362 144.66 125.862 144.991 126.283 145.419L126.621 145.088L126.959 144.756C126.442 144.23 125.829 143.827 125.125 143.547L124.95 143.987ZM126.621 145.088L126.286 145.423C126.707 145.843 127.034 146.345 127.268 146.933L127.708 146.758L128.148 146.584C127.869 145.881 127.472 145.269 126.956 144.753L126.621 145.088ZM127.708 146.758L127.268 146.933C127.5 147.517 127.619 148.168 127.619 148.893H128.092H128.566C128.566 148.063 128.429 147.291 128.148 146.584L127.708 146.758ZM128.092 148.893H127.619C127.619 149.618 127.5 150.275 127.267 150.868L127.708 151.041L128.149 151.214C128.429 150.499 128.566 149.724 128.566 148.893H128.092ZM127.708 151.041L127.268 150.866C127.034 151.455 126.705 151.963 126.283 152.393L126.621 152.725L126.959 153.057C127.473 152.533 127.869 151.918 128.148 151.216L127.708 151.041ZM126.621 152.725L126.286 152.39C125.864 152.812 125.36 153.145 124.77 153.388L124.95 153.826L125.13 154.264C125.83 153.976 126.44 153.575 126.956 153.06L126.621 152.725ZM124.95 153.826L124.773 153.386C124.2 153.617 123.554 153.737 122.828 153.737V154.21V154.684C123.659 154.684 124.427 154.547 125.127 154.265L124.95 153.826ZM122.828 152.964V153.437C123.46 153.437 124.05 153.325 124.592 153.095L124.406 152.659L124.221 152.223C123.808 152.399 123.346 152.49 122.828 152.49V152.964ZM124.406 152.659L124.596 153.093C125.135 152.857 125.607 152.536 126.005 152.128L125.666 151.797L125.327 151.466C125.018 151.783 124.65 152.036 124.217 152.225L124.406 152.659ZM125.666 151.797L126.009 152.124C126.408 151.705 126.711 151.217 126.918 150.664L126.475 150.498L126.031 150.331C125.867 150.769 125.631 151.147 125.323 151.47L125.666 151.797ZM126.475 150.498L126.916 150.671C127.133 150.116 127.24 149.522 127.24 148.893H126.767H126.293C126.293 149.413 126.205 149.889 126.034 150.324L126.475 150.498ZM126.767 148.893H127.24C127.24 148.264 127.133 147.67 126.916 147.116L126.475 147.289L126.034 147.462C126.205 147.898 126.293 148.373 126.293 148.893H126.767ZM126.475 147.289L126.918 147.123C126.711 146.569 126.406 146.083 126.005 145.672L125.666 146.003L125.327 146.333C125.633 146.647 125.868 147.019 126.031 147.455L126.475 147.289ZM125.666 146.003L126.009 145.676C125.609 145.256 125.134 144.932 124.589 144.704L124.406 145.141L124.224 145.578C124.651 145.756 125.016 146.007 125.323 146.329L125.666 146.003ZM124.406 145.141L124.592 144.705C124.05 144.474 123.46 144.362 122.828 144.362V144.836V145.309C123.346 145.309 123.808 145.401 124.221 145.576L124.406 145.141ZM122.828 144.836V144.362C122.197 144.362 121.604 144.474 121.055 144.704L121.237 145.141L121.42 145.578C121.843 145.401 122.311 145.309 122.828 145.309V144.836ZM121.237 145.141L121.052 144.705C120.516 144.933 120.047 145.258 119.648 145.676L119.991 146.003L120.334 146.329C120.642 146.005 121.004 145.755 121.423 145.576L121.237 145.141ZM119.991 146.003L119.648 145.676C119.258 146.086 118.957 146.567 118.741 147.116L119.182 147.289L119.623 147.462C119.796 147.02 120.034 146.644 120.334 146.329L119.991 146.003ZM119.182 147.289L118.741 147.116C118.524 147.67 118.417 148.264 118.417 148.893H118.89H119.364C119.364 148.373 119.452 147.898 119.623 147.462L119.182 147.289ZM118.89 148.893H118.417C118.417 149.522 118.524 150.116 118.741 150.671L119.182 150.498L119.623 150.324C119.452 149.889 119.364 149.413 119.364 148.893H118.89ZM119.182 150.498L118.741 150.671C118.956 151.218 119.257 151.702 119.644 152.119L119.991 151.797L120.338 151.475C120.035 151.149 119.797 150.767 119.623 150.324L119.182 150.498ZM119.991 151.797L119.652 152.128C120.049 152.535 120.515 152.856 121.045 153.092L121.237 152.659L121.43 152.226C121.005 152.038 120.64 151.784 120.33 151.466L119.991 151.797ZM121.237 152.659L121.055 153.096C121.604 153.325 122.197 153.437 122.828 153.437V152.964V152.49C122.311 152.49 121.843 152.399 121.42 152.222L121.237 152.659ZM131.398 153.879L131.064 154.214L131.398 153.879ZM131.398 143.921L131.722 144.267L131.727 144.262L131.733 144.256L131.398 143.921ZM136.357 144.107L136.176 144.544L136.184 144.547L136.357 144.107ZM137.988 145.181L137.65 145.512L137.654 145.515L137.988 145.181ZM139.049 146.811L139.49 146.638L139.049 146.811ZM139.049 150.988L139.49 151.162L139.49 151.16L139.049 150.988ZM137.988 152.632L138.323 152.967L138.326 152.964L137.988 152.632ZM136.357 153.706L136.533 154.146L136.537 154.145L136.357 153.706ZM132.579 152.858H132.105V153.331H132.579V152.858ZM136.251 152.354L136.493 152.761L136.495 152.76L136.251 152.354ZM137.604 150.948L138.018 151.177L138.02 151.175L137.604 150.948ZM137.604 146.838L137.189 147.067L137.604 146.838ZM136.251 145.446L136.01 145.853L136.012 145.855L136.251 145.446ZM132.579 144.942V144.468H132.105V144.942H132.579ZM131.889 154.078V153.604C131.815 153.604 131.773 153.584 131.733 153.544L131.398 153.879L131.064 154.214C131.289 154.439 131.574 154.551 131.889 154.551V154.078ZM131.398 153.879L131.733 153.544C131.693 153.504 131.673 153.462 131.673 153.388H131.2H130.726C130.726 153.703 130.839 153.989 131.064 154.214L131.398 153.879ZM131.2 153.388H131.673V144.411H131.2H130.726V153.388H131.2ZM131.2 144.411H131.673C131.673 144.322 131.697 144.29 131.722 144.267L131.398 143.921L131.075 143.575C130.835 143.799 130.726 144.094 130.726 144.411H131.2ZM131.398 143.921L131.733 144.256C131.773 144.216 131.815 144.196 131.889 144.196V143.722V143.248C131.574 143.248 131.289 143.361 131.064 143.586L131.398 143.921ZM131.889 143.722V144.196H134.289V143.722V143.248H131.889V143.722ZM134.289 143.722V144.196C134.995 144.196 135.622 144.314 136.176 144.544L136.357 144.107L136.539 143.669C135.855 143.386 135.103 143.248 134.289 143.248V143.722ZM136.357 144.107L136.184 144.547C136.751 144.771 137.239 145.092 137.65 145.512L137.988 145.181L138.326 144.849C137.819 144.332 137.219 143.937 136.531 143.666L136.357 144.107ZM137.988 145.181L137.654 145.515C138.066 145.927 138.384 146.416 138.609 146.985L139.049 146.811L139.49 146.638C139.219 145.952 138.831 145.353 138.323 144.846L137.988 145.181ZM139.049 146.811L138.609 146.985C138.832 147.551 138.947 148.185 138.947 148.893H139.42H139.894C139.894 148.081 139.762 147.327 139.49 146.638L139.049 146.811ZM139.42 148.893H138.947C138.947 149.601 138.832 150.241 138.608 150.817L139.049 150.988L139.49 151.16C139.762 150.463 139.894 149.705 139.894 148.893H139.42ZM139.049 150.988L138.609 150.814C138.384 151.385 138.064 151.879 137.65 152.301L137.988 152.632L138.326 152.964C138.832 152.449 139.22 151.847 139.49 151.162L139.049 150.988ZM137.988 152.632L137.654 152.298C137.24 152.711 136.75 153.034 136.178 153.268L136.357 153.706L136.537 154.145C137.22 153.866 137.817 153.473 138.323 152.967L137.988 152.632ZM136.357 153.706L136.182 153.267C135.626 153.489 134.997 153.604 134.289 153.604V154.078V154.551C135.101 154.551 135.851 154.419 136.533 154.146L136.357 153.706ZM134.289 154.078V153.604H131.889V154.078V154.551H134.289V154.078ZM132.579 152.858V153.331H134.289V152.858V152.384H132.579V152.858ZM134.289 152.858V153.331C135.105 153.331 135.845 153.146 136.493 152.761L136.251 152.354L136.01 151.947C135.526 152.234 134.958 152.384 134.289 152.384V152.858ZM136.251 152.354L136.495 152.76C137.142 152.372 137.651 151.842 138.018 151.177L137.604 150.948L137.189 150.719C136.902 151.239 136.51 151.646 136.008 151.948L136.251 152.354ZM137.604 150.948L138.02 151.175C138.389 150.496 138.568 149.731 138.568 148.893H138.094H137.621C137.621 149.593 137.473 150.199 137.188 150.722L137.604 150.948ZM138.094 148.893H138.568C138.568 148.047 138.39 147.281 138.018 146.609L137.604 146.838L137.189 147.067C137.472 147.579 137.621 148.183 137.621 148.893H138.094ZM137.604 146.838L138.018 146.609C137.651 145.943 137.14 145.417 136.49 145.037L136.251 145.446L136.012 145.855C136.512 146.147 136.903 146.548 137.189 147.067L137.604 146.838ZM136.251 145.446L136.493 145.039C135.845 144.654 135.105 144.468 134.289 144.468V144.942V145.415C134.958 145.415 135.526 145.566 136.01 145.853L136.251 145.446ZM134.289 144.942V144.468H132.579V144.942V145.415H134.289V144.942ZM132.579 144.942H132.105V152.858H132.579H133.052V144.942H132.579Z" fill="white"/>
<rect x="100.399" y="36.0447" width="30.3183" height="8.91714" rx="4.45857" fill="#1E1E1E"/>
<path d="M143.698 245.329C142.35 242.883 143.12 239.812 145.463 238.291L202.86 201.017C205.327 199.414 208.626 200.115 210.228 202.583L242.984 253.023C244.582 255.483 243.89 258.771 241.438 260.379L180.541 300.306C177.946 302.008 174.452 301.14 172.954 298.422L143.698 245.329Z" fill="#397F2F"/>
</g>
<defs>
<clipPath id="clip0_467_3210">
<rect width="240" height="240" fill="white"/>
</clipPath>
</defs>
</svg>
