<svg width="40" height="41" viewBox="0 0 40 41" fill="none" xmlns="http://www.w3.org/2000/svg">
<path d="M7.60295 4.01465L35.3241 32.0349C35.5383 32.2513 35.7083 32.5082 35.8242 32.791C35.9402 33.0738 35.9999 33.3769 36 33.683C36.0001 33.9891 35.9405 34.2923 35.8246 34.5751C35.7088 34.858 35.539 35.115 35.3249 35.3315C35.1108 35.548 34.8566 35.7198 34.5768 35.837C34.297 35.9542 33.9971 36.0146 33.6942 36.0146C33.3914 36.0147 33.0914 35.9545 32.8116 35.8374C32.5317 35.7203 32.2775 35.5487 32.0632 35.3323L24.9973 28.1905L19.5594 33.682L7.60142 21.5957C5.34195 19.3114 4.05083 16.228 4.00147 12.9984C3.95211 9.76873 5.14839 6.64648 7.33698 4.2928L7.60295 4.01465ZM7.97347 8.78517L7.89506 8.9561C7.14875 10.6219 6.90358 12.4728 7.19006 14.2784C7.47654 16.084 8.28203 17.7645 9.50627 19.1109L9.77686 19.3984L19.561 29.2875L23.9088 24.8915L7.97347 8.78517Z" fill="#B7B7B7"/>
</svg>
