<svg width="40" height="41" viewBox="0 0 40 41" fill="none" xmlns="http://www.w3.org/2000/svg">
<path d="M19.728 37.8749C4.7373 37.8749 0.0023709 33.2139 2.73269 24.7847H36.7234C39.4537 33.2139 34.7188 37.8749 19.728 37.8749Z" stroke="#923107" stroke-width="3" stroke-linejoin="round"/>
<path d="M12.1035 13.168C15.1296 17.0704 16.2004 21.0029 16.6303 24.7109" stroke="#923107" stroke-width="3" stroke-linecap="round" stroke-linejoin="round"/>
<path d="M4.2659 24.7683C2.62278 21.2767 3.1431 17.2483 5.4243 15.2574C5.06666 14.7591 4.75501 14.2293 4.4932 13.6745C2.5817 9.61603 3.68533 5.07554 6.95788 3.531C10.2386 1.98647 14.445 4.02394 16.3565 8.08245C16.6231 8.65389 16.833 9.22898 16.9864 9.80772C19.703 9.36134 22.7154 10.9743 24.4763 13.8964L24.9884 14.8904" stroke="#923107" stroke-width="3" stroke-linecap="round" stroke-linejoin="round"/>
<path d="M21.4997 24.4236H35.8825C36.1071 23.613 36.2203 22.7112 36.2221 21.718C36.2221 16.8982 33.5109 14.187 28.6911 14.187C23.8713 14.187 21.1602 16.8982 21.1602 21.718C21.1602 22.7112 21.2733 23.613 21.4997 24.4236Z" stroke="#923107" stroke-width="3" stroke-linecap="round" stroke-linejoin="round"/>
</svg>
