<svg width="57" height="57" viewBox="0 0 57 57" fill="none" xmlns="http://www.w3.org/2000/svg">
<path d="M44.5112 19.1108L44.7562 19.3558C46.0685 20.6685 46.8057 22.4487 46.8057 24.3048C46.8057 26.161 46.0685 27.9411 44.7562 29.2538L29.9057 44.1008C29.2557 44.7511 28.4839 45.267 27.6344 45.619C26.7849 45.9709 25.8745 46.1521 24.955 46.1521C24.0355 46.1521 23.125 45.9709 22.2755 45.619C21.4261 45.267 20.6543 44.7511 20.0042 44.1008L19.7592 43.8558L18.6987 49.8548C18.5878 50.4856 18.306 51.0739 17.8839 51.5555C17.4619 52.0372 16.9157 52.3939 16.305 52.5866C15.6942 52.7794 15.0423 52.8009 14.4201 52.6487C13.798 52.4966 13.2296 52.1767 12.7767 51.7238L4.95771 43.9048C4.50485 43.4519 4.18494 42.8835 4.0328 42.2614C3.88066 41.6393 3.90214 40.9873 4.0949 40.3766C4.28765 39.7658 4.6443 39.2197 5.12598 38.7976C5.60767 38.3755 6.19594 38.0937 6.82671 37.9828L12.8292 36.9258L12.5807 36.6773C11.9304 36.0273 11.4145 35.2555 11.0626 34.406C10.7106 33.5565 10.5295 32.6461 10.5295 31.7266C10.5295 30.8071 10.7106 29.8966 11.0626 29.0471C11.4145 28.1977 11.9304 27.4259 12.5807 26.7758L27.4277 11.9288C28.0778 11.2785 28.8496 10.7626 29.699 10.4107C30.5485 10.0587 31.459 9.87756 32.3785 9.87756C33.298 9.87756 34.2084 10.0587 35.0579 10.4107C35.9074 10.7626 36.6792 11.2785 37.3292 11.9288L37.5742 12.1738L38.6347 6.18532C38.7462 5.55441 39.0287 4.9662 39.4514 4.48478C39.8741 4.00337 40.4209 3.64723 41.0321 3.45516C41.6433 3.2631 42.2955 3.24249 42.9176 3.39557C43.5398 3.54865 44.1079 3.86956 44.5602 4.32332L52.3582 12.1458C52.8092 12.5991 53.1273 13.1673 53.2781 13.7887C53.4289 14.4101 53.4066 15.0609 53.2136 15.6705C53.0207 16.2801 52.6644 16.8252 52.1835 17.2466C51.7025 17.668 51.1154 17.9496 50.4857 18.0608L44.5112 19.1108ZM14.4987 29.9783H38.9532V30.1008L42.2782 26.7758C42.9246 26.1314 43.2927 25.2594 43.3037 24.3468H19.9587L15.0552 29.2538C14.8376 29.4698 14.6493 29.7133 14.4952 29.9783H14.4987ZM14.4987 33.4783C14.6492 33.7373 14.8347 33.9788 15.0552 34.2028L22.4787 41.6263C23.1351 42.2825 24.0251 42.6511 24.9532 42.6511C25.8813 42.6511 26.7714 42.2825 27.4277 41.6263L35.5792 33.4783H14.4987ZM41.2982 20.8468L34.8547 14.4033C34.1984 13.7472 33.3083 13.3786 32.3802 13.3786C31.4521 13.3786 30.5621 13.7472 29.9057 14.4033L23.4587 20.8468H41.2982ZM7.43221 41.4303L15.2512 49.2493L16.5812 41.7243C16.6202 41.5026 16.605 41.2747 16.5371 41.06C16.4692 40.8453 16.3506 40.6502 16.1912 40.4912C16.0318 40.3321 15.8364 40.2139 15.6216 40.1465C15.4068 40.079 15.1789 40.0644 14.9572 40.1038L7.43221 41.4303ZM42.0822 6.79432L40.7522 14.3123C40.7134 14.5337 40.7286 14.7612 40.7963 14.9756C40.864 15.1899 40.9823 15.3848 41.1413 15.5437C41.3002 15.7027 41.4951 15.821 41.7095 15.8888C41.9238 15.9565 42.1513 15.9716 42.3727 15.9328L49.8802 14.6168L42.0787 6.79432H42.0822Z" fill="#3B8030"/>
</svg>
