<svg width="34" height="49" viewBox="0 0 34 49" fill="none" xmlns="http://www.w3.org/2000/svg">
<path d="M5.54827 0.482544H29.1197C30.37 0.482544 31.5691 0.988257 32.4532 1.88843C33.3373 2.78861 33.834 4.0095 33.834 5.28254V17.2825H0.833984V5.28254C0.833984 4.0095 1.33067 2.78861 2.21477 1.88843C3.09887 0.988257 4.29796 0.482544 5.54827 0.482544ZM33.834 41.2825C33.834 42.5556 33.3373 43.7765 32.4532 44.6767C31.5691 45.5768 30.37 46.0825 29.1197 46.0825V48.4825H24.4054V46.0825H10.2626V48.4825H5.54827V46.0825C4.29796 46.0825 3.09887 45.5768 2.21477 44.6767C1.33067 43.7765 0.833984 42.5556 0.833984 41.2825V19.6825H33.834V41.2825ZM7.90541 7.68254V12.4825H12.6197V7.68254H7.90541ZM7.90541 24.4825V31.6825H12.6197V24.4825H7.90541Z" fill="#3B8030"/>
</svg>
