<svg width="34" height="49" viewBox="0 0 34 49" fill="none" xmlns="http://www.w3.org/2000/svg">
<path d="M5.21429 0.482666H28.7857C30.036 0.482666 31.2351 0.988379 32.1192 1.88855C33.0033 2.78873 33.5 4.00963 33.5 5.28267V17.2827H0.5V5.28267C0.5 4.00963 0.996682 2.78873 1.88078 1.88855C2.76488 0.988379 3.96398 0.482666 5.21429 0.482666ZM33.5 41.2827C33.5 42.5557 33.0033 43.7766 32.1192 44.6768C31.2351 45.577 30.036 46.0827 28.7857 46.0827V48.4827H24.0714V46.0827H9.92857V48.4827H5.21429V46.0827C3.96398 46.0827 2.76488 45.577 1.88078 44.6768C0.996682 43.7766 0.5 42.5557 0.5 41.2827V19.6827H33.5V41.2827ZM7.57143 7.68267V12.4827H12.2857V7.68267H7.57143ZM7.57143 24.4827V31.6827H12.2857V24.4827H7.57143Z" fill="#62C64E"/>
</svg>
