<svg width="98" height="99" viewBox="0 0 98 99" fill="none" xmlns="http://www.w3.org/2000/svg">
<path d="M71.8862 24.6473C76.5602 25.4865 80.3937 28.0021 83.3903 32.1942C86.0269 35.9084 87.8249 40.5802 88.7823 46.2098C89.6228 51.3615 89.5598 56.5113 88.6024 61.663C87.1644 70.1676 84.2883 77.2958 79.9743 83.0458C74.8198 89.9943 68.3497 93.4677 60.5603 93.4677C58.6418 93.4677 56.5469 92.8693 54.2684 91.6708C52.7098 90.713 50.973 90.2333 49.0545 90.2333C47.1359 90.2333 45.4009 90.713 43.8406 91.6708C41.5621 92.8693 39.4671 93.4677 37.5486 93.4677C29.7592 93.4677 23.2891 89.9943 18.1346 83.0458C13.8206 77.2958 10.9446 70.1676 9.50656 61.663C8.54909 56.5113 8.48609 51.3615 9.32658 46.2098C10.2841 40.5802 12.082 35.9084 14.7187 32.1942C17.7153 28.0021 21.5487 25.4865 26.2227 24.6473C29.0987 24.1676 33.0528 24.588 38.0867 25.9052C42.4007 27.1037 46.0561 28.5412 49.0527 30.2177C52.0493 28.5412 55.7046 27.1037 60.0186 25.9052C65.0543 24.588 69.0102 24.1676 71.8862 24.6473ZM61.9983 17.2802C60.3209 18.838 58.1018 19.9755 55.3464 20.6942C53.4279 21.2926 51.333 21.5927 49.0545 21.5927L46.3584 21.413C46.119 19.7365 46.119 17.8192 46.3584 15.663C46.839 11.3505 48.2158 8.05679 50.4925 5.78015C52.1698 4.22226 54.3889 3.08484 57.1444 2.36609C59.0629 1.76773 61.1578 1.46765 63.4363 1.46765L66.1324 1.64734L66.3123 4.34265C66.3123 6.61929 66.0118 8.71445 65.4143 10.6317C64.6962 13.3863 63.5587 15.6037 61.9983 17.2802Z" fill="#DD2E44"/>
<circle cx="36.2379" cy="51.7705" r="4.69492" fill="#1E1E1E"/>
<circle cx="61.7242" cy="51.7705" r="4.69492" fill="#1E1E1E"/>
<path d="M36.9082 65.8551C37.4112 68.9851 40.53 75.2449 48.9809 75.2449C59.5444 75.2449 61.0535 67.7331 61.0535 65.8551" stroke="#1E1E1E" stroke-width="4" stroke-linecap="round" stroke-linejoin="bevel"/>
</svg>
