<svg width="81" height="80" viewBox="0 0 81 80" fill="none" xmlns="http://www.w3.org/2000/svg">
<path d="M47.9168 23.698C51.2048 22.838 53.788 22.5635 55.6658 22.8767C58.7174 23.4247 61.2201 25.0674 63.1766 27.8044C64.898 30.2294 66.0719 33.2794 66.6971 36.9548C67.2459 40.3184 67.205 43.6811 66.5799 47.0447C65.641 52.5975 63.7628 57.2513 60.9461 61.0056C57.5806 65.5425 53.3562 67.8103 48.2703 67.8103C47.0178 67.8102 45.6504 67.4198 44.1629 66.6375C43.1454 66.0122 42.0111 65.699 40.7586 65.699C39.5061 65.699 38.373 66.0123 37.3543 66.6375C35.8667 67.42 34.4985 67.8103 33.2459 67.8103C28.1601 67.8103 23.9356 65.5425 20.5701 61.0056C17.7535 57.2514 15.8752 52.5974 14.9363 47.0447C14.3112 43.6811 14.2704 40.3184 14.8192 36.9548C15.4443 33.2794 16.6183 30.2294 18.3397 27.8044C20.2961 25.0675 22.7989 23.4247 25.8504 22.8767C27.7282 22.5635 30.3107 22.838 33.5975 23.698C38.2138 24.9805 43.3005 24.9805 47.9168 23.698ZM48.6805 48.8035C48.0128 48.8036 47.4717 49.3448 47.4715 50.0125C47.4715 50.4057 47.2865 51.6519 46.3856 52.7732C45.5344 53.8323 43.9318 54.9216 40.8143 54.9216C36.3863 54.9215 34.631 51.899 34.2088 50.1521L34.1424 49.821L34.116 49.7C33.9582 49.1079 33.3747 48.7191 32.7567 48.8181C32.1388 48.9175 31.7058 49.4693 31.741 50.0808L31.7537 50.2039L31.7967 50.4373C32.2955 52.9116 34.7218 57.3395 40.8143 57.3396C44.5794 57.3396 46.9101 55.9818 48.2713 54.2878C49.5825 52.656 49.8895 50.8428 49.8895 50.0125C49.8893 49.3447 49.3482 48.8035 48.6805 48.8035ZM32.5125 37.7761C30.823 37.7761 29.4529 39.1462 29.4529 40.8357C29.453 42.5251 30.8231 43.8943 32.5125 43.8943C34.2019 43.8942 35.5711 42.5251 35.5711 40.8357C35.5711 39.1463 34.2019 37.7762 32.5125 37.7761ZM49.119 37.7761C47.4295 37.7761 46.0594 39.1462 46.0594 40.8357C46.0594 42.5251 47.4295 43.8943 49.119 43.8943C50.8082 43.894 52.1775 42.525 52.1776 40.8357C52.1776 39.1464 50.8082 37.7764 49.119 37.7761ZM50.1483 7.74194C51.1558 7.809 51.9591 8.61139 52.0262 9.6189C52.0262 11.1053 51.8304 12.4736 51.4403 13.7253C50.9714 15.5238 50.2285 16.9716 49.2098 18.0662C48.1146 19.0833 46.6651 19.8264 44.866 20.2957C43.6136 20.6862 42.246 20.8816 40.7586 20.8816C39.7323 20.8133 38.8807 20.0338 38.8807 19.0051C38.8807 18.3794 38.9197 17.7144 38.9979 17.0105C39.3116 14.1948 40.2106 12.0438 41.6971 10.5574C42.7922 9.54035 44.2411 8.79813 46.0399 8.32886C47.2925 7.93819 48.6607 7.74196 50.1483 7.74194Z" fill="#62C64E"/>
<path d="M5.66113 63.4844C5.66122 69.7554 10.7455 74.8389 17.0166 74.8389H27.4253C28.8505 74.8389 30.0059 75.9942 30.0059 77.4194C30.0059 78.8446 28.8505 80 27.4253 80H17.0166L16.5898 79.9951C7.80679 79.7726 0.728209 72.6933 0.505859 63.9102L0.5 63.4844V53.0757C0.5 51.6505 1.65536 50.4951 3.08057 50.4951C4.50577 50.4951 5.66113 51.6505 5.66113 53.0757V63.4844ZM80.5 63.4844L80.4951 63.9102C80.2728 72.6934 73.1934 79.7728 64.4102 79.9951L63.9844 80H53.5757C52.1505 80 50.9951 78.8446 50.9951 77.4194C50.9951 75.9942 52.1505 74.8389 53.5757 74.8389H63.9844C70.2554 74.8388 75.3388 69.7554 75.3389 63.4844V53.0757C75.3389 51.6505 76.4942 50.4951 77.9194 50.4951C79.3446 50.4951 80.5 51.6505 80.5 53.0757V63.4844ZM30.0059 2.58057C30.0059 4.00577 28.8505 5.16113 27.4253 5.16113H17.0166C10.7455 5.16113 5.66125 10.2456 5.66113 16.5166V26.9253C5.66113 28.3505 4.50577 29.5059 3.08057 29.5059C1.65536 29.5059 0.5 28.3505 0.5 26.9253V16.5166C0.500117 7.53761 7.66532 0.232012 16.5898 0.00585938L17.0166 0H27.4253C28.8505 0 30.0059 1.15536 30.0059 2.58057ZM64.4102 0.00585938C73.3349 0.231787 80.4999 7.53746 80.5 16.5166V26.9253C80.5 28.3505 79.3446 29.5059 77.9194 29.5059C76.4942 29.5059 75.3389 28.3505 75.3389 26.9253V16.5166C75.3387 10.2456 70.2554 5.16122 63.9844 5.16113H53.5757C52.1505 5.16113 50.9951 4.00577 50.9951 2.58057C50.9951 1.15536 52.1505 0 53.5757 0H63.9844L64.4102 0.00585938Z" fill="#62C64E"/>
</svg>
