<svg width="29" height="33" viewBox="0 0 29 33" fill="none" xmlns="http://www.w3.org/2000/svg">
<path d="M7.66667 1.48242H21C21.8841 1.48242 22.7319 1.83361 23.357 2.45873C23.9821 3.08385 24.3333 3.9317 24.3333 4.81576V7.84909C24.3334 9.14278 24.6347 10.4187 25.2133 11.5758L26.7867 14.7224C27.3653 15.8795 27.6666 17.1554 27.6667 18.4491V28.1491C27.6667 29.0331 27.3155 29.881 26.6904 30.5061C26.0652 31.1312 25.2174 31.4824 24.3333 31.4824H4.33333C3.44928 31.4824 2.60143 31.1312 1.97631 30.5061C1.35119 29.881 1 29.0331 1 28.1491V18.4491C1.00009 17.1554 1.30137 15.8795 1.88 14.7224L4.33333 9.81576V4.81576C4.33333 3.9317 4.68452 3.08385 5.30964 2.45873C5.93477 1.83361 6.78261 1.48242 7.66667 1.48242Z" stroke="#2E2E2E" stroke-width="2" stroke-linecap="round" stroke-linejoin="round"/>
<path d="M4.33301 31.4825C5.21706 31.4825 6.06491 31.1313 6.69003 30.5062C7.31515 29.8811 7.66634 29.0332 7.66634 28.1492V18.4492C7.66625 17.1555 7.36497 15.8796 6.78634 14.7225L4.33301 9.81584M12.6663 8.14917H15.9997M14.333 21.4825C14.333 22.3666 14.6842 23.2144 15.3093 23.8395C15.9344 24.4646 16.7823 24.8158 17.6663 24.8158C18.5504 24.8158 19.3982 24.4646 20.0234 23.8395C20.6485 23.2144 20.9997 22.3666 20.9997 21.4825C20.9997 20.5984 20.6485 19.7506 20.0234 19.1255C19.3982 18.5004 18.5504 18.1492 17.6663 18.1492C16.7823 18.1492 15.9344 18.5004 15.3093 19.1255C14.6842 19.7506 14.333 20.5984 14.333 21.4825Z" stroke="#2E2E2E" stroke-width="2" stroke-linecap="round" stroke-linejoin="round"/>
</svg>
