<svg width="240" height="240" viewBox="0 0 240 240" fill="none" xmlns="http://www.w3.org/2000/svg">
<rect width="240" height="240" fill="#FEF2DD"/>
<g filter="url(#filter0_d_467_3154)">
<path d="M83.81 59.3451C79.4038 60.8873 76.65 64.7612 75.8238 66.5053C70.8668 78.0717 74.4468 89.3631 82.9839 98.7264C89.8135 106.217 98.4974 104.418 101.986 102.582C111.624 105.06 116.857 97.6249 119.611 92.3924C122.364 87.1599 123.741 79.4489 122.64 71.7379C121.538 64.0269 116.596 59.814 113.827 57.9682C111.349 56.3159 107.769 56.0404 105.015 57.142C102.261 58.2436 104.189 54.9388 100.884 55.4897C98.2404 55.9304 95.9271 59.7124 95.3764 59.3451C93.3568 58.7025 88.2163 57.8029 83.81 59.3451Z" fill="#62C64E"/>
</g>
<ellipse cx="2.37123" cy="4.56605" rx="2.37123" ry="4.56605" transform="matrix(0.754704 0.656066 -0.656052 0.754716 83.7417 62.6499)" fill="#AAE89E"/>
<path d="M101.966 64.451C100.689 65.7381 93.224 66.4776 91.3998 65.1853C89.6199 64.1526 90.9006 63.1766 92.1726 63.4495C93.0974 63.648 95.7262 63.9121 98.8427 63.3801C102.738 62.7151 103.562 62.8421 101.966 64.451Z" fill="#4CA03C"/>
<path d="M113.046 40.6448C97.621 42.2915 96.1394 54.1825 97.3633 60.1952C97.3921 60.3369 97.5343 60.4217 97.6753 60.3898C109.101 57.8091 112.738 49.5366 113.302 47.0419C113.729 45.1494 113.519 42.284 113.336 40.8668C113.317 40.7275 113.186 40.6299 113.046 40.6448Z" fill="#1D681A"/>
<path d="M89.5928 50.5631C93.5584 52.5459 94.0908 60.3855 94.5497 64.0574C95.431 64.7183 97.579 64.3327 97.8544 64.0574C97.579 50.8384 92.0713 46.983 90.9697 46.7076C89.8681 46.4322 88.2158 48.0846 88.2158 48.9107C88.2158 49.5717 89.1338 50.2877 89.5928 50.5631Z" fill="#462D1A"/>
<path d="M113.047 40.5906C113.147 40.5801 113.241 40.6276 113.294 40.7058C109.073 44.3168 100.356 53.0294 97.643 60.3396C97.5134 60.3526 97.3903 60.272 97.3637 60.1413C96.1398 54.1287 97.622 42.2372 113.047 40.5906Z" fill="#277C23"/>
<g filter="url(#filter1_d_467_3154)">
<path d="M134.547 59.3451C130.141 60.8873 127.387 64.7612 126.561 66.5053C121.604 78.0717 125.184 89.3631 133.721 98.7264C140.55 106.217 149.234 104.418 152.722 102.582C162.361 105.06 167.593 97.6249 170.347 92.3924C173.101 87.1599 174.478 79.4489 173.377 71.7379C172.275 64.0269 167.333 59.814 164.564 57.9682C162.086 56.3159 158.506 56.0404 155.752 57.142C152.998 58.2436 154.926 54.9388 151.621 55.4897C148.977 55.9304 146.664 59.7124 146.113 59.3451C144.094 58.7025 138.953 57.8029 134.547 59.3451Z" fill="#B43917"/>
</g>
<ellipse cx="2.37123" cy="4.56605" rx="2.37123" ry="4.56605" transform="matrix(0.754704 0.656066 -0.656052 0.754716 134.479 62.6506)" fill="#FCBAA8"/>
<path d="M152.702 64.451C151.425 65.7381 143.961 66.4776 142.137 65.1853C140.357 64.1526 141.637 63.1766 142.909 63.4495C143.834 63.648 146.463 63.9121 149.58 63.3801C153.475 62.7151 154.299 62.8421 152.702 64.451Z" fill="#812912"/>
<path d="M163.783 40.6448C148.358 42.2915 146.876 54.1825 148.1 60.1952C148.129 60.3369 148.271 60.4217 148.412 60.3898C159.838 57.8091 163.475 49.5366 164.038 47.0419C164.465 45.1494 164.256 42.284 164.072 40.8668C164.054 40.7275 163.923 40.6299 163.783 40.6448Z" fill="#1D681A"/>
<path d="M140.33 50.5631C144.295 52.5459 144.828 60.3855 145.287 64.0574C146.168 64.7183 148.316 64.3327 148.591 64.0574C148.316 50.8384 142.808 46.983 141.707 46.7076C140.605 46.4322 138.953 48.0846 138.953 48.9107C138.953 49.5717 139.871 50.2877 140.33 50.5631Z" fill="#462D1A"/>
<path d="M163.784 40.5906C163.884 40.5799 163.979 40.628 164.032 40.7068C159.81 44.3182 151.095 53.03 148.382 60.3396C148.252 60.3534 148.128 60.2724 148.102 60.1414C146.878 54.1287 148.359 42.2374 163.784 40.5906Z" fill="#277C23"/>
<g filter="url(#filter2_d_467_3154)">
<path d="M106.642 72.0285C102.235 73.5707 99.4815 77.4445 98.6553 79.1887C93.6983 90.7551 97.2784 102.046 105.815 111.41C112.645 118.9 121.329 117.101 124.817 115.265C134.456 117.744 139.688 110.308 142.442 105.076C145.196 99.8433 146.573 92.1323 145.471 84.4213C144.37 76.7103 139.428 72.4974 136.659 70.6516C134.18 68.9992 130.6 68.7238 127.846 69.8254C125.093 70.9269 127.02 67.6222 123.716 68.173C121.072 68.6137 118.759 72.3957 118.208 72.0285C116.188 71.3859 111.048 70.4863 106.642 72.0285Z" fill="#E74F26"/>
</g>
<ellipse cx="2.37123" cy="4.56605" rx="2.37123" ry="4.56605" transform="matrix(0.754704 0.656066 -0.656052 0.754716 106.574 75.3335)" fill="#FCBAA8"/>
<path d="M124.797 77.1338C123.52 78.4209 116.056 79.1605 114.231 77.8682C112.451 76.8355 113.732 75.8595 115.004 76.1324C115.929 76.3309 118.558 76.5949 121.674 76.0629C125.57 75.398 126.393 75.5249 124.797 77.1338Z" fill="#C03D1A"/>
<path d="M135.878 53.3277C120.453 54.9744 118.971 66.8654 120.195 72.8781C120.224 73.0197 120.366 73.1046 120.507 73.0727C131.933 70.4919 135.57 62.2195 136.133 59.7248C136.56 57.8323 136.351 54.9668 136.167 53.5497C136.149 53.4104 136.018 53.3128 135.878 53.3277Z" fill="#1D681A"/>
<path d="M112.424 63.246C116.39 65.2288 116.922 73.0683 117.381 76.7402C118.263 77.4011 120.411 77.0156 120.686 76.7402C120.411 63.5213 114.903 59.6659 113.801 59.3905C112.7 59.1151 111.047 60.7674 111.047 61.5936C111.047 62.2545 111.965 62.9706 112.424 63.246Z" fill="#462D1A"/>
<path d="M135.879 53.2732C135.979 53.2625 136.074 53.3107 136.127 53.3894C131.905 57.0009 123.19 65.7126 120.477 73.0222C120.346 73.0359 120.223 72.9551 120.196 72.824C118.972 66.8113 120.454 54.92 135.879 53.2732Z" fill="#277C23"/>
<g filter="url(#filter3_d_467_3154)">
<path d="M164.989 69.4926C160.583 71.0348 157.829 74.9086 157.003 76.6528C152.046 88.2192 155.626 99.5105 164.163 108.874C170.992 116.365 179.676 114.565 183.164 112.729C192.803 115.208 198.035 107.772 200.789 102.54C203.543 97.3074 204.92 89.5964 203.818 81.8854C202.717 74.1744 197.775 69.9615 195.006 68.1157C192.528 66.4633 188.948 66.1879 186.194 67.2895C183.44 68.391 185.367 65.0863 182.063 65.6372C179.419 66.0778 177.106 69.8598 176.555 69.4926C174.536 68.85 169.395 67.9504 164.989 69.4926Z" fill="#E74F26"/>
</g>
<ellipse cx="2.37123" cy="4.56605" rx="2.37123" ry="4.56605" transform="matrix(0.754704 0.656066 -0.656052 0.754716 164.92 72.7976)" fill="#FCBAA8"/>
<path d="M183.143 74.5984C181.866 75.8855 174.401 76.6251 172.577 75.3328C170.797 74.3001 172.078 73.3241 173.35 73.597C174.275 73.7955 176.903 74.0595 180.02 73.5275C183.916 72.8626 184.739 72.9895 183.143 74.5984Z" fill="#C03D1A"/>
<path d="M194.224 50.7923C178.799 52.439 177.317 64.33 178.541 70.3427C178.57 70.4843 178.712 70.5692 178.853 70.5373C190.279 67.9565 193.916 59.6841 194.479 57.1894C194.906 55.2969 194.697 52.4314 194.513 51.0143C194.495 50.875 194.364 50.7774 194.224 50.7923Z" fill="#1D681A"/>
<path d="M170.771 60.7106C174.737 62.6934 175.269 70.5329 175.728 74.2048C176.61 74.8657 178.758 74.4802 179.033 74.2048C178.758 60.9859 173.25 57.1305 172.148 56.8551C171.047 56.5797 169.395 58.232 169.395 59.0582C169.395 59.7191 170.312 60.4352 170.771 60.7106Z" fill="#462D1A"/>
<path d="M194.226 50.738C194.326 50.7275 194.421 50.7754 194.474 50.8542C190.252 54.4656 181.536 63.1772 178.823 70.487C178.693 70.5006 178.569 70.4197 178.542 70.2888C177.319 64.2761 178.801 52.3847 194.226 50.738Z" fill="#277C23"/>
<g filter="url(#filter4_d_467_3154)">
<path d="M50.831 69.4931C46.4248 71.0353 43.671 74.9091 42.8448 76.6533C37.8878 88.2197 41.4678 99.511 50.0049 108.874C56.8345 116.365 65.5184 114.566 69.0067 112.73C78.6452 115.208 83.8776 107.773 86.6315 102.54C89.3854 97.3079 90.7623 89.5969 89.6608 81.8859C88.5592 74.1749 83.617 69.962 80.8484 68.1162C78.3698 66.4638 74.7898 66.1884 72.0359 67.29C69.282 68.3915 71.2097 65.0868 67.9051 65.6376C65.2614 66.0783 62.9481 69.8603 62.3973 69.4931C60.3778 68.8505 55.2373 67.9509 50.831 69.4931Z" fill="#E74F26"/>
</g>
<ellipse cx="2.37123" cy="4.56605" rx="2.37123" ry="4.56605" transform="matrix(0.754704 0.656066 -0.656052 0.754716 50.7642 72.7981)" fill="#FCBAA8"/>
<path d="M68.9866 74.5984C67.7095 75.8855 60.245 76.6251 58.4208 75.3328C56.6409 74.3001 57.9216 73.3241 59.1936 73.597C60.1184 73.7955 62.7472 74.0595 65.8637 73.5275C69.7594 72.8626 70.5829 72.9895 68.9866 74.5984Z" fill="#C03D1A"/>
<path d="M80.0664 50.7928C64.641 52.4395 63.1594 64.3305 64.3833 70.3432C64.4121 70.4848 64.5543 70.5696 64.6953 70.5378C76.1214 67.957 79.7585 59.6846 80.3216 57.1899C80.7487 55.2974 80.5393 52.4319 80.3555 51.0148C80.3375 50.8755 80.2061 50.7779 80.0664 50.7928Z" fill="#1D681A"/>
<path d="M56.6138 60.7113C60.5793 62.6941 61.1118 70.5337 61.5707 74.2056C62.452 74.8665 64.6 74.4809 64.8754 74.2056C64.6 60.9866 59.0923 57.1312 57.9907 56.8558C56.8891 56.5804 55.2368 58.2328 55.2368 59.0589C55.2368 59.7199 56.1548 60.4359 56.6138 60.7113Z" fill="#462D1A"/>
<path d="M80.065 50.738C80.1653 50.7273 80.2602 50.776 80.313 50.8552C76.0907 54.4672 67.3769 63.1773 64.6636 70.4861C64.5331 70.5004 64.4092 70.4202 64.3823 70.2888C63.1585 64.2762 64.6398 52.3848 80.065 50.738Z" fill="#277C23"/>
<mask id="mask0_467_3154" style="mask-type:alpha" maskUnits="userSpaceOnUse" x="35" y="106" width="174" height="99">
<path d="M192.128 106.613C202.703 106.613 210.476 116.528 207.953 126.797L191.98 191.808C190.19 199.093 183.657 204.215 176.155 204.215H67.6087C60.1065 204.215 53.5738 199.093 51.7837 191.808L35.8104 126.797C33.2873 116.528 41.061 106.613 51.6353 106.613H192.128Z" fill="#D9D9D9"/>
</mask>
<g mask="url(#mask0_467_3154)">
<path d="M192.128 106.613C202.703 106.613 210.476 116.528 207.953 126.797L191.98 191.808C190.19 199.093 183.657 204.215 176.155 204.215H67.6087C60.1065 204.215 53.5738 199.093 51.7837 191.808L35.8104 126.797C33.2873 116.528 41.061 106.613 51.6353 106.613H192.128Z" fill="#39832A"/>
<path d="M192.735 145.09C190.96 126.615 99.5947 129.361 53.1409 120.445C69.2826 85.1582 177.407 101.05 227.458 115.753L217.135 203.745L100.766 213.13C45.5529 205.153 -40.4727 190.231 57.1272 194.36C154.727 198.49 171.821 186.468 183.587 177.223C190.156 172.061 194.379 162.207 192.735 145.09Z" fill="#2B741D"/>
</g>
<rect x="20.2949" y="101.474" width="202.947" height="22.8316" rx="11.4158" fill="#B8A48B"/>
<rect x="118.833" y="138.746" width="5.63076" height="48.8009" rx="2.81538" fill="white"/>
<rect width="5.63077" height="48.8008" rx="2.81538" transform="matrix(0.990268 0.139176 -0.139171 0.990268 149.086 138.746)" fill="white"/>
<rect width="5.63077" height="48.8008" rx="2.81538" transform="matrix(-0.990268 0.139176 0.139171 0.990268 94.3784 138.746)" fill="white"/>
<defs>
<filter id="filter0_d_467_3154" x="70.5129" y="50.3349" width="57.5995" height="56.9164" filterUnits="userSpaceOnUse" color-interpolation-filters="sRGB">
<feFlood flood-opacity="0" result="BackgroundImageFix"/>
<feColorMatrix in="SourceAlpha" type="matrix" values="0 0 0 0 0 0 0 0 0 0 0 0 0 0 0 0 0 0 127 0" result="hardAlpha"/>
<feOffset dx="1.01848" dy="-1.01848"/>
<feGaussianBlur stdDeviation="2.03696"/>
<feComposite in2="hardAlpha" operator="out"/>
<feColorMatrix type="matrix" values="0 0 0 0 0 0 0 0 0 0 0 0 0 0 0 0 0 0 0.25 0"/>
<feBlend mode="normal" in2="BackgroundImageFix" result="effect1_dropShadow_467_3154"/>
<feBlend mode="normal" in="SourceGraphic" in2="effect1_dropShadow_467_3154" result="shape"/>
</filter>
<filter id="filter1_d_467_3154" x="121.25" y="50.3349" width="57.5995" height="56.9164" filterUnits="userSpaceOnUse" color-interpolation-filters="sRGB">
<feFlood flood-opacity="0" result="BackgroundImageFix"/>
<feColorMatrix in="SourceAlpha" type="matrix" values="0 0 0 0 0 0 0 0 0 0 0 0 0 0 0 0 0 0 127 0" result="hardAlpha"/>
<feOffset dx="1.01848" dy="-1.01848"/>
<feGaussianBlur stdDeviation="2.03696"/>
<feComposite in2="hardAlpha" operator="out"/>
<feColorMatrix type="matrix" values="0 0 0 0 0 0 0 0 0 0 0 0 0 0 0 0 0 0 0.25 0"/>
<feBlend mode="normal" in2="BackgroundImageFix" result="effect1_dropShadow_467_3154"/>
<feBlend mode="normal" in="SourceGraphic" in2="effect1_dropShadow_467_3154" result="shape"/>
</filter>
<filter id="filter2_d_467_3154" x="93.3445" y="63.0182" width="57.5995" height="56.9164" filterUnits="userSpaceOnUse" color-interpolation-filters="sRGB">
<feFlood flood-opacity="0" result="BackgroundImageFix"/>
<feColorMatrix in="SourceAlpha" type="matrix" values="0 0 0 0 0 0 0 0 0 0 0 0 0 0 0 0 0 0 127 0" result="hardAlpha"/>
<feOffset dx="1.01848" dy="-1.01848"/>
<feGaussianBlur stdDeviation="2.03696"/>
<feComposite in2="hardAlpha" operator="out"/>
<feColorMatrix type="matrix" values="0 0 0 0 0 0 0 0 0 0 0 0 0 0 0 0 0 0 0.25 0"/>
<feBlend mode="normal" in2="BackgroundImageFix" result="effect1_dropShadow_467_3154"/>
<feBlend mode="normal" in="SourceGraphic" in2="effect1_dropShadow_467_3154" result="shape"/>
</filter>
<filter id="filter3_d_467_3154" x="151.692" y="60.4823" width="57.5995" height="56.9164" filterUnits="userSpaceOnUse" color-interpolation-filters="sRGB">
<feFlood flood-opacity="0" result="BackgroundImageFix"/>
<feColorMatrix in="SourceAlpha" type="matrix" values="0 0 0 0 0 0 0 0 0 0 0 0 0 0 0 0 0 0 127 0" result="hardAlpha"/>
<feOffset dx="1.01848" dy="-1.01848"/>
<feGaussianBlur stdDeviation="2.03696"/>
<feComposite in2="hardAlpha" operator="out"/>
<feColorMatrix type="matrix" values="0 0 0 0 0 0 0 0 0 0 0 0 0 0 0 0 0 0 0.25 0"/>
<feBlend mode="normal" in2="BackgroundImageFix" result="effect1_dropShadow_467_3154"/>
<feBlend mode="normal" in="SourceGraphic" in2="effect1_dropShadow_467_3154" result="shape"/>
</filter>
<filter id="filter4_d_467_3154" x="37.5339" y="60.4828" width="57.5995" height="56.9164" filterUnits="userSpaceOnUse" color-interpolation-filters="sRGB">
<feFlood flood-opacity="0" result="BackgroundImageFix"/>
<feColorMatrix in="SourceAlpha" type="matrix" values="0 0 0 0 0 0 0 0 0 0 0 0 0 0 0 0 0 0 127 0" result="hardAlpha"/>
<feOffset dx="1.01848" dy="-1.01848"/>
<feGaussianBlur stdDeviation="2.03696"/>
<feComposite in2="hardAlpha" operator="out"/>
<feColorMatrix type="matrix" values="0 0 0 0 0 0 0 0 0 0 0 0 0 0 0 0 0 0 0.25 0"/>
<feBlend mode="normal" in2="BackgroundImageFix" result="effect1_dropShadow_467_3154"/>
<feBlend mode="normal" in="SourceGraphic" in2="effect1_dropShadow_467_3154" result="shape"/>
</filter>
</defs>
</svg>
