<svg width="40" height="41" viewBox="0 0 40 41" fill="none" xmlns="http://www.w3.org/2000/svg">
<path d="M36.0153 27.748L33.359 26.2137C33.8397 25.7186 34.3909 25.2973 34.995 24.9637C35.3898 24.741 35.6807 24.3715 35.8044 23.9354C35.9281 23.4992 35.8744 23.032 35.6552 22.6352C35.436 22.2384 35.0689 21.9444 34.6338 21.817C34.1988 21.6896 33.7311 21.7392 33.3325 21.9551C32.1792 22.5933 31.1573 23.4443 30.3207 24.4629L23.4371 20.4824L30.3192 16.509C31.1556 17.5277 32.1775 18.3787 33.3309 19.0168C33.5286 19.1283 33.7464 19.1995 33.9717 19.2263C34.1971 19.2531 34.4255 19.2351 34.6439 19.1732C34.8622 19.1113 35.0661 19.0067 35.2439 18.8656C35.4216 18.7245 35.5696 18.5495 35.6794 18.3509C35.7891 18.1523 35.8585 17.9338 35.8834 17.7083C35.9083 17.4827 35.8883 17.2544 35.8245 17.0366C35.7607 16.8188 35.6544 16.6158 35.5118 16.4393C35.3691 16.2628 35.193 16.1163 34.9934 16.0082C34.3895 15.6743 33.8383 15.2531 33.3575 14.7582L36.0137 13.2238C36.2169 13.1152 36.3962 12.9668 36.5408 12.7875C36.6855 12.6082 36.7927 12.4017 36.856 12.1802C36.9193 11.9586 36.9374 11.7266 36.9092 11.498C36.881 11.2693 36.8072 11.0486 36.692 10.8491C36.5769 10.6495 36.4228 10.4751 36.2389 10.3363C36.055 10.1975 35.8451 10.0971 35.6216 10.041C35.3981 9.98496 35.1657 9.9744 34.938 10.01C34.7104 10.0455 34.4922 10.1265 34.2965 10.248L31.6403 11.7816C31.451 11.1175 31.361 10.4291 31.3731 9.73867C31.3781 9.51256 31.3384 9.28769 31.2563 9.07696C31.1742 8.86622 31.0513 8.67376 30.8947 8.5106C30.738 8.34745 30.5507 8.21681 30.3435 8.12617C30.1363 8.03553 29.9133 7.98668 29.6871 7.98242H29.6551C29.2048 7.98234 28.7724 8.15902 28.451 8.47446C28.1295 8.78989 27.9448 9.21887 27.9364 9.66914C27.9121 10.9862 28.1375 12.296 28.6004 13.5293L21.7184 17.5051V9.55898C23.0187 9.34408 24.2665 8.88467 25.3957 8.20508C25.7862 7.9698 26.0672 7.58905 26.177 7.14658C26.2867 6.70411 26.2162 6.23617 25.9809 5.8457C25.7456 5.45523 25.3649 5.17422 24.9224 5.06448C24.4799 4.95474 24.012 5.02527 23.6215 5.26055C23.0296 5.61627 22.3883 5.88243 21.7184 6.05039V3.45117C21.7184 2.99533 21.5373 2.55816 21.215 2.23583C20.8927 1.9135 20.4555 1.73242 19.9996 1.73242C19.5438 1.73242 19.1066 1.9135 18.7843 2.23583C18.462 2.55816 18.2809 2.99533 18.2809 3.45117V6.05039C17.611 5.88243 16.9697 5.61627 16.3778 5.26055C15.9873 5.02527 15.5194 4.95474 15.0769 5.06448C14.6344 5.17422 14.2537 5.45523 14.0184 5.8457C13.7831 6.23617 13.7126 6.70411 13.8223 7.14658C13.9321 7.58905 14.2131 7.9698 14.6035 8.20508C15.7328 8.88467 16.9806 9.34408 18.2809 9.55898V17.5051L11.3989 13.5293C11.8626 12.2956 12.0884 10.9853 12.0645 9.66758C12.0561 9.21731 11.8713 8.78833 11.5499 8.47289C11.2285 8.15746 10.7961 7.98078 10.3457 7.98086H10.3121C10.0864 7.98503 9.86373 8.03362 9.65679 8.12387C9.44986 8.21412 9.26273 8.34425 9.10609 8.50683C8.94946 8.66942 8.82639 8.86126 8.74392 9.07142C8.66144 9.28158 8.62118 9.50592 8.62542 9.73164C8.63806 10.4231 8.54829 11.1126 8.35902 11.7777L5.70277 10.248C5.50716 10.1314 5.29032 10.0547 5.06483 10.0226C4.83935 9.99044 4.60973 10.0034 4.38931 10.0608C4.16889 10.1182 3.96208 10.2188 3.78088 10.3568C3.59969 10.4948 3.44773 10.6674 3.33383 10.8647C3.21994 11.0619 3.14639 11.2798 3.11745 11.5057C3.08851 11.7317 3.10476 11.9611 3.16525 12.1806C3.22575 12.4002 3.32929 12.6056 3.46984 12.7848C3.6104 12.964 3.78518 13.1135 3.98402 13.2246L6.64027 14.759C6.15947 15.2539 5.60821 15.6751 5.00433 16.009C4.80476 16.117 4.62857 16.2636 4.48592 16.4401C4.34328 16.6166 4.237 16.8196 4.17323 17.0374C4.10945 17.2552 4.08944 17.4835 4.11435 17.7091C4.13926 17.9346 4.2086 18.153 4.31837 18.3517C4.42813 18.5503 4.57614 18.7252 4.75387 18.8664C4.93159 19.0075 5.13551 19.112 5.35385 19.1739C5.57219 19.2359 5.80062 19.2539 6.02598 19.2271C6.25133 19.2002 6.46914 19.129 6.66683 19.0176C7.82008 18.3793 8.842 17.5284 9.67855 16.5098L16.5621 20.4824L9.68011 24.4559C8.84356 23.4373 7.82164 22.5863 6.66839 21.948C6.4707 21.8366 6.25289 21.7654 6.02754 21.7385C5.80219 21.7117 5.57375 21.7298 5.35541 21.7917C5.13707 21.8536 4.93316 21.9581 4.75543 22.0993C4.57771 22.2404 4.42969 22.4153 4.31993 22.614C4.21017 22.8126 4.14083 23.031 4.11592 23.2566C4.091 23.4821 4.11101 23.7104 4.17479 23.9282C4.23856 24.146 4.34484 24.349 4.48749 24.5256C4.63013 24.7021 4.80632 24.8486 5.00589 24.9566C5.60977 25.2905 6.16103 25.7117 6.64183 26.2066L3.98402 27.748C3.78518 27.8591 3.6104 28.0086 3.46984 28.1878C3.32929 28.3671 3.22575 28.5724 3.16525 28.792C3.10476 29.0116 3.08851 29.241 3.11745 29.4669C3.14639 29.6928 3.21994 29.9107 3.33383 30.108C3.44773 30.3052 3.59969 30.4779 3.78088 30.6159C3.96208 30.7539 4.16889 30.8545 4.38931 30.9119C4.60973 30.9692 4.83935 30.9822 5.06483 30.9501C5.29032 30.9179 5.50716 30.8413 5.70277 30.7246L8.35902 29.191C8.54825 29.8551 8.63828 30.5436 8.6262 31.234C8.61826 31.6893 8.79134 32.1292 9.10744 32.457C9.42354 32.7848 9.85682 32.9738 10.3121 32.9824H10.3442C10.7945 32.9825 11.2269 32.8058 11.5483 32.4904C11.8697 32.175 12.0545 31.746 12.0629 31.2957C12.0871 29.9786 11.8618 28.6688 11.3989 27.4355L18.2809 23.4598V31.4059C16.9806 31.6208 15.7328 32.0802 14.6035 32.7598C14.2131 32.995 13.9321 33.3758 13.8223 33.8183C13.7126 34.2607 13.7831 34.7287 14.0184 35.1191C14.2537 35.5096 14.6344 35.7906 15.0769 35.9004C15.5194 36.0101 15.9873 35.9396 16.3778 35.7043C16.9697 35.3486 17.611 35.0824 18.2809 34.9145V37.5137C18.2809 37.9695 18.462 38.4067 18.7843 38.729C19.1066 39.0513 19.5438 39.2324 19.9996 39.2324C20.4555 39.2324 20.8927 39.0513 21.215 38.729C21.5373 38.4067 21.7184 37.9695 21.7184 37.5137V34.9145C22.3883 35.0824 23.0296 35.3486 23.6215 35.7043C24.012 35.9396 24.4799 36.0101 24.9224 35.9004C25.3649 35.7906 25.7456 35.5096 25.9809 35.1191C26.2162 34.7287 26.2867 34.2607 26.177 33.8183C26.0672 33.3758 25.7862 32.995 25.3957 32.7598C24.2665 32.0802 23.0187 31.6208 21.7184 31.4059V23.4598L28.6004 27.4355C28.1367 28.6692 27.9109 29.9795 27.9348 31.2973C27.9432 31.7475 28.128 32.1765 28.4494 32.492C28.7708 32.8074 29.2032 32.9841 29.6535 32.984H29.6871C29.9129 32.9798 30.1356 32.9312 30.3425 32.841C30.5494 32.7507 30.7366 32.6206 30.8932 32.458C31.0498 32.2954 31.1729 32.1036 31.2554 31.8934C31.3378 31.6833 31.3781 31.4589 31.3739 31.2332C31.3612 30.5418 31.451 29.8523 31.6403 29.1871L34.2965 30.7207C34.4921 30.8463 34.7112 30.9309 34.9404 30.9694C35.1696 31.0079 35.4043 30.9996 35.6302 30.9448C35.8561 30.89 36.0685 30.79 36.2547 30.6507C36.4408 30.5115 36.5968 30.336 36.7131 30.1347C36.8295 29.9335 36.9038 29.7108 36.9316 29.48C36.9594 29.2492 36.9401 29.0152 36.8749 28.7921C36.8096 28.569 36.6998 28.3614 36.5521 28.182C36.4043 28.0025 36.2217 27.8549 36.0153 27.748Z" fill="#5899D2"/>
</svg>
